<svg width="83" height="24" viewBox="0 0 83 24" fill="none" xmlns="http://www.w3.org/2000/svg">
<path d="M0.225 18V0.349999H5.275V7.925C5.625 7.05833 6.13333 6.4 6.8 5.95C7.48333 5.48333 8.28333 5.25 9.2 5.25C10.05 5.25 10.775 5.41667 11.375 5.75C11.9917 6.06667 12.4667 6.55 12.8 7.2C13.1333 7.83333 13.3 8.61667 13.3 9.55V18H8.25V10.9C8.25 10.1833 8.13333 9.69167 7.9 9.425C7.68333 9.15833 7.375 9.025 6.975 9.025C6.64167 9.025 6.34167 9.10833 6.075 9.275C5.825 9.44167 5.625 9.70833 5.475 10.075C5.34167 10.425 5.275 10.875 5.275 11.425V18H0.225ZM28.5176 5.5L24.4426 17.25C23.9426 18.75 23.3759 19.9417 22.7426 20.825C22.1259 21.725 21.3926 22.375 20.5426 22.775C19.6926 23.175 18.6592 23.375 17.4426 23.375C16.6926 23.375 16.0092 23.3 15.3926 23.15C14.7759 23 14.2426 22.8 13.7926 22.55L14.7426 19.275C15.0259 19.4417 15.3259 19.5667 15.6426 19.65C15.9759 19.7333 16.4176 19.775 16.9676 19.775C17.4842 19.775 17.8842 19.7083 18.1676 19.575C18.4509 19.4417 18.6592 19.2 18.7926 18.85L18.9676 18.375L17.4676 14.825L13.8176 5.5H19.3426L20.8426 12.275L21.3676 15.05L21.9926 12.2L23.5426 5.5H28.5176ZM36.226 10.125C36.226 9.65833 36.101 9.29167 35.851 9.025C35.6176 8.74167 35.2676 8.6 34.801 8.6C34.3676 8.6 33.9926 8.71667 33.676 8.95C33.376 9.18333 33.1843 9.625 33.101 10.275L28.826 9.5C28.9926 8.2 29.601 7.16667 30.651 6.4C31.701 5.63333 33.201 5.25 35.151 5.25C36.4843 5.25 37.601 5.44167 38.501 5.825C39.4176 6.19167 40.101 6.73333 40.551 7.45C41.001 8.16667 41.226 9.025 41.226 10.025V14.225C41.226 14.8917 41.5343 15.225 42.151 15.225C42.401 15.225 42.5926 15.1917 42.726 15.125L42.476 17.85C41.926 18.1167 41.2426 18.25 40.426 18.25C39.7093 18.25 39.076 18.1417 38.526 17.925C37.976 17.6917 37.5426 17.3583 37.226 16.925C36.9093 16.4917 36.751 15.925 36.751 15.225V15.025L37.251 14.95C37.251 15.6167 37.0426 16.2 36.626 16.7C36.226 17.2 35.6926 17.5833 35.026 17.85C34.376 18.1167 33.651 18.25 32.851 18.25C31.9843 18.25 31.2426 18.1167 30.626 17.85C30.0093 17.5833 29.5343 17.2 29.201 16.7C28.8843 16.2 28.726 15.5917 28.726 14.875C28.726 13.9583 29.001 13.2083 29.551 12.625C30.1176 12.0417 30.9676 11.6417 32.101 11.425L36.626 10.475L36.601 12.6L34.751 13.025C34.3343 13.1083 34.026 13.25 33.826 13.45C33.6426 13.6333 33.551 13.8917 33.551 14.225C33.551 14.5417 33.6593 14.7917 33.876 14.975C34.0926 15.1417 34.3593 15.225 34.676 15.225C34.8926 15.225 35.0926 15.1917 35.276 15.125C35.4593 15.0583 35.6176 14.9583 35.751 14.825C35.901 14.6917 36.0176 14.525 36.101 14.325C36.1843 14.125 36.226 13.8833 36.226 13.6V10.125ZM43.9506 18V5.5H48.4756L48.6256 8.425C48.9089 7.44167 49.3506 6.66667 49.9506 6.1C50.5673 5.53333 51.3673 5.25 52.3506 5.25C52.7006 5.25 52.9839 5.28333 53.2006 5.35C53.4173 5.4 53.5756 5.46667 53.6756 5.55L53.2256 9.65C53.0589 9.58333 52.8423 9.525 52.5756 9.475C52.3089 9.425 52.0006 9.4 51.6506 9.4C51.1506 9.4 50.7006 9.49167 50.3006 9.675C49.9006 9.85833 49.5839 10.1333 49.3506 10.5C49.1173 10.85 49.0006 11.3 49.0006 11.85V18H43.9506Z" fill="#FFFFFF"/>
<path d="M61.1137 5.25C62.4803 5.25 63.672 5.50833 64.6887 6.025C65.7053 6.525 66.497 7.25833 67.0637 8.225C67.6303 9.19167 67.9137 10.3667 67.9137 11.75C67.9137 13.1167 67.6303 14.2917 67.0637 15.275C66.497 16.2417 65.7053 16.9833 64.6887 17.5C63.672 18 62.4803 18.25 61.1137 18.25C59.7803 18.25 58.597 18 57.5637 17.5C56.547 16.9833 55.747 16.2417 55.1637 15.275C54.597 14.2917 54.3137 13.1167 54.3137 11.75C54.3137 10.3667 54.597 9.19167 55.1637 8.225C55.747 7.25833 56.547 6.525 57.5637 6.025C58.597 5.50833 59.7803 5.25 61.1137 5.25ZM61.1137 8.725C60.747 8.725 60.4303 8.81667 60.1637 9C59.9137 9.18333 59.722 9.5 59.5887 9.95C59.4553 10.4 59.3887 11 59.3887 11.75C59.3887 12.5 59.4553 13.1 59.5887 13.55C59.722 13.9833 59.9137 14.3 60.1637 14.5C60.4303 14.6833 60.747 14.775 61.1137 14.775C61.497 14.775 61.8137 14.6833 62.0637 14.5C62.3137 14.3 62.5053 13.9833 62.6387 13.55C62.772 13.1 62.8387 12.5 62.8387 11.75C62.8387 11 62.772 10.4 62.6387 9.95C62.5053 9.5 62.3137 9.18333 62.0637 9C61.8137 8.81667 61.497 8.725 61.1137 8.725ZM76.0551 5.25C77.4217 5.25 78.6134 5.50833 79.6301 6.025C80.6467 6.525 81.4384 7.25833 82.0051 8.225C82.5717 9.19167 82.8551 10.3667 82.8551 11.75C82.8551 13.1167 82.5717 14.2917 82.0051 15.275C81.4384 16.2417 80.6467 16.9833 79.6301 17.5C78.6134 18 77.4217 18.25 76.0551 18.25C74.7217 18.25 73.5384 18 72.5051 17.5C71.4884 16.9833 70.6884 16.2417 70.1051 15.275C69.5384 14.2917 69.2551 13.1167 69.2551 11.75C69.2551 10.3667 69.5384 9.19167 70.1051 8.225C70.6884 7.25833 71.4884 6.525 72.5051 6.025C73.5384 5.50833 74.7217 5.25 76.0551 5.25ZM76.0551 8.725C75.6884 8.725 75.3717 8.81667 75.1051 9C74.8551 9.18333 74.6634 9.5 74.5301 9.95C74.3967 10.4 74.3301 11 74.3301 11.75C74.3301 12.5 74.3967 13.1 74.5301 13.55C74.6634 13.9833 74.8551 14.3 75.1051 14.5C75.3717 14.6833 75.6884 14.775 76.0551 14.775C76.4384 14.775 76.7551 14.6833 77.0051 14.5C77.2551 14.3 77.4467 13.9833 77.5801 13.55C77.7134 13.1 77.7801 12.5 77.7801 11.75C77.7801 11 77.7134 10.4 77.5801 9.95C77.4467 9.5 77.2551 9.18333 77.0051 9C76.7551 8.81667 76.4384 8.725 76.0551 8.725Z" fill="#FFFFFF"/>
</svg>
