<svg width="31" height="32" viewBox="0 0 31 32" fill="none" xmlns="http://www.w3.org/2000/svg">
<path d="M23.5073 10.2263L22.5461 9.66382C22.7372 9.1018 22.841 8.49974 22.841 7.87395C22.841 7.24894 22.7375 6.64761 22.5468 6.0862L23.5093 5.52042C24.0861 5.18136 24.2788 4.43897 23.9397 3.86223C23.6007 3.28543 22.8583 3.0927 22.2816 3.43177L21.2863 4.0168C20.5392 3.23898 19.5691 2.67708 18.4799 2.43462V1.21138C18.4799 0.542333 17.9376 0 17.2686 0C16.5995 0 16.0572 0.542333 16.0572 1.21138V2.43462C14.9447 2.68223 13.9566 3.26327 13.2033 4.0672L12.1223 3.43177C11.5455 3.09283 10.8032 3.2855 10.4641 3.86223C10.1251 4.43891 10.3178 5.18136 10.8946 5.52042L11.9689 6.15198C11.7921 6.69455 11.6962 7.27323 11.6962 7.87401C11.6962 8.47564 11.7924 9.05516 11.9696 9.5984L10.8966 10.2264C10.3192 10.5643 10.125 11.3063 10.4629 11.8837C10.6883 12.2688 11.0934 12.4834 11.5096 12.4834C11.7174 12.4834 11.928 12.4299 12.1203 12.3174L13.205 11.6826C13.9581 12.4856 14.9456 13.0659 16.0572 13.3133V14.5365C16.0572 15.2056 16.5995 15.7479 17.2686 15.7479C17.9376 15.7479 18.4799 15.2056 18.4799 14.5365V13.3133C19.5683 13.071 20.5378 12.5098 21.2846 11.7327L22.2836 12.3173C22.4759 12.4298 22.6864 12.4834 22.8943 12.4834C23.3104 12.4834 23.7156 12.2688 23.9409 11.8837C24.2789 11.3063 24.0847 10.5642 23.5073 10.2263ZM17.2687 11.0235C15.532 11.0235 14.1191 9.61064 14.1191 7.87395C14.1191 6.13726 15.532 4.72437 17.2687 4.72437C19.0054 4.72437 20.4183 6.13726 20.4183 7.87395C20.4183 9.61064 19.0053 11.0235 17.2687 11.0235Z" fill="#39C4FF"/>
<path d="M16.1724 26.2869C16.154 26.287 16.2173 26.2869 16.1724 26.2869V26.2869Z" fill="#006CFB"/>
<path d="M30.6244 23.1101C29.8345 21.593 28.0466 20.9531 26.3731 21.5879C25.2059 22.0309 23.7788 22.5724 22.2255 23.0008C22.3688 22.3111 22.2974 21.5807 22.0108 20.8862C21.5931 19.8736 20.7346 19.1204 19.6555 18.8194C19.1038 18.6656 18.505 18.631 17.8758 18.7165C13.7255 19.2809 11.2542 17.8776 9.07374 16.6393C7.60827 15.8071 6.22403 15.021 4.60358 15.021C2.71195 15.021 0.849883 15.682 0.849883 15.682C0.211367 15.8818 -0.144233 16.5614 0.0556441 17.1999C0.255461 17.8384 0.935164 18.1938 1.57356 17.9941C1.57356 17.9941 3.122 17.4437 4.60358 17.4437C5.58406 17.4437 6.59611 18.0184 7.87738 18.7461C9.79596 19.8356 12.315 21.2664 16.0595 21.2663C16.7328 21.2663 17.4462 21.22 18.2024 21.1171C18.4984 21.0769 18.7759 21.0893 19.0047 21.1531C19.2601 21.2243 19.6003 21.3962 19.7712 21.8102C19.9037 22.1314 19.9103 22.4318 19.7908 22.7033C19.6443 23.0364 19.3104 23.3124 18.8506 23.4805C18.1884 23.7226 17.2437 23.8519 16.1722 23.864C15.0198 23.8713 13.895 23.7396 12.9066 23.4799C12.2595 23.3097 11.5971 23.6965 11.4271 24.3436C11.257 24.9906 11.6437 25.653 12.2908 25.823C13.4487 26.1273 14.7791 26.2868 16.1722 26.2868C20.7775 26.2671 24.7201 24.8067 27.2328 23.853C27.6538 23.6934 28.2337 23.7646 28.4863 24.25C28.7136 24.6865 28.5463 25.2299 28.1134 25.4611C25.0731 27.0854 21.5452 28.5884 16.3608 28.5884C11.7455 28.5884 7.49428 26.8074 4.7407 25.3133C2.61946 24.1623 1.06951 24.5259 0.899731 24.5712L0.901791 24.5788C0.3832 24.7159 0.000405323 25.187 0.000405323 25.7486C0.000405323 26.4177 0.542739 26.96 1.21178 26.96C1.32856 26.96 1.4411 26.9426 1.548 26.9117C1.7549 26.8872 2.50166 26.8548 3.58529 27.4428C6.58545 29.0707 11.2373 31.0112 16.3608 31.0112C22.8663 31.0112 27.1813 28.7059 29.255 27.5981C30.8537 26.744 31.4615 24.7183 30.6244 23.1101Z" fill="#006CFB"/>
</svg>
