<svg width="31" height="32" viewBox="0 0 31 32" fill="none" xmlns="http://www.w3.org/2000/svg">
<path d="M10.7168 26.6562H7.05734C6.69188 25.6259 5.8742 24.8081 4.84375 24.4427V20.7832C4.84375 20.1144 4.30161 19.5723 3.63281 19.5723C2.96401 19.5723 2.42188 20.1144 2.42188 20.7832V24.4427C1.01246 24.9426 0 26.2885 0 27.8672C0 29.8703 1.62968 31.5 3.63281 31.5C5.21145 31.5 6.55741 30.4875 7.05734 29.0781H10.7168C11.3856 29.0781 11.9277 28.536 11.9277 27.8672C11.9277 27.1984 11.3856 26.6562 10.7168 26.6562ZM3.63281 29.0781C2.9651 29.0781 2.42188 28.5349 2.42188 27.8672C2.42188 27.1995 2.9651 26.6562 3.63281 26.6562C4.30052 26.6562 4.84375 27.1995 4.84375 27.8672C4.84375 28.5349 4.30052 29.0781 3.63281 29.0781ZM27.3672 0.5C25.7885 0.5 24.4426 1.51246 23.9427 2.92188H20.2227C19.5539 2.92188 19.0117 3.46401 19.0117 4.13281C19.0117 4.80161 19.5539 5.34375 20.2227 5.34375H23.9427C24.3081 6.37414 25.1258 7.19188 26.1562 7.55734V11.1562C26.1562 11.8251 26.6984 12.3672 27.3672 12.3672C28.036 12.3672 28.5781 11.8251 28.5781 11.1562V7.55734C29.9875 7.05747 31 5.71145 31 4.13281C31 2.12968 29.3703 0.5 27.3672 0.5ZM27.3672 5.34375C26.6995 5.34375 26.1562 4.80052 26.1562 4.13281C26.1562 3.4651 26.6995 2.92188 27.3672 2.92188C28.0349 2.92188 28.5781 3.4651 28.5781 4.13281C28.5781 4.80052 28.0349 5.34375 27.3672 5.34375ZM28.8809 16.1211C28.8809 16.9571 28.2032 17.6348 27.3672 17.6348C26.5312 17.6348 25.8535 16.9571 25.8535 16.1211C25.8535 15.2851 26.5312 14.6074 27.3672 14.6074C28.2032 14.6074 28.8809 15.2851 28.8809 16.1211ZM18.2246 17.332C18.2246 18.168 17.5469 18.8457 16.7109 18.8457C15.875 18.8457 15.1973 18.168 15.1973 17.332C15.1973 16.4961 15.875 15.8184 16.7109 15.8184C17.5469 15.8184 18.2246 16.4961 18.2246 17.332ZM10.7168 2.92188H7.05734C6.55741 1.51246 5.21145 0.5 3.63281 0.5C1.62968 0.5 0 2.12968 0 4.13281C0 5.71145 1.01246 7.05741 2.42188 7.55734V11.1562C2.42188 11.8251 2.96401 12.3672 3.63281 12.3672C4.30161 12.3672 4.84375 11.8251 4.84375 11.1562V7.55734C5.87414 7.19188 6.69188 6.3742 7.05734 5.34375H10.7168C11.3856 5.34375 11.9277 4.80161 11.9277 4.13281C11.9277 3.46401 11.3856 2.92188 10.7168 2.92188ZM3.63281 5.34375C2.9651 5.34375 2.42188 4.80052 2.42188 4.13281C2.42188 3.4651 2.9651 2.92188 3.63281 2.92188C4.30052 2.92188 4.84375 3.4651 4.84375 4.13281C4.84375 4.80052 4.30052 5.34375 3.63281 5.34375ZM16.9531 27.8672C16.9531 28.7032 16.2754 29.3809 15.4395 29.3809C14.6035 29.3809 13.9258 28.7032 13.9258 27.8672C13.9258 27.0312 14.6035 26.3535 15.4395 26.3535C16.2754 26.3535 16.9531 27.0312 16.9531 27.8672Z" fill="#006CFB"/>
<path d="M13.9258 4.13281C13.9258 3.29684 14.6035 2.61914 15.4395 2.61914C16.2754 2.61914 16.9531 3.29684 16.9531 4.13281C16.9531 4.96878 16.2754 5.64648 15.4395 5.64648C14.6035 5.64648 13.9258 4.96878 13.9258 4.13281ZM30.6491 24.6534L24.1322 18.0783C23.7005 15.8748 22.6906 13.695 21.1966 11.7505C20.8818 11.3408 20.3418 11.176 19.852 11.34C17.6374 12.0813 14.8858 11.7171 11.4398 10.2265C10.991 10.0324 10.4695 10.1273 10.1177 10.4669C9.76603 10.8067 9.65317 11.3246 9.8316 11.7799C11.0419 14.8672 11.3789 17.8565 10.8064 20.4249C10.7153 20.8337 10.8419 21.2606 11.1412 21.5537C12.8032 23.1807 15.4037 24.4824 17.5099 24.7744L23.78 31.1389C24.0171 31.3795 24.3298 31.5 24.6428 31.5C24.9496 31.5 25.2567 31.3841 25.4925 31.1517C25.969 30.6824 25.9747 29.9157 25.5053 29.4392L18.9304 22.7655C18.7219 22.5539 18.4429 22.4263 18.1465 22.407C16.7133 22.3136 14.6997 21.3985 13.3073 20.2466C13.6642 18.1032 13.5211 15.7658 12.8913 13.3574C14.5344 13.876 16.0489 14.1342 17.4522 14.1342C18.2539 14.1342 19.0197 14.0498 19.7514 13.8814C20.6985 15.2673 21.3611 16.7603 21.6965 18.263L20.2747 19.6848C19.8017 20.1578 19.8017 20.9245 20.2747 21.3973C20.7476 21.8702 21.5143 21.8703 21.9872 21.3973L23.0041 20.3804L28.9291 26.3584C29.1658 26.5972 29.4774 26.7168 29.7891 26.7168C30.0971 26.7168 30.4054 26.5999 30.6415 26.3659C31.1165 25.8951 31.1199 25.1284 30.6491 24.6534ZM3.63281 14.6074C2.79684 14.6074 2.11914 15.2851 2.11914 16.1211C2.11914 16.9571 2.79684 17.6348 3.63281 17.6348C4.46878 17.6348 5.14648 16.9571 5.14648 16.1211C5.14648 15.2851 4.46878 14.6074 3.63281 14.6074Z" fill="#39C4FF"/>
</svg>
