<svg width="29" height="30" viewBox="0 0 29 30" fill="none" xmlns="http://www.w3.org/2000/svg">
<path d="M16.0857 27.8518C15.5997 28.1772 15.1286 28.3672 14.4998 28.3672C12.8106 28.3672 11.4412 26.9978 11.4412 25.3086V20.6642C11.4412 18.975 12.8106 17.6056 14.4998 17.6056C15.1286 17.6056 15.5997 17.7956 16.0857 18.121C15.2661 18.6696 14.7263 19.6037 14.7263 20.6642V25.3086C14.7263 26.369 15.2661 27.3031 16.0857 27.8518ZM25.0348 25.3086V15.3967C25.0348 14.3363 25.5745 13.4022 26.3941 12.8535C25.9081 12.5281 25.437 12.3381 24.8082 12.3381C23.119 12.3381 21.7497 13.7074 21.7497 15.3967V25.3086C21.7497 26.9978 23.119 28.3672 24.8082 28.3672C25.437 28.3672 25.9081 28.1772 26.3941 27.8518C25.5745 27.3031 25.0348 26.369 25.0348 25.3086ZM4.41791 25.3086V14.5471C4.41791 13.4867 4.95769 12.5526 5.77727 12.0039C5.29124 11.6786 4.82017 11.4885 4.19136 11.4885C2.50219 11.4885 1.13281 12.8578 1.13281 14.5471V25.3086C1.13281 26.9978 2.50219 28.3672 4.19136 28.3672C4.82017 28.3672 5.29124 28.1772 5.77727 27.8518C4.95769 27.3031 4.41791 26.369 4.41791 25.3086Z" fill="#CEE1F2"/>
<path d="M4.19134 29.5001C1.88021 29.5001 0 27.6198 0 25.3087V14.5472C0 12.236 1.88021 10.3558 4.19134 10.3558C6.50246 10.3558 8.38268 12.236 8.38268 14.5472V25.3087C8.38268 27.6198 6.50246 29.5001 4.19134 29.5001ZM4.19134 12.6214C3.12946 12.6214 2.26559 13.4853 2.26559 14.5472V25.3087C2.26559 26.3706 3.12946 27.2345 4.19134 27.2345C5.25322 27.2345 6.11709 26.3706 6.11709 25.3087V14.5472C6.11709 13.4853 5.25322 12.6214 4.19134 12.6214ZM14.4998 29.5001C12.1886 29.5001 10.3084 27.6198 10.3084 25.3087V20.6643C10.3084 18.3531 12.1886 16.4729 14.4998 16.4729C16.8109 16.4729 18.6911 18.3531 18.6911 20.6643V25.3087C18.6911 27.6198 16.8109 29.5001 14.4998 29.5001ZM14.4998 18.7385C13.4379 18.7385 12.574 19.6024 12.574 20.6643V25.3087C12.574 26.3706 13.4379 27.2345 14.4998 27.2345C15.5616 27.2345 16.4255 26.3706 16.4255 25.3087V20.6643C16.4255 19.6024 15.5616 18.7385 14.4998 18.7385ZM24.8082 29.5001C22.4971 29.5001 20.6168 27.6198 20.6168 25.3087V15.3968C20.6168 13.0856 22.4971 11.2054 24.8082 11.2054C27.1193 11.2054 28.9995 13.0856 28.9995 15.3968V25.3087C28.9995 27.6198 27.1193 29.5001 24.8082 29.5001ZM24.8082 13.471C23.7463 13.471 22.8824 14.3349 22.8824 15.3968V25.3087C22.8824 26.3706 23.7463 27.2345 24.8082 27.2345C25.8701 27.2345 26.7339 26.3706 26.7339 25.3087V15.3968C26.7339 14.3349 25.8701 13.471 24.8082 13.471Z" fill="#006CFB"/>
<path d="M15.571 14.3173C14.7069 14.3173 13.8388 14.0374 13.1151 13.4651C13.0949 13.449 5.86394 6.88154 5.86394 6.88154C5.2204 6.39268 4.32696 6.4231 3.71797 6.95602L1.92941 8.72516C1.48456 9.16514 0.767273 9.16117 0.327465 8.71644C-0.112568 8.27159 -0.108604 7.55436 0.336188 7.11444C0.336188 7.11444 2.17205 5.29914 2.18536 5.28713C3.62644 3.99104 5.77581 3.92302 7.29602 5.12525C7.31624 5.14128 14.5471 11.7088 14.5471 11.7088C15.2473 12.2404 16.247 12.1482 16.8375 11.492C16.8446 11.4841 16.8518 11.4764 16.8591 11.4687L23.1381 4.87315C23.5695 4.42003 24.2865 4.40236 24.7396 4.83379C25.1927 5.26515 25.2104 5.98216 24.779 6.43533L18.5101 13.0202C17.7327 13.8765 16.655 14.3172 15.571 14.3173ZM28.9995 6.95693V3.89838C28.9995 2.02451 27.475 0.5 25.6011 0.5H22.5426C21.9169 0.5 21.4098 1.00715 21.4098 1.63279C21.4098 2.25844 21.9169 2.76559 22.5426 2.76559H25.6011C26.2257 2.76559 26.7339 3.27376 26.7339 3.89838V6.95693C26.7339 7.58257 27.2411 8.08972 27.8667 8.08972C28.4923 8.08972 28.9995 7.58257 28.9995 6.95693Z" fill="#67CEFA"/>
</svg>
