<svg width="36" height="36" viewBox="0 0 36 36" fill="none" xmlns="http://www.w3.org/2000/svg">
<path d="M35.8744 20.1349L31.1442 10.0047C31.0055 9.72101 30.7048 9.55396 30.3907 9.58608H26.3721C25.9097 9.58608 25.5349 9.9609 25.5349 10.4233C25.5349 10.8857 25.9097 11.2605 26.3721 11.2605H29.8465L33.7396 19.6326H28.9675C26.8038 19.622 24.8361 20.8846 23.9442 22.8559C23.2983 24.2118 21.9298 25.0752 20.4279 25.0745H15.5721C14.0702 25.0752 12.7018 24.2118 12.0558 22.8559C11.1639 20.8846 9.19618 19.622 7.03253 19.6326H2.34418L6.9488 11.2605H9.62789C10.0903 11.2605 10.4651 10.8857 10.4651 10.4233C10.4651 9.9609 10.0903 9.58608 9.62789 9.58608H6.4465C6.14396 9.5574 5.85158 9.70363 5.69302 9.96283L0.167458 20.0931C0.0705889 20.179 0.0105763 20.2989 0 20.428V30.8513C0.0666628 33.1975 1.96495 35.0773 4.31161 35.1211H31.6884C34.0351 35.0773 35.9333 33.1975 36 30.8513V20.428C35.9841 20.3211 35.9408 20.2202 35.8744 20.1349ZM34.3256 30.8512C34.2605 32.2728 33.1109 33.4043 31.6884 33.4466H4.31161C2.8891 33.4043 1.73948 32.2729 1.67442 30.8512V21.307H7.03253C8.53444 21.3064 9.90279 22.1697 10.5488 23.5257C11.4407 25.497 13.4084 26.7596 15.5721 26.749H20.4279C22.5916 26.7596 24.5593 25.497 25.4512 23.5257C26.0971 22.1697 27.4656 21.3064 28.9675 21.307H34.3256V30.8512Z" fill="#39C4FF"/>
<path d="M17.4143 20.2605C17.7112 20.5842 18.2144 20.6058 18.538 20.3088C18.5549 20.2934 18.571 20.2772 18.5863 20.2605L24.2794 14.5255C24.5567 14.1556 24.4818 13.6309 24.1119 13.3534C23.8142 13.1302 23.4049 13.1302 23.1072 13.3534L18.8375 17.6232V1.71624C18.8375 1.25385 18.4626 0.879028 18.0002 0.879028C17.5379 0.879028 17.163 1.25385 17.163 1.71624V17.6233L12.8933 13.3535C12.5233 13.0761 11.9986 13.151 11.7211 13.5209C11.4979 13.8186 11.4979 14.2279 11.7211 14.5256L17.4143 20.2605Z" fill="#006CFB"/>
</svg>
