<svg width="29" height="29" viewBox="0 0 29 29" fill="none" xmlns="http://www.w3.org/2000/svg">
<path d="M28.6431 21.6114C27.9045 20.1926 26.2325 19.5943 24.6675 20.1879C23.5761 20.6022 22.2415 21.1085 20.7889 21.5092C20.923 20.8641 20.8561 20.1811 20.5882 19.5317C20.1975 18.5848 19.3948 17.8804 18.3856 17.599C17.8697 17.4551 17.3097 17.4227 16.7213 17.5027C12.8403 18.0305 10.5292 16.7182 8.49014 15.5603C7.11972 14.782 5.82525 14.0469 4.30989 14.0469C2.46397 14.0469 0.799646 14.665 0.799646 14.665C0.202541 14.8519 -0.129996 15.4874 0.0569181 16.0845C0.243775 16.6816 0.879396 17.0139 1.47639 16.8272C1.47639 16.8272 2.80676 16.3125 4.30989 16.3125C5.22679 16.3125 6.1732 16.8499 7.37137 17.5304C9.16552 18.5492 11.5211 19.8873 15.0228 19.8871C15.6525 19.8871 16.3196 19.8438 17.0267 19.7476C17.3035 19.71 17.5631 19.7216 17.777 19.7813C18.0158 19.8479 18.334 20.0086 18.4938 20.3958C18.6177 20.6961 18.6239 20.9771 18.5122 21.2309C18.3752 21.5424 18.0629 21.8005 17.633 21.9577C17.0136 22.1841 16.1303 22.305 15.1282 22.3164C14.0506 22.3232 12.9987 22.2001 12.0744 21.9571C11.4693 21.798 10.8498 22.1597 10.6909 22.7648C10.5318 23.3699 10.8935 23.9893 11.4985 24.1483C12.5813 24.4329 13.8914 24.5825 15.1282 24.5825V24.5812C19.4349 24.5628 23.1218 23.198 25.4714 22.3061C25.8652 22.1568 26.3881 22.1798 26.6437 22.6773C26.8563 23.0855 26.6998 23.5937 26.2949 23.8099C23.4519 25.3288 20.1527 26.7344 15.3046 26.7344C10.9886 26.7344 7.01312 25.0689 4.43813 23.6717C2.61503 22.6824 1.24405 22.8894 0.910662 22.9623C0.909812 22.9625 0.00520521 23.0963 0.00520521 24.0723C0.00520521 24.6979 0.512365 25.2051 1.13802 25.2051C1.23901 25.2051 1.42977 25.1668 1.42977 25.1668C1.42977 25.1668 2.18298 25.0258 3.35759 25.6631C6.16323 27.1853 10.5133 29 15.3046 29C21.3882 29 25.4234 26.8442 27.3625 25.8082C28.8575 25.0096 29.426 23.1153 28.6431 21.6114Z" fill="#006CFB"/>
<path d="M9.7892 11.1129C9.99996 11.4731 10.3788 11.6737 10.7679 11.6737C10.9623 11.6737 11.1592 11.6237 11.3391 11.5185L12.3534 10.9249C13.0576 11.6758 13.9811 12.2185 15.0206 12.4498V13.5938C15.0206 14.2194 15.5278 14.7266 16.1534 14.7266C16.7791 14.7266 17.2863 14.2194 17.2863 13.5938V12.4498C18.304 12.2233 19.2106 11.6984 19.9091 10.9718L20.8432 11.5185C21.023 11.6237 21.2199 11.6737 21.4143 11.6737C21.8035 11.6737 22.1823 11.4731 22.393 11.1129C22.709 10.573 22.5275 9.87909 21.9875 9.56309L21.0886 9.03707C21.2673 8.5115 21.3643 7.94849 21.3643 7.36328C21.3643 6.77881 21.2676 6.21648 21.0893 5.69148L21.9893 5.1624C22.5287 4.84532 22.7089 4.15108 22.3918 3.61175C22.0748 3.07236 21.3806 2.89213 20.8412 3.2092L19.9105 3.75629C19.2119 3.02891 18.3047 2.50346 17.2861 2.27673V1.13281C17.2861 0.50716 16.779 0 16.1533 0C15.5277 0 15.0205 0.50716 15.0205 1.13281V2.27673C13.9802 2.50827 13.0562 3.05163 12.3517 3.80342L11.3409 3.2092C10.8014 2.89224 10.1073 3.07241 9.79021 3.61175C9.47314 4.15102 9.65337 4.84532 10.1927 5.1624L11.1973 5.75299C11.0321 6.26038 10.9423 6.80152 10.9423 7.36334C10.9423 7.92595 11.0323 8.46789 11.1981 8.9759L10.1946 9.56315C9.65479 9.87909 9.4732 10.573 9.7892 11.1129ZM16.1534 4.41797C17.7775 4.41797 19.0988 5.73922 19.0988 7.36328C19.0988 8.98734 17.7775 10.3086 16.1534 10.3086C14.5294 10.3086 13.2081 8.98734 13.2081 7.36328C13.2081 5.73922 14.5294 4.41797 16.1534 4.41797Z" fill="#006CFB"/>
</svg>
