<svg width="46" height="62" viewBox="0 0 46 62" fill="none" xmlns="http://www.w3.org/2000/svg">
<path d="M44.6989 40.5966L43.6989 40.594L43.6989 40.599L44.6989 40.5966ZM14.8977 26.4489V27.4489H15.4129L15.712 27.0293L14.8977 26.4489ZM14.5568 26.4489L13.5621 26.3461L13.4482 27.4489H14.5568V26.4489ZM16.0625 11.875V10.875H15.1605L15.0678 11.7722L16.0625 11.875ZM41.4886 11.875V12.875H42.4886V11.875H41.4886ZM41.4886 1.81818H42.4886V0.81818H41.4886V1.81818ZM5.92045 1.81818V0.81818H5.00624L4.92446 1.72873L5.92045 1.81818ZM3.16477 32.5L2.16878 32.4105L2.08685 33.3227L2.98836 33.4843L3.16477 32.5ZM14.1023 34.4602L13.9259 35.4445L14.5364 35.554L14.9057 35.0557L14.1023 34.4602ZM22.7955 30.5398L22.8003 29.5398H22.7955V30.5398ZM13.8466 43.5511L14.8446 43.4884L14.7857 42.5511H13.8466V43.5511ZM1.91477 43.5511V42.5511H0.891919L0.915028 43.5737L1.91477 43.5511ZM22.9659 61.7955C29.6622 61.7955 35.3581 59.612 39.385 55.836C43.4161 52.0561 45.7137 46.736 45.6989 40.5942L43.6989 40.599C43.7124 46.2185 41.6208 50.9979 38.017 54.3771C34.409 57.7602 29.2242 59.7955 22.9659 59.7955V61.7955ZM45.6989 40.5991C45.7286 28.9478 37.534 20.4489 26.4602 20.4489V22.4489C36.3524 22.4489 43.726 29.9727 43.6989 40.594L45.6989 40.5991ZM26.4602 20.4489C21.1113 20.4489 16.3624 22.6715 14.0835 25.8684L15.712 27.0293C17.524 24.4876 21.5819 22.4489 26.4602 22.4489V20.4489ZM14.8977 25.4489H14.5568V27.4489H14.8977V25.4489ZM15.5515 26.5516L17.0572 11.9778L15.0678 11.7722L13.5621 26.3461L15.5515 26.5516ZM16.0625 12.875H41.4886V10.875H16.0625V12.875ZM42.4886 11.875V1.81818H40.4886V11.875H42.4886ZM41.4886 0.81818H5.92045V2.81818H41.4886V0.81818ZM4.92446 1.72873L2.16878 32.4105L4.16076 32.5895L6.91645 1.90763L4.92446 1.72873ZM2.98836 33.4843L13.9259 35.4445L14.2787 33.4759L3.34118 31.5157L2.98836 33.4843ZM14.9057 35.0557C16.4672 32.9488 19.6017 31.5398 22.7955 31.5398V29.5398C19.1142 29.5398 15.3169 31.1421 13.2989 33.8648L14.9057 35.0557ZM22.7906 31.5398C25.4695 31.5528 27.7212 32.5236 29.3031 34.1433C30.8857 35.7637 31.8523 38.0899 31.8523 40.9091H33.8523C33.8523 37.6203 32.7166 34.776 30.7339 32.7459C28.7504 30.715 25.9737 29.5552 22.8003 29.5398L22.7906 31.5398ZM31.8523 40.9091C31.8523 43.7032 30.9048 46.0008 29.3548 47.5948C27.8063 49.1873 25.6 50.1364 22.9659 50.1364V52.1364C26.0989 52.1364 28.8358 50.9974 30.7887 48.989C32.7401 46.9822 33.8523 44.1661 33.8523 40.9091H31.8523ZM22.9659 50.1364C18.4747 50.1364 15.0878 47.3556 14.8446 43.4884L12.8486 43.6139C13.1735 48.7808 17.6844 52.1364 22.9659 52.1364V50.1364ZM13.8466 42.5511H1.91477V44.5511H13.8466V42.5511ZM0.915028 43.5737C1.15811 54.3301 10.5479 61.7955 22.9659 61.7955V59.7955C11.293 59.7955 3.12598 52.8858 2.91452 43.5285L0.915028 43.5737Z" fill="black" fill-opacity="0.1"/>
</svg>
