<svg width="50" height="61" viewBox="0 0 50 61" fill="none" xmlns="http://www.w3.org/2000/svg">
<path d="M1.83523 49.7727H0.835227V50.7727H1.83523V49.7727ZM29.7614 49.7727H30.7614V48.7727H29.7614V49.7727ZM29.7614 60H28.7614V61H29.7614V60ZM41.5227 60V61H42.5227V60H41.5227ZM41.5227 49.7727V48.7727H40.5227V49.7727H41.5227ZM48.7386 49.7727V50.7727H49.7386V49.7727H48.7386ZM48.7386 39.9148H49.7386V38.9148H48.7386V39.9148ZM41.5227 39.9148H40.5227V40.9148H41.5227V39.9148ZM41.5227 1.81818H42.5227V0.81818H41.5227V1.81818ZM26.125 1.81818V0.81818H25.5753L25.2807 1.28228L26.125 1.81818ZM1.83523 40.0852L0.990947 39.5493L0.835227 39.7947V40.0852H1.83523ZM29.9886 39.9148V40.9148H30.9886V39.9148H29.9886ZM14.2216 39.9148H13.2216V40.9148H14.2216V39.9148ZM14.2216 39.4602L13.3762 38.926L13.2216 39.1708V39.4602H14.2216ZM29.5341 15.2273V14.2273H28.9831L28.6887 14.6931L29.5341 15.2273ZM29.9886 15.2273H30.9886V14.2273H29.9886V15.2273ZM1.83523 50.7727H29.7614V48.7727H1.83523V50.7727ZM28.7614 49.7727V60H30.7614V49.7727H28.7614ZM29.7614 61H41.5227V59H29.7614V61ZM42.5227 60V49.7727H40.5227V60H42.5227ZM41.5227 50.7727H48.7386V48.7727H41.5227V50.7727ZM49.7386 49.7727V39.9148H47.7386V49.7727H49.7386ZM48.7386 38.9148H41.5227V40.9148H48.7386V38.9148ZM42.5227 39.9148V1.81818H40.5227V39.9148H42.5227ZM41.5227 0.81818H26.125V2.81818H41.5227V0.81818ZM25.2807 1.28228L0.990947 39.5493L2.67951 40.6211L26.9693 2.35408L25.2807 1.28228ZM0.835227 40.0852V49.7727H2.83523V40.0852H0.835227ZM29.9886 38.9148H14.2216V40.9148H29.9886V38.9148ZM15.2216 39.9148V39.4602H13.2216V39.9148H15.2216ZM15.067 39.9944L30.3795 15.7614L28.6887 14.6931L13.3762 38.926L15.067 39.9944ZM29.5341 16.2273H29.9886V14.2273H29.5341V16.2273ZM28.9886 15.2273V39.9148H30.9886V15.2273H28.9886Z" fill="black" fill-opacity="0.1"/>
</svg>
