<svg width="56" height="56" viewBox="0 0 56 56" fill="none" xmlns="http://www.w3.org/2000/svg">
<path d="M55.3894 41.9564C54.7788 41.1713 54.1682 40.5608 53.3832 40.2118L48.324 37.6823C48.2368 37.595 47.9751 37.2461 47.9751 36.7227V36.1122C49.109 34.891 49.7196 33.2337 49.7196 31.4891V29.7446C49.7196 28.3489 49.1963 27.0405 48.1495 26.081C47.19 25.0343 45.8816 24.5109 44.486 24.5109C43.0903 24.5109 41.7819 25.0343 40.8224 26.081C39.7757 27.0405 39.2523 28.3489 39.2523 29.7446V31.4891C39.2523 33.1464 39.8629 34.891 40.9969 36.1122V36.7227C40.9969 37.2461 40.7352 37.595 40.648 37.6823L37.9439 38.9907L33.4953 36.81C33.4081 36.7227 33.1464 36.4611 33.1464 35.8505V32.8847C34.7165 31.3146 35.5888 29.134 35.7632 26.9533C35.9377 26.866 36.0249 26.7788 36.1122 26.6916C36.4611 26.2555 36.6355 25.8193 36.6355 25.3832V21.0218C36.6355 18.6667 35.7632 16.486 34.1059 14.8287C32.4486 13.1713 30.2679 12.2991 27.9128 12.2991C25.5576 12.2991 23.3769 13.1713 21.7196 14.8287C20.0623 16.486 19.19 18.6667 19.19 21.0218V25.3832C19.19 25.8193 19.3645 26.2555 19.7134 26.6044C19.8006 26.6916 19.9751 26.7788 20.0623 26.866C20.2368 29.0467 21.109 31.3146 22.6791 32.7975V35.8505C22.6791 36.4611 22.4174 36.7227 22.3302 36.81L17.8816 38.9907L15.1776 37.6823C15.0903 37.595 14.8287 37.2461 14.8287 36.7227V36.1122C15.9626 34.891 16.5732 33.2337 16.5732 31.4891V29.7446C16.5732 28.3489 16.0498 27.0405 15.0031 26.081C14.0436 25.0343 12.7352 24.5109 11.3396 24.5109C9.94393 24.5109 8.63551 25.0343 7.67601 26.081C6.62928 27.0405 6.10592 28.3489 6.10592 29.7446V31.4891C6.10592 33.1464 6.71651 34.891 7.85047 36.1122V36.7227C7.85047 37.2461 7.58879 37.595 7.50156 37.6823L2.44237 40.2118C1.74455 40.5608 1.13396 41.1714 0.697819 41.7819C0.261682 42.4798 0 43.2648 0 44.1371V46.8411L1.13396 47.3645C2.70405 48.1495 4.36137 48.7601 6.10592 49.109C7.23988 49.3707 8.46106 49.5452 9.68224 49.6324V55.9128H11.4268V49.8069V48.0623C11.4268 44.2243 14.1308 42.9159 17.8816 40.9969H17.9688H18.0561V40.9097L22.0685 38.9034C22.6791 41.6075 25.1215 43.7009 28 43.7009C30.8785 43.7009 33.3209 41.6947 33.9315 38.9034L37.9439 40.9097V40.9969H38.0312H38.1184C41.8692 42.9159 44.5732 44.2243 44.5732 48.0623V49.8069V55.9128H46.3178V49.7196C47.5389 49.6324 48.7601 49.458 49.8941 49.1963C51.6386 48.7601 53.296 48.1495 54.866 47.4517L56 46.9284V44.2243C56 43.4393 55.7383 42.6542 55.3894 41.9564ZM7.85047 29.7446C7.85047 28.7851 8.19938 27.9128 8.8972 27.3022C9.59502 26.6044 10.4673 26.2555 11.3396 26.2555C12.2118 26.2555 13.1713 26.6044 13.7819 27.3022C14.4798 28 14.8287 28.8723 14.8287 29.7446V31.4891C14.8287 33.3209 13.7819 35.8505 11.3396 35.8505C8.8972 35.8505 7.85047 33.3209 7.85047 31.4891V29.7446ZM9.59502 47.9751C8.54829 47.8879 7.41433 47.7134 6.45483 47.4517C4.88474 47.1028 3.31464 46.4922 1.919 45.7944H1.74455V44.1371C1.74455 43.6137 1.919 43.1776 2.09346 42.7414C2.35514 42.3053 2.70405 41.9564 3.14019 41.7819L8.19938 39.2523C8.72274 38.9907 9.33333 38.2928 9.50779 37.2461C10.0312 37.5078 10.6417 37.595 11.3396 37.595C12.0374 37.595 12.5607 37.5078 13.1713 37.2461C13.3458 38.2056 13.9564 38.9907 14.4798 39.2523L15.9626 40.0374C12.5607 41.6947 9.59502 43.6137 9.59502 47.9751ZM22.9408 16.0499C24.2492 14.7414 25.9938 14.0436 27.9128 14.0436C29.7445 14.0436 31.4891 14.7414 32.8847 16.0499C34.1059 17.271 34.8037 18.8411 34.891 20.5857C34.3676 20.324 33.757 20.1495 33.1464 20.1495H32.2741C32.0125 20.1495 31.838 20.0623 31.6636 19.8879C31.4891 19.7134 31.4019 19.5389 31.4019 19.2773C31.4019 18.9284 31.2274 18.5794 30.8785 18.4922C30.5296 18.3178 30.1807 18.405 29.919 18.6667L28.4361 20.1495H22.6791C22.0685 20.1495 21.4579 20.324 20.9346 20.5857C21.0218 18.9284 21.7196 17.271 22.9408 16.0499ZM21.8069 26.2555C21.8069 25.7321 21.4579 25.3832 20.9346 25.3832V23.6386C20.9346 23.2025 21.109 22.7664 21.4579 22.4175C21.8069 22.0685 22.243 21.8941 22.6791 21.8941H28.785C29.0467 21.8941 29.2212 21.8069 29.3956 21.6324L30.1807 20.8474C30.2679 20.9346 30.3551 21.0218 30.4424 21.109C30.9657 21.6324 31.5763 21.8941 32.2741 21.8941H33.1464C33.5826 21.8941 34.0187 22.0685 34.3676 22.4175C34.7165 22.7664 34.891 23.2025 34.891 23.6386V25.3832C34.3676 25.3832 34.0187 25.7321 34.0187 26.2555C34.0187 28.9595 32.3614 33.2337 27.9128 33.2337C23.4642 33.2337 21.8069 28.9595 21.8069 26.2555ZM27.9128 41.9564C25.6449 41.9564 23.8131 40.2118 23.5514 38.0312C24.0748 37.5078 24.4237 36.7227 24.4237 35.8505V34.1059C25.3832 34.6293 26.6044 34.9782 27.9128 34.9782C29.2212 34.9782 30.4424 34.6293 31.4019 34.1059V35.8505C31.4019 36.7227 31.7508 37.5078 32.2741 38.0312C32.0125 40.2118 30.1807 41.9564 27.9128 41.9564ZM40.9969 29.7446C40.9969 28.7851 41.3458 27.9128 42.0436 27.3022C42.7414 26.6044 43.6137 26.2555 44.486 26.2555C45.3583 26.2555 46.3178 26.6044 46.9283 27.3022C47.6262 28 47.9751 28.8723 47.9751 29.7446V31.4891C47.9751 33.3209 46.9283 35.8505 44.486 35.8505C42.0436 35.8505 40.9969 33.3209 40.9969 31.4891V29.7446ZM54.081 45.7944L53.9065 45.8816C52.4237 46.5794 50.9408 47.19 49.3707 47.5389C48.324 47.8006 47.2773 47.9751 46.2305 48.0623C46.2305 43.7009 43.2648 41.7819 39.8629 40.0374L41.3458 39.2523C41.8692 38.9907 42.4798 38.2928 42.6542 37.2461C43.1776 37.5078 43.7882 37.595 44.486 37.595C45.1838 37.595 45.7072 37.5078 46.3178 37.2461C46.4922 38.2056 47.1028 38.9907 47.6262 39.2523L52.6854 41.7819C53.1215 41.9564 53.4704 42.3053 53.7321 42.7414C53.9938 43.1776 54.081 43.6137 54.081 44.1371V45.7944Z" fill="#006CFB"/>
<path d="M18.3178 50.679H16.5732V55.9126H18.3178V50.679Z" fill="#006CFB"/>
<path d="M39.2524 50.679H37.5078V55.9126H39.2524V50.679Z" fill="#006CFB"/>
<path d="M41.8695 14.0435H40.125V15.788H41.8695V14.0435Z" fill="#006CFB"/>
<path d="M45.3578 14.0435H43.6133V15.788H45.3578V14.0435Z" fill="#006CFB"/>
<path d="M48.8471 14.0435H47.1025V15.788H48.8471V14.0435Z" fill="#006CFB"/>
<path d="M34.891 9.68229H54.0811V20.1496H51.4642V21.8941V22.4175L49.458 20.4113C49.2836 20.2368 49.1091 20.1496 48.8474 20.1496H38.3801V21.8941H48.4985L51.7259 25.1215C51.9004 25.296 52.0748 25.3832 52.3365 25.3832C52.4237 25.3832 52.5982 25.3832 52.6854 25.296C53.0343 25.1215 53.2088 24.8599 53.2088 24.511V21.8941H55.8256V7.93774H33.1465V12.2991H34.891V9.68229Z" fill="#39C4FF"/>
<path d="M22.6789 5.3208H5.2334V7.06535H22.6789V5.3208Z" fill="#006CFB"/>
<path d="M22.6789 8.80981H5.2334V10.5544H22.6789V8.80981Z" fill="#006CFB"/>
<path d="M17.4452 12.2991H5.2334V14.0436H17.4452V12.2991Z" fill="#006CFB"/>
<path d="M2.61682 21.894C2.61682 22.2429 2.79128 22.5918 3.14019 22.6791C3.22741 22.7663 3.40187 22.7663 3.4891 22.7663C3.75078 22.7663 3.92523 22.6791 4.09969 22.5046L7.3271 19.2772H17.4455V17.5326H6.97819C6.71651 17.5326 6.54206 17.6199 6.3676 17.7943L4.36137 19.8006V19.2772V17.5326H1.74455V1.83171H26.1682V10.5544H27.9128V0.0871582H0V19.2772H2.61682V21.894Z" fill="#39C4FF"/>
</svg>
