<svg width="85" height="232" viewBox="0 0 85 232" fill="none" xmlns="http://www.w3.org/2000/svg">
<g opacity="0.3">
<circle cx="2.51159" cy="12.0107" r="3.11461" transform="rotate(-12.8038 2.51159 12.0107)" fill="#006CFB"/>
<circle cx="20.7342" cy="7.86914" r="3.11461" transform="rotate(-12.8038 20.7342 7.86914)" fill="#006CFB"/>
<circle cx="38.9579" cy="3.72754" r="3.11461" transform="rotate(-12.8038 38.9579 3.72754)" fill="#006CFB"/>
<circle cx="6.65319" cy="30.2336" r="3.11461" transform="rotate(-12.8038 6.65319 30.2336)" fill="#006CFB"/>
<circle cx="24.8758" cy="26.092" r="3.11461" transform="rotate(-12.8038 24.8758 26.092)" fill="#006CFB"/>
<circle cx="43.0995" cy="21.9504" r="3.11461" transform="rotate(-12.8038 43.0995 21.9504)" fill="#006CFB"/>
<circle cx="10.7948" cy="48.4568" r="3.11461" transform="rotate(-12.8038 10.7948 48.4568)" fill="#006CFB"/>
<circle cx="29.0174" cy="44.3154" r="3.11461" transform="rotate(-12.8038 29.0174 44.3154)" fill="#006CFB"/>
<circle cx="47.2411" cy="40.1738" r="3.11461" transform="rotate(-12.8038 47.2411 40.1738)" fill="#006CFB"/>
<circle cx="-3.28724" cy="70.821" r="3.11461" transform="rotate(-12.8038 -3.28724 70.821)" fill="#006CFB"/>
<circle cx="14.9364" cy="66.6794" r="3.11461" transform="rotate(-12.8038 14.9364 66.6794)" fill="#006CFB"/>
<circle cx="33.159" cy="62.5381" r="3.11461" transform="rotate(-12.8038 33.159 62.5381)" fill="#006CFB"/>
<circle cx="51.3827" cy="58.3965" r="3.11461" transform="rotate(-12.8038 51.3827 58.3965)" fill="#006CFB"/>
<circle cx="0.854361" cy="89.0437" r="3.11461" transform="rotate(-12.8038 0.854361 89.0437)" fill="#006CFB"/>
<circle cx="19.077" cy="84.9026" r="3.11461" transform="rotate(-12.8038 19.077 84.9026)" fill="#006CFB"/>
<circle cx="37.3007" cy="80.761" r="3.11461" transform="rotate(-12.8038 37.3007 80.761)" fill="#006CFB"/>
<circle cx="55.5233" cy="76.6194" r="3.11461" transform="rotate(-12.8038 55.5233 76.6194)" fill="#006CFB"/>
<circle cx="4.99596" cy="107.267" r="3.11461" transform="rotate(-12.8038 4.99596 107.267)" fill="#006CFB"/>
<circle cx="23.2186" cy="103.126" r="3.11461" transform="rotate(-12.8038 23.2186 103.126)" fill="#006CFB"/>
<circle cx="41.4413" cy="98.9844" r="3.11461" transform="rotate(-12.8038 41.4413 98.9844)" fill="#006CFB"/>
<circle cx="59.6649" cy="94.8425" r="3.11461" transform="rotate(-12.8038 59.6649 94.8425)" fill="#006CFB"/>
<circle cx="9.13659" cy="125.49" r="3.11461" transform="rotate(-12.8038 9.13659 125.49)" fill="#006CFB"/>
<circle cx="27.3602" cy="121.349" r="3.11461" transform="rotate(-12.8038 27.3602 121.349)" fill="#006CFB"/>
<circle cx="45.5829" cy="117.207" r="3.11461" transform="rotate(-12.8038 45.5829 117.207)" fill="#006CFB"/>
<circle cx="63.8065" cy="113.066" r="3.11461" transform="rotate(-12.8038 63.8065 113.066)" fill="#006CFB"/>
<circle cx="13.2782" cy="143.713" r="3.11461" transform="rotate(-12.8038 13.2782 143.713)" fill="#006CFB"/>
<circle cx="31.5018" cy="139.571" r="3.11461" transform="rotate(-12.8038 31.5018 139.571)" fill="#006CFB"/>
<circle cx="49.7245" cy="135.43" r="3.11461" transform="rotate(-12.8038 49.7245 135.43)" fill="#006CFB"/>
<circle cx="67.9481" cy="131.288" r="3.11461" transform="rotate(-12.8038 67.9481 131.288)" fill="#006CFB"/>
<circle cx="-0.802865" cy="166.078" r="3.11461" transform="rotate(-12.8038 -0.802865 166.078)" fill="#006CFB"/>
<circle cx="17.4198" cy="161.936" r="3.11461" transform="rotate(-12.8038 17.4198 161.936)" fill="#006CFB"/>
<circle cx="35.6434" cy="157.795" r="3.11461" transform="rotate(-12.8038 35.6434 157.795)" fill="#006CFB"/>
<circle cx="53.8661" cy="153.653" r="3.11461" transform="rotate(-12.8038 53.8661 153.653)" fill="#006CFB"/>
<circle cx="72.0897" cy="149.512" r="3.11461" transform="rotate(-12.8038 72.0897 149.512)" fill="#006CFB"/>
<circle cx="3.33874" cy="184.3" r="3.11461" transform="rotate(-12.8038 3.33874 184.3)" fill="#006CFB"/>
<circle cx="21.5614" cy="180.159" r="3.11461" transform="rotate(-12.8038 21.5614 180.159)" fill="#006CFB"/>
<circle cx="39.785" cy="176.018" r="3.11461" transform="rotate(-12.8038 39.785 176.018)" fill="#006CFB"/>
<circle cx="58.0077" cy="171.876" r="3.11461" transform="rotate(-12.8038 58.0077 171.876)" fill="#006CFB"/>
<circle cx="76.2313" cy="167.734" r="3.11461" transform="rotate(-12.8038 76.2313 167.734)" fill="#006CFB"/>
<circle cx="7.48034" cy="202.524" r="3.11461" transform="rotate(-12.8038 7.48034 202.524)" fill="#006CFB"/>
<circle cx="25.703" cy="198.382" r="3.11461" transform="rotate(-12.8038 25.703 198.382)" fill="#006CFB"/>
<circle cx="43.9266" cy="194.241" r="3.11461" transform="rotate(-12.8038 43.9266 194.241)" fill="#006CFB"/>
<circle cx="62.1493" cy="190.099" r="3.11461" transform="rotate(-12.8038 62.1493 190.099)" fill="#006CFB"/>
<circle cx="80.3729" cy="185.958" r="3.11461" transform="rotate(-12.8038 80.3729 185.958)" fill="#006CFB"/>
</g>
</svg>
