<svg width="48" height="62" viewBox="0 0 48 62" fill="none" xmlns="http://www.w3.org/2000/svg">
<path d="M25.0455 60.7955L25.0407 61.7954L25.0411 61.7954L25.0455 60.7955ZM46.8068 40.5114L45.8068 40.5088L45.8068 40.5138L46.8068 40.5114ZM14.25 29.9432V30.9432H14.8635L15.1415 30.3963L14.25 29.9432ZM13.8523 29.9432L12.8523 29.9382L12.8472 30.9432H13.8523V29.9432ZM34.0795 18.0682L33.1052 18.293L33.284 19.0682H34.0795V18.0682ZM46.2102 18.0682V19.0682H47.3393L47.2029 17.9474L46.2102 18.0682ZM1.80682 32.2159L0.806821 32.213L0.806819 32.2146L1.80682 32.2159ZM15.1023 40.8807L14.1023 40.8757V40.8807H15.1023ZM34.875 40.8523L33.875 40.8473L33.875 40.8572L34.875 40.8523ZM25.0411 61.7954C31.7403 61.8248 37.4453 59.6405 41.4799 55.8456C45.5181 52.0473 47.8216 46.6918 47.8068 40.509L45.8068 40.5138C45.8204 46.1775 43.7205 50.9924 40.1096 54.3888C36.4951 57.7885 31.3051 59.8229 25.0498 59.7955L25.0411 61.7954ZM47.8068 40.514C47.8366 29.0906 39.8132 20.733 28.9091 20.733V22.733C38.63 22.733 45.8339 30.1139 45.8068 40.5088L47.8068 40.514ZM28.9091 20.733C22.2109 20.733 16.1724 23.9541 13.3585 29.4901L15.1415 30.3963C17.5549 25.6482 22.8232 22.733 28.9091 22.733V20.733ZM14.25 28.9432H13.8523V30.9432H14.25V28.9432ZM14.8523 29.9482C14.8802 24.3721 15.8758 19.9846 17.6912 17.025C19.4722 14.1215 22.0515 12.5625 25.4716 12.5625V10.5625C21.3065 10.5625 18.1045 12.5263 15.9864 15.9793C13.9026 19.3762 12.8812 24.179 12.8523 29.9382L14.8523 29.9482ZM25.4716 12.5625C27.5175 12.5625 29.2145 13.1211 30.4929 14.0891C31.7677 15.0544 32.6845 16.4702 33.1052 18.293L35.0539 17.8433C34.5371 15.6036 33.38 13.7666 31.7003 12.4947C30.0241 11.2255 27.8859 10.5625 25.4716 10.5625V12.5625ZM34.0795 19.0682H46.2102V17.0682H34.0795V19.0682ZM47.2029 17.9474C45.9733 7.84053 37.5645 0.0227242 25.4716 0.0227242V2.02272C36.6173 2.02272 44.1176 9.1481 45.2175 18.189L47.2029 17.9474ZM25.4716 0.0227242C17.9843 0.0227242 11.7848 3.07057 7.47676 8.68072C3.19105 14.2618 0.835648 22.2972 0.806823 32.213L2.80681 32.2188C2.83481 22.5892 5.12429 15.028 9.06302 9.89882C12.9794 4.79874 18.5839 2.02272 25.4716 2.02272V0.0227242ZM0.806819 32.2146C0.792385 43.0399 3.65962 50.453 8.21084 55.1689C12.7623 59.8851 18.8652 61.7661 25.0407 61.7954L25.0502 59.7955C19.2655 59.768 13.7348 58.0127 9.64996 53.78C5.56481 49.547 2.79284 42.6987 2.80682 32.2172L0.806819 32.2146ZM24.9886 50.1364C19.9066 50.1364 16.1023 46.059 16.1023 40.8807H14.1023C14.1023 47.066 18.707 52.1364 24.9886 52.1364V50.1364ZM16.1023 40.8857C16.1281 35.7389 20.0135 31.625 25.0739 31.625V29.625C18.8274 29.625 14.1332 34.7157 14.1023 40.8757L16.1023 40.8857ZM25.0739 31.625C30.1579 31.625 33.9009 35.5899 33.875 40.8473L35.875 40.8572C35.9059 34.5805 31.3535 29.625 25.0739 29.625V31.625ZM33.875 40.8572C33.9009 46.1635 30.0803 50.1364 24.9886 50.1364V52.1364C31.2606 52.1364 35.9059 47.1888 35.875 40.8474L33.875 40.8572Z" fill="black" fill-opacity="0.1"/>
</svg>
