<svg width="47" height="62" viewBox="0 0 47 62" fill="none" xmlns="http://www.w3.org/2000/svg">
<path d="M45.608 43.6648L44.6079 43.6609L44.608 43.6676L45.608 43.6648ZM32.483 30.1705H31.483V31.0521L32.3577 31.1626L32.483 30.1705ZM32.483 29.7159L32.3067 28.7316L31.483 28.879V29.7159H32.483ZM43.4489 17.4148L42.4488 17.4117L42.4489 17.4191L43.4489 17.4148ZM2.3125 18.0682L1.31264 18.0512L1.29541 19.0682H2.3125V18.0682ZM14.1023 18.0682V19.0682H15.0707L15.1018 18.1002L14.1023 18.0682ZM31.6023 18.1534L30.6022 18.1469L30.6023 18.1596L31.6023 18.1534ZM16.7159 25.8239V24.8239H15.7159V25.8239H16.7159ZM16.7159 34.858H15.7159V35.858H16.7159V34.858ZM32.8239 42.8409L31.8238 42.8348L31.8239 42.847L32.8239 42.8409ZM13.5341 43.5511L14.5327 43.4979L14.4822 42.5511H13.5341V43.5511ZM1.14773 43.5511V42.5511H0.127983L0.147919 43.5707L1.14773 43.5511ZM23.2216 61.7955C36.5762 61.7955 46.6386 54.3922 46.608 43.6619L44.608 43.6676C44.6341 52.8237 36.0033 59.7955 23.2216 59.7955V61.7955ZM46.6079 43.6687C46.623 39.8249 45.4045 36.4616 42.9879 33.9172C40.5779 31.3797 37.0564 29.7399 32.6082 29.1783L32.3577 31.1626C36.4606 31.6806 39.5159 33.1657 41.5377 35.2945C43.5528 37.4162 44.6213 40.2604 44.608 43.6609L46.6079 43.6687ZM33.483 30.1705V29.7159H31.483V30.1705H33.483ZM32.6592 30.7003C39.5622 29.4643 44.4797 24.5084 44.4489 17.4104L42.4489 17.4191C42.4748 23.3894 38.4151 27.6379 32.3067 28.7316L32.6592 30.7003ZM44.4489 17.4179C44.4795 7.5293 35.8174 0.0227242 23.392 0.0227242V2.02272C35.0576 2.02272 42.4751 8.94797 42.4489 17.4117L44.4489 17.4179ZM23.392 0.0227242C11.1157 0.0227242 1.49542 7.26764 1.31264 18.0512L3.31236 18.0851C3.47049 8.75508 11.8048 2.02272 23.392 2.02272V0.0227242ZM2.3125 19.0682H14.1023V17.0682H2.3125V19.0682ZM15.1018 18.1002C15.22 14.4104 18.6182 11.767 23.3352 11.767V9.76704C17.9955 9.76704 13.2686 12.8623 13.1028 18.0361L15.1018 18.1002ZM23.3352 11.767C25.6214 11.767 27.4427 12.4577 28.676 13.564C29.8998 14.6618 30.6147 16.2293 30.6023 18.1469L32.6023 18.1599C32.6182 15.7025 31.6854 13.5768 30.0115 12.0752C28.3471 10.5821 26.0207 9.76704 23.3352 9.76704V11.767ZM30.6023 18.1596C30.6146 20.135 29.7912 21.7663 28.3538 22.9254C26.8991 24.0985 24.7637 24.8239 22.142 24.8239V26.8239C25.117 26.8239 27.7259 26.001 29.6093 24.4823C31.5099 22.9496 32.6184 20.7457 32.6023 18.1472L30.6023 18.1596ZM22.142 24.8239H16.7159V26.8239H22.142V24.8239ZM15.7159 25.8239V34.858H17.7159V25.8239H15.7159ZM16.7159 35.858H22.142V33.858H16.7159V35.858ZM22.142 35.858C25.2816 35.858 27.7274 36.6437 29.3591 37.887C30.9686 39.1134 31.8361 40.8168 31.8239 42.8348L33.8238 42.847C33.84 40.1775 32.6621 37.8894 30.5713 36.2962C28.5027 34.7199 25.5934 33.858 22.142 33.858V35.858ZM31.8239 42.847C31.8362 44.8488 30.993 46.5176 29.5269 47.7071C28.0451 48.9093 25.881 49.6534 23.25 49.6534V51.6534C26.244 51.6534 28.881 50.8066 30.787 49.2602C32.7087 47.7011 33.84 45.4637 33.8238 42.8348L31.8239 42.847ZM23.25 49.6534C18.0933 49.6534 14.7195 47.0012 14.5327 43.4979L12.5355 43.6044C12.8032 48.6238 17.5544 51.6534 23.25 51.6534V49.6534ZM13.5341 42.5511H1.14773V44.5511H13.5341V42.5511ZM0.147919 43.5707C0.361309 54.4841 10.1156 61.7955 23.2216 61.7955V59.7955C10.7594 59.7955 2.33187 52.9591 2.14754 43.5316L0.147919 43.5707Z" fill="black" fill-opacity="0.1"/>
</svg>
