<svg width="45" height="61" viewBox="0 0 45 61" fill="none" xmlns="http://www.w3.org/2000/svg">
<path d="M1.71591 60H0.715909V61H1.71591V60ZM43.1932 60V61H44.1932V60H43.1932ZM43.1932 49.9432H44.1932V48.9432H43.1932V49.9432ZM18.7614 49.9432H17.7614V50.9432H18.7614V49.9432ZM18.7614 49.5455L18.0615 48.8312L17.7614 49.1253V49.5455H18.7614ZM27.2557 41.2216L26.5818 40.4828L26.5686 40.4948L26.5558 40.5074L27.2557 41.2216ZM1.14773 19.7443L0.147731 19.7468L0.150212 20.7443H1.14773V19.7443ZM12.8239 19.7443V20.7443H13.829L13.8239 19.7392L12.8239 19.7443ZM22.4261 31.9602L23.1055 32.694L23.1126 32.6874L23.1196 32.6808L22.4261 31.9602ZM1.71591 51.1364L1.0365 50.4026L0.715909 50.6994V51.1364H1.71591ZM1.71591 61H43.1932V59H1.71591V61ZM44.1932 60V49.9432H42.1932V60H44.1932ZM43.1932 48.9432H18.7614V50.9432H43.1932V48.9432ZM19.7614 49.9432V49.5455H17.7614V49.9432H19.7614ZM19.4613 50.2597L27.9556 41.9358L26.5558 40.5074L18.0615 48.8312L19.4613 50.2597ZM27.9296 41.9604C39.8975 31.0443 43.4261 25.3274 43.4261 18.2386H41.4261C41.4261 24.3885 38.5343 29.5807 26.5818 40.4828L27.9296 41.9604ZM43.4261 18.2386C43.4261 12.9034 41.238 8.31836 37.3915 5.0834C33.5579 1.85924 28.1373 0.0227242 21.7159 0.0227242V2.02272C27.7661 2.02272 32.7006 3.75155 36.1042 6.61404C39.495 9.46572 41.4261 13.4887 41.4261 18.2386H43.4261ZM21.7159 0.0227242C15.412 0.0227242 10.0085 1.90818 6.17168 5.35716C2.32385 8.81605 0.132879 13.7766 0.147731 19.7468L2.14772 19.7418C2.13417 14.2916 4.11933 9.89133 7.50872 6.84454C10.9091 3.78784 15.8039 2.02272 21.7159 2.02272V0.0227242ZM1.14773 20.7443H12.8239V18.7443H1.14773V20.7443ZM13.8239 19.7392C13.8107 17.1709 14.6126 15.1998 15.9332 13.8731C17.2546 12.5456 19.1912 11.767 21.6307 11.767V9.76704C18.7577 9.76704 16.2767 10.6931 14.5157 12.4621C12.7539 14.2321 11.8086 16.7496 11.8239 19.7494L13.8239 19.7392ZM21.6307 11.767C23.983 11.767 25.9611 12.4974 27.3388 13.7398C28.7056 14.9723 29.5511 16.7696 29.5511 19.0625H31.5511C31.5511 16.2417 30.4933 13.8913 28.6782 12.2545C26.8741 10.6276 24.392 9.76704 21.6307 9.76704V11.767ZM29.5511 19.0625C29.5511 23.2041 27.0716 26.1017 21.7327 31.2397L23.1196 32.6808C28.3489 27.6483 31.5511 24.1822 31.5511 19.0625H29.5511ZM21.7467 31.2265L1.0365 50.4026L2.39532 51.8701L23.1055 32.694L21.7467 31.2265ZM0.715909 51.1364V60H2.71591V51.1364H0.715909Z" fill="black" fill-opacity="0.1"/>
</svg>
