<svg width="22" height="29" viewBox="0 0 22 29" fill="none" xmlns="http://www.w3.org/2000/svg">
<path fill-rule="evenodd" clip-rule="evenodd" d="M6.77983 2.07301C3.57597 4.67001 3.27422 10.022 6.16371 13C9.05319 15.978 14.2461 15.667 16.7659 12.365C19.4342 8.87001 19.3061 5.45401 16.3953 2.45501C13.4854 -0.544988 10.171 -0.676988 6.77983 2.07301ZM14.8962 4.00001C17.2317 6.40701 17.3229 7.84001 15.326 10.777C13.5378 13.409 10.4087 13.65 7.93835 11.345C5.52526 9.09501 5.70476 5.44501 8.32063 3.55701C11.1703 1.49901 12.5608 1.59301 14.8962 4.00001ZM8.47976 18.179C3.74286 19.445 -1.39767 26.836 1.79745 27.79C2.33111 27.949 2.90648 27.17 3.07531 26.06C3.54686 22.962 7.88304 20 11.9475 20C15.7151 20 19.2314 22.789 19.8931 26.303C20.3531 28.745 22.2432 28.014 21.9036 25.526C21.5067 22.623 17.0561 18.26 14.0239 17.802C12.5743 17.582 10.0798 17.752 8.47976 18.179ZM7.08353 23.097C6.0628 25.062 6.19767 25.61 8.08292 27.183C10.8201 29.467 12.1804 29.467 14.9176 27.183C16.8028 25.61 16.9377 25.062 15.9169 23.097C14.6653 20.687 13.4738 21.037 13.4534 23.821C13.4456 24.829 12.6655 25.5 11.5002 25.5C10.3349 25.5 9.55483 24.829 9.54707 23.821C9.52669 21.037 8.33519 20.687 7.08353 23.097Z" fill="#006CFB"/>
</svg>
