<svg width="56" height="56" viewBox="0 0 56 56" fill="none" xmlns="http://www.w3.org/2000/svg">
<path d="M38.1589 12.4002V15.1584C38.1589 15.6635 38.4604 16.1147 38.9269 16.3079C39.4002 16.5039 39.931 16.3902 40.2831 16.0382L43.7461 12.5751H52.4896C54.2682 12.5751 55.715 11.1281 55.715 9.3497V3.22536C55.715 1.44692 54.2682 0 52.4896 0H39.2068C37.4283 0 35.9814 1.44692 35.9814 3.22536V9.34959C35.9813 10.7326 36.8766 11.9585 38.1589 12.4002ZM37.6213 3.22536C37.6213 2.35113 38.3326 1.63986 39.2068 1.63986H52.4897C53.364 1.63986 54.0752 2.35113 54.0752 3.22536V9.34959C54.0752 10.2238 53.364 10.9351 52.4897 10.9351H43.5518C43.2395 10.9351 42.9457 11.0567 42.7241 11.2778L39.7989 14.2031V12.0438C39.7989 11.494 39.4112 11.0132 38.877 10.9005C38.1495 10.7471 37.6214 10.0948 37.6214 9.3497V3.22536H37.6213Z" fill="#39C4FF"/>
<path d="M53.8111 48.127H52.2516V22.3361C52.2516 20.6365 50.8689 19.2537 49.1692 19.2537H33.8278C33.3749 19.2537 33.0079 19.6208 33.0079 20.0737C33.0079 20.5266 33.3749 20.8937 33.8278 20.8937H49.1691C49.9645 20.8937 50.6116 21.5408 50.6116 22.3363V48.1271H47.8785V25.9488C47.8785 24.6686 46.8369 23.627 45.5567 23.627H28.8068C29.0474 23.001 29.2135 22.3376 29.2896 21.646C30.1607 21.454 30.8144 20.6759 30.8144 19.7479C30.8144 18.9979 30.8144 13.3346 30.8144 12.6596C30.8144 11.0393 29.5033 9.71952 27.8861 9.70574C27.8338 8.12253 26.5295 6.85083 24.9338 6.85083H17.5799C14.4196 6.85083 11.8485 9.42191 11.8485 12.5822V19.7479C11.8485 20.6759 12.5022 21.454 13.3734 21.646C13.4495 22.3377 13.6157 23.001 13.8563 23.627H10.4444C9.16421 23.627 8.12263 24.6686 8.12263 25.9488V32.6468C7.04835 33.0501 6.11505 33.7184 5.38946 34.5621V22.3361C5.38946 21.5408 6.03652 20.8936 6.83201 20.8936H8.87666C9.32959 20.8936 9.69665 20.5265 9.69665 20.0736C9.69665 19.6207 9.32959 19.2536 8.87666 19.2536H6.83201C5.13232 19.2536 3.7496 20.6363 3.7496 22.336V38.9501V48.1269H2.19002C0.989414 48.1269 0.0126953 49.1037 0.0126953 50.3042C0.0126953 53.445 2.5677 56 5.70829 56H50.2928C53.4334 56 55.9884 53.445 55.9884 50.3044C55.9884 49.1038 55.0116 48.127 53.8111 48.127ZM45.5567 25.2668C45.9327 25.2668 46.2386 25.5728 46.2386 25.9488V48.1271H38.9165V45.1228C38.9165 44.6699 38.5494 44.3028 38.0965 44.3028C37.6436 44.3028 37.2765 44.6699 37.2765 45.1228V48.1271H33.3399V45.5252C33.3399 45.0723 32.9729 44.7052 32.5199 44.7052C32.067 44.7052 31.6999 45.0723 31.6999 45.5252V48.1271H25.0303L23.2624 38.1586L23.9408 36.9431C24.0717 36.9717 24.2046 36.9878 24.3378 36.9878C24.806 36.9878 25.2739 36.8112 25.639 36.4604L28.6829 33.4962C28.901 33.2839 29.0529 33.0256 29.1395 32.7495L33.6194 34.0646C35.7727 34.6968 37.2766 36.7058 37.2766 38.95V41.2895C37.2766 41.7424 37.6437 42.1095 38.0966 42.1095C38.5496 42.1095 38.9166 41.7424 38.9166 41.2895V38.95C38.9166 35.983 36.9283 33.327 34.0814 32.4911L28.6703 30.9025C28.5213 30.7602 28.3488 30.6433 28.1594 30.559L27.0394 30.06C26.7094 29.9129 26.3559 29.853 26.0088 29.8755V27.2541C26.7631 26.7094 27.4197 26.037 27.9461 25.267H45.5567V25.2668ZM15.2079 32.0468L16.3065 31.5535C16.487 31.4726 16.6974 31.4958 16.8559 31.6142L20.0921 34.0323L18.5025 35.36C18.4124 35.4355 18.2813 35.4312 18.1963 35.3507L15.1596 32.3094V32.3093C15.0779 32.2277 15.1078 32.0917 15.2079 32.0468ZM24.3688 28.1677V30.6717L21.4052 32.9665L18.2944 30.6421V28.1678C20.215 28.959 22.3939 28.9813 24.3688 28.1677ZM27.4919 32.057C27.5927 32.1016 27.6229 32.2394 27.5389 32.3213L24.499 35.2814C24.4129 35.3642 24.2798 35.3681 24.1892 35.2905C24.1891 35.2905 24.1891 35.2905 24.1891 35.2905L22.7126 34.028L25.8166 31.6246C25.9753 31.5014 26.1881 31.476 26.3717 31.5578L27.4919 32.057ZM20.7331 37.1942L20.1218 36.1443L21.4078 35.0701L22.5588 36.0544L21.9228 37.1942H20.7331ZM20.9492 38.834H21.7167L23.3648 48.127H19.302L20.9492 38.834ZM35.3055 49.767C34.9744 50.629 34.14 51.2436 33.1628 51.2436H22.8382C21.861 51.2436 21.0266 50.629 20.6955 49.767H35.3055ZM13.4885 12.5822C13.4885 10.3261 15.3239 8.49069 17.58 8.49069H24.9339C25.6585 8.49069 26.2479 9.08011 26.2479 9.80472C26.2479 10.6542 26.9392 11.3455 27.7887 11.3455H27.8606C28.5852 11.3455 29.1746 11.9349 29.1746 12.6595V16.4996H28.52C28.1534 16.4996 27.8551 16.2013 27.8551 15.8347V15.022C27.8551 13.3933 26.2651 12.2441 24.7183 12.7551C22.5351 13.4767 20.1305 13.4769 17.9472 12.7557C17.9447 12.7548 17.9413 12.7537 17.9381 12.7527C16.3954 12.2479 14.8081 13.3932 14.8081 15.0218V15.8348C14.8081 16.2014 14.5098 16.4997 14.1431 16.4997H13.4885V12.5822ZM13.4885 19.7479V18.1395H14.1431C15.414 18.1395 16.448 17.1056 16.448 15.8347V15.0217C16.448 14.5113 16.9469 14.1517 17.43 14.3118C17.4324 14.3127 17.4356 14.3137 17.4387 14.3146C19.9522 15.1435 22.7203 15.1428 25.2329 14.3122C25.7159 14.1522 26.2151 14.511 26.2151 15.022V15.8347C26.2151 17.1056 27.249 18.1395 28.52 18.1395H29.1746V19.7479C29.1746 19.9153 29.0384 20.0514 28.8712 20.0514C28.246 20.0514 27.725 20.542 27.6853 21.1685C27.4746 24.5111 24.6838 27.1295 21.3316 27.1295C17.9795 27.1295 15.1887 24.5111 14.9778 21.1686C14.9384 20.5421 14.4176 20.0514 13.7921 20.0514C13.6246 20.0514 13.4885 19.9152 13.4885 19.7479ZM10.4444 25.2668H14.7172C15.2436 26.0368 15.9002 26.7093 16.6543 27.254V29.8703C16.31 29.8505 15.9602 29.9115 15.6347 30.0576L14.5362 30.5508C14.3481 30.6352 14.1769 30.7518 14.0288 30.8935L9.76249 32.1458V25.9489C9.7626 25.5728 10.0684 25.2668 10.4444 25.2668ZM5.38946 38.9502C5.38946 36.7058 6.89348 34.6969 9.04707 34.0648L9.18051 34.0256C9.18357 34.0247 9.18652 34.0238 9.18959 34.023L13.5566 32.7412C13.6417 33.0073 13.7888 33.2575 13.9991 33.4682V33.4681L17.0415 36.5151C17.0442 36.5178 17.047 36.5205 17.0497 36.5232C17.4127 36.8766 17.8829 37.0553 18.3547 37.0553C18.4809 37.0553 18.607 37.0408 18.7314 37.0153L19.402 38.1671L17.6366 48.1271H10.9632V45.5252C10.9632 45.0723 10.5961 44.7052 10.1432 44.7052C9.6903 44.7052 9.32324 45.0723 9.32324 45.5252V48.1271H5.38946V38.9502ZM50.2928 54.3602H5.70829C3.47201 54.3602 1.65255 52.5408 1.65255 50.3044C1.65255 50.008 1.89362 49.767 2.19002 49.767H18.9882C19.3665 51.5453 20.9487 52.8835 22.8382 52.8835H33.1628C35.0523 52.8835 36.6345 51.5453 37.0128 49.767H53.811C54.1074 49.767 54.3484 50.008 54.3484 50.3044C54.3486 52.5407 52.5291 54.3602 50.2928 54.3602Z" fill="#006CFB"/>
</svg>
