<svg width="27" height="29" viewBox="0 0 27 29" fill="none" xmlns="http://www.w3.org/2000/svg">
<path d="M21.3711 10.8571C20.0191 10.8832 18.9192 12.0053 18.9192 13.3583V15.9189C18.9192 16.6856 18.2954 17.3094 17.5286 17.3094H17.3558C17.6354 16.7335 17.7868 16.0952 17.7868 15.4399C17.7868 13.0755 15.8636 11.1518 13.4995 11.1518C11.1355 11.1518 9.21218 13.0755 9.21218 15.4399C9.21218 16.0952 9.3637 16.7335 9.64317 17.3094H9.47037C8.70367 17.3094 8.07984 16.6856 8.07984 15.9189V13.3583C8.07984 12.0053 6.97992 10.8832 5.62885 10.8571C4.20246 10.8281 3.07617 12.0157 3.07617 13.3953V15.9189C3.07617 17.7444 3.6645 19.2454 4.82481 20.3801C5.61125 21.1492 6.63242 21.72 7.85987 22.0767C8.13608 22.157 8.31569 22.4248 8.28707 22.7132C8.2812 22.7725 8.28778 22.4189 8.21116 28.0991C8.20452 28.5935 8.60375 28.9999 9.1 28.9999H17.899C18.3956 28.9999 18.7945 28.5932 18.7879 28.0991C18.7112 22.4143 18.7178 22.7661 18.7119 22.7068C18.6833 22.4194 18.8607 22.1525 19.1341 22.0719C20.3611 21.7097 21.3823 21.1366 22.1692 20.3683C23.3328 19.2322 23.9228 17.7352 23.9228 15.9189V13.3953C23.9229 12.0129 22.7947 10.8288 21.3711 10.8571ZM22.1451 15.9189C22.1451 18.182 20.9628 19.6785 18.6312 20.3667C17.5534 20.6844 16.8475 21.7204 16.9391 22.8407L16.9982 27.2222H10.001L10.0601 22.8468C10.1519 21.7225 9.4411 20.6852 8.35623 20.3696C6.03235 19.6943 4.85403 18.1969 4.85403 15.9189V13.3953C4.85403 12.9855 5.18938 12.6245 5.59359 12.6346C5.98429 12.6421 6.3021 12.9668 6.3021 13.3584V15.9189C6.3021 17.6659 7.72339 19.0872 9.47043 19.0872H11.5158C12.3755 19.0872 12.7343 17.98 12.035 17.4769C11.3807 17.006 10.99 16.2445 10.99 15.4399C10.99 14.0558 12.1158 12.9297 13.4996 12.9297C14.8833 12.9297 16.0091 14.0558 16.0091 15.4399C16.0091 16.2445 15.6185 17.006 14.9641 17.4769C14.2663 17.979 14.6218 19.0872 15.4834 19.0872H17.5287C19.2757 19.0872 20.697 17.666 20.697 15.9189V13.3584C20.697 12.9668 21.0148 12.6421 21.4065 12.6346C21.8127 12.6266 22.1452 12.9867 22.1452 13.3953V15.9189H22.1451Z" fill="#006CFB"/>
<path d="M10.3152 6.00189L10.1977 8.27231C10.1641 8.91896 10.8127 9.3832 11.4137 9.14438L13.4994 8.31534L15.5851 9.14438C16.1866 9.38326 16.8347 8.91842 16.8012 8.27231L16.6836 6.00189L18.0918 4.29141C18.4992 3.79659 18.2637 3.04411 17.6461 2.87066L15.4674 2.2585L14.2415 0.399226C13.8902 -0.133638 13.1078 -0.132512 12.7572 0.399226L11.5314 2.2585L9.35272 2.87066C8.73565 3.04393 8.4992 3.79612 8.90697 4.29141L10.3152 6.00189ZM12.3316 3.88033C12.5375 3.82249 12.7155 3.69236 12.8333 3.51381L13.4994 2.50343L14.1655 3.51381C14.2831 3.69236 14.4613 3.82249 14.6671 3.88033L15.8531 4.21355L15.0917 5.13824C14.9506 5.30962 14.8788 5.52752 14.8903 5.74927L14.9541 6.98039L13.8277 6.53262C13.6168 6.44883 13.3819 6.44883 13.171 6.53262L12.0447 6.98039L12.1084 5.74927C12.1199 5.52757 12.048 5.30962 11.907 5.13824L11.1457 4.21355L12.3316 3.88033Z" fill="#006CFB"/>
<path d="M5.8014 9.14432C6.40235 9.38296 7.05101 8.91948 7.01747 8.27225L6.9316 6.61451L7.9584 5.36727C8.36575 4.87239 8.13025 4.11997 7.51259 3.94652L5.91926 3.49881L5.02349 2.13998C4.6722 1.60711 3.88979 1.60824 3.53921 2.13998L2.64344 3.49881L1.05006 3.94652C0.432868 4.11979 0.19648 4.87204 0.604248 5.36727L1.6311 6.61457L1.54523 8.27225C1.51169 8.91877 2.16006 9.38313 2.76131 9.14432L4.28138 8.5401L5.8014 9.14432ZM3.39225 6.98038L3.42425 6.36201C3.43574 6.14032 3.36386 5.92236 3.22282 5.75098L2.84285 5.28946L3.44345 5.12069C3.64932 5.06285 3.82739 4.93272 3.94514 4.75417L4.28132 4.2443L4.61744 4.75417C4.73513 4.93272 4.91327 5.06285 5.1192 5.12069L5.71974 5.28946L5.33982 5.75098C5.19872 5.92242 5.12684 6.14032 5.1384 6.36201L5.1704 6.98038L4.60974 6.75751C4.39889 6.67371 4.16393 6.67371 3.95302 6.75751L3.39225 6.98038Z" fill="#006CFB"/>
<path d="M25.9491 3.94658L24.3557 3.49887L23.46 2.14004C23.1087 1.60718 22.3262 1.6083 21.9757 2.14004L21.0799 3.49887L19.4866 3.94658C18.8694 4.11985 18.633 4.87192 19.0408 5.36733L20.0676 6.61458L19.9817 8.27231C19.9481 8.91884 20.5965 9.3832 21.1978 9.14438L22.7178 8.54016L24.2379 9.14438C24.8389 9.38302 25.4875 8.91955 25.454 8.27231L25.3681 6.61463L26.395 5.36733C26.8024 4.87239 26.5667 4.11997 25.9491 3.94658ZM23.7763 5.75098C23.6352 5.92236 23.5633 6.14026 23.5749 6.36201L23.6069 6.98039L23.0462 6.75751C22.8354 6.67372 22.6004 6.67372 22.3895 6.75751L21.8288 6.98039L21.8608 6.36201C21.8723 6.14038 21.8004 5.92242 21.6594 5.75098L21.2795 5.28947L21.88 5.12069C22.086 5.06286 22.264 4.93272 22.3818 4.75417L22.7179 4.2443L23.0541 4.75417C23.1718 4.93272 23.3499 5.06286 23.5558 5.12069L24.1564 5.28947L23.7763 5.75098Z" fill="#006CFB"/>
</svg>
