<svg width="56" height="50" viewBox="0 0 56 50" fill="none" xmlns="http://www.w3.org/2000/svg">
<path d="M34.9065 4.38277C35.3521 4.38277 35.7133 4.02152 35.7133 3.5759C35.7133 3.13029 35.3521 2.76904 34.9065 2.76904C34.4609 2.76904 34.0996 3.13029 34.0996 3.5759C34.0996 4.02152 34.4609 4.38277 34.9065 4.38277Z" fill="#006CFB"/>
<path d="M38.1389 4.38277C38.5845 4.38277 38.9458 4.02152 38.9458 3.5759C38.9458 3.13029 38.5845 2.76904 38.1389 2.76904C37.6933 2.76904 37.332 3.13029 37.332 3.5759C37.332 4.02152 37.6933 4.38277 38.1389 4.38277Z" fill="#006CFB"/>
<path d="M16.8994 30.7581H39.101C39.5541 30.7581 39.9213 30.3908 39.9213 29.9377C39.9213 29.4847 39.5541 29.1174 39.101 29.1174H16.8994C16.4463 29.1174 16.0791 29.4847 16.0791 29.9377C16.0791 30.3908 16.4463 30.7581 16.8994 30.7581Z" fill="#006CFB"/>
<path d="M16.8994 34.812H39.101C39.5541 34.812 39.9213 34.4447 39.9213 33.9917C39.9213 33.5387 39.5541 33.1714 39.101 33.1714H16.8994C16.4463 33.1714 16.0791 33.5387 16.0791 33.9917C16.0791 34.4447 16.4463 34.812 16.8994 34.812Z" fill="#006CFB"/>
<path d="M16.8994 38.866H39.101C39.5541 38.866 39.9213 38.4987 39.9213 38.0457C39.9213 37.5926 39.5541 37.2253 39.101 37.2253H16.8994C16.4463 37.2253 16.0791 37.5926 16.0791 38.0457C16.0791 38.4987 16.4463 38.866 16.8994 38.866Z" fill="#39C4FF"/>
<path d="M33.3623 20.8284H39.1011C39.5542 20.8284 39.9214 20.4611 39.9214 20.0081C39.9214 19.555 39.5542 19.1877 39.1011 19.1877H33.3623C32.9092 19.1877 32.542 19.555 32.542 20.0081C32.542 20.4611 32.9093 20.8284 33.3623 20.8284Z" fill="#006CFB"/>
<path d="M33.3623 16.6047H39.1011C39.5542 16.6047 39.9214 16.2375 39.9214 15.7844C39.9214 15.3314 39.5542 14.9641 39.1011 14.9641H33.3623C32.9092 14.9641 32.542 15.3314 32.542 15.7844C32.542 16.2375 32.9093 16.6047 33.3623 16.6047Z" fill="#006CFB"/>
<path d="M18.6148 25.8579H27.3667C28.7648 25.8579 29.9024 24.7204 29.9024 23.3222V12.4701C29.9024 11.0718 28.7649 9.93433 27.3667 9.93433H18.6148C17.2167 9.93433 16.0791 11.0718 16.0791 12.4701V23.3222C16.0792 24.7204 17.2167 25.8579 18.6148 25.8579ZM27.3667 24.2173H18.6148C18.2909 24.2173 18.0074 24.0437 17.8503 23.7853C18.495 22.259 19.7748 21.1046 21.3565 20.6225C21.8462 20.8773 22.4017 21.0222 22.9908 21.0222C23.5799 21.0222 24.1354 20.8773 24.6251 20.6224C26.2068 21.1044 27.4866 22.2589 28.1313 23.7852C27.9741 24.0437 27.6907 24.2173 27.3667 24.2173ZM22.9907 19.3816C21.9365 19.3816 21.0788 18.5239 21.0788 17.4696C21.0788 16.4153 21.9366 15.5576 22.9907 15.5576C24.0451 15.5576 24.9027 16.4153 24.9027 17.4696C24.9027 18.5239 24.0451 19.3816 22.9907 19.3816ZM18.6148 11.5751H27.3667C27.8603 11.5751 28.2618 11.9766 28.2618 12.4702V21.0181C27.6197 20.3324 26.8467 19.7754 25.9816 19.3832C26.3365 18.8305 26.5434 18.1739 26.5434 17.4696C26.5434 15.5107 24.9497 13.917 22.9908 13.917C21.0319 13.917 19.4383 15.5107 19.4383 17.4696C19.4383 18.1739 19.6452 18.8305 20.0001 19.3832C19.1349 19.7754 18.362 20.3323 17.7199 21.018V12.4702C17.7198 11.9765 18.1213 11.5751 18.6148 11.5751Z" fill="#39C4FF"/>
<path d="M53.8217 42.0792H52.2616V16.2773C52.2616 14.5768 50.8782 13.1935 49.1777 13.1935H47.1936C46.7404 13.1935 46.3733 13.5608 46.3733 14.0138C46.3733 14.4668 46.7404 14.8341 47.1936 14.8341H49.1777C49.9735 14.8341 50.6209 15.4815 50.6209 16.2773V42.0792H47.8865V19.8914C47.8865 18.6106 46.8444 17.5686 45.5637 17.5686H44.1707V2.31635C44.1707 1.06345 43.1514 0.0441895 41.8986 0.0441895H14.1015C12.8487 0.0441895 11.8295 1.06345 11.8295 2.31635V17.5685H10.4363C9.15556 17.5685 8.11355 18.6105 8.11355 19.8913V42.0791H5.37917V16.2773C5.37917 15.4815 6.02656 14.8341 6.82227 14.8341H8.81475C9.26789 14.8341 9.63506 14.4668 9.63506 14.0138C9.63506 13.5608 9.26789 13.1935 8.81475 13.1935H6.82227C5.12181 13.1935 3.73855 14.5768 3.73855 16.2773V42.0792H2.17831C0.977266 42.0792 0 43.0565 0 44.2576C0 47.3996 2.55609 49.9557 5.69811 49.9557H50.302C53.444 49.9557 56.0001 47.3995 56.0001 44.2576C56 43.0565 55.0227 42.0792 53.8217 42.0792ZM45.5637 19.2091C45.9398 19.2091 46.2458 19.5151 46.2458 19.8913V42.0791H44.1705V19.2091H45.5637ZM14.1015 1.68481H41.8986C42.2469 1.68481 42.53 1.9681 42.53 2.31635V5.46656H18.8833C18.4301 5.46656 18.063 5.83385 18.063 6.28688C18.063 6.73991 18.4301 7.10719 18.8833 7.10719H42.5299V42.0792H13.47V7.10719H15.0026C15.4558 7.10719 15.823 6.73991 15.823 6.28688C15.823 5.83385 15.4558 5.46656 15.0026 5.46656H13.47V2.31635C13.47 1.9682 13.7532 1.68481 14.1015 1.68481ZM35.3081 43.7198C34.9768 44.5822 34.1422 45.1971 33.1645 45.1971H22.8353C21.8577 45.1971 21.023 44.5822 20.6917 43.7198H35.3081ZM9.75417 19.8914C9.75417 19.5152 10.0602 19.2092 10.4363 19.2092H11.8293V42.0793H9.75417V19.8914ZM50.3019 48.3151H5.69811C3.46084 48.3151 1.64062 46.4949 1.64062 44.2576C1.64062 43.9611 1.8818 43.7198 2.17831 43.7198H18.9838C19.3623 45.4989 20.9452 46.8378 22.8355 46.8378H33.1647C35.055 46.8378 36.6379 45.4989 37.0164 43.7198H53.8219C54.1184 43.7198 54.3596 43.9611 54.3596 44.2576C54.3594 46.4949 52.5392 48.3151 50.3019 48.3151Z" fill="#006CFB"/>
</svg>
