<svg width="30" height="34" viewBox="0 0 30 34" fill="none" xmlns="http://www.w3.org/2000/svg">
<path d="M28.2743 12.7194L16.7465 1.19159C15.5548 -0.000189662 13.6155 -0.000257552 12.4236 1.19159C11.3522 2.2629 11.26 3.8968 12.0511 5.06351L12.0351 5.14375C11.204 9.29969 9.18061 13.0805 6.18357 16.0775L0.896051 21.365C-0.298582 22.5597 -0.298785 24.4932 0.896051 25.6879L3.77793 28.5697C4.97249 29.7644 6.90611 29.7644 8.10081 28.5697L8.82131 27.8492L13.8647 32.8926C15.0593 34.0873 16.9928 34.0874 18.1875 32.8926C19.3794 31.7008 19.3794 29.7616 18.1875 28.5698L16.0261 26.4084L16.7466 25.6879C17.9412 24.4933 17.9413 22.5598 16.7466 21.3651L16.2569 20.8754C18.6656 19.189 21.401 18.015 24.3222 17.4307L24.4035 17.4145C25.5962 18.2197 27.2263 18.0902 28.2743 17.0422H28.2744C29.466 15.8505 29.466 13.9113 28.2743 12.7194ZM6.65987 27.1288C6.2617 27.5269 5.61703 27.527 5.21886 27.1287L2.33699 24.2469C1.93876 23.8486 1.93876 23.2042 2.33699 22.8059L7.3803 17.7625L11.7032 22.0854C11.2098 22.5788 7.16546 26.6231 6.65987 27.1288ZM16.7465 30.0107C17.1437 30.4079 17.1437 31.0543 16.7465 31.4516C16.3493 31.8488 15.7028 31.8488 15.3056 31.4516L10.2622 26.4082L11.7032 24.9673L16.7465 30.0107ZM13.1441 23.5264C13.4504 23.2201 13.9089 22.7509 14.6326 22.1328L15.3056 22.8059C15.7038 23.2042 15.7038 23.8486 15.3056 24.2469L14.5851 24.9674L13.1441 23.5264ZM13.1874 20.6878L8.77782 16.2783C11.1409 13.5496 12.8332 10.3286 13.7386 6.82937L22.6363 15.7271C19.1371 16.6324 15.9161 18.3247 13.1874 20.6878ZM26.8332 15.6012C26.435 15.9993 25.7905 15.9993 25.3923 15.6012L13.8646 4.07346C13.4663 3.67516 13.4663 3.03076 13.8646 2.63253C14.2628 2.23429 14.9073 2.23429 15.3056 2.63253L26.8332 14.1602C27.2304 14.5574 27.2304 15.2038 26.8332 15.6012Z" fill="#006CFB"/>
</svg>
