<svg width="29" height="27" viewBox="0 0 29 27" fill="none" xmlns="http://www.w3.org/2000/svg">
<path d="M12.2348 20.1809C10.9879 20.1809 9.74122 19.7898 8.70062 19.0071L4.98438 16.2202C4.48384 15.8449 4.3824 15.1348 4.75776 14.6343C5.13311 14.1338 5.8431 14.0322 6.34369 14.4077L10.0612 17.1955C11.3413 18.1583 13.1275 18.1583 14.4062 17.1965L18.125 14.4077C18.6254 14.0322 19.3355 14.1338 19.7109 14.6343C20.0863 15.1348 19.9848 15.8449 19.4843 16.2202L15.7668 19.0081C14.7274 19.7899 13.481 20.1809 12.2348 20.1809ZM24.4688 19.9584V14.0083C24.4688 10.2605 21.4197 7.21147 17.6719 7.21147H6.79688C3.04908 7.21147 0 10.2605 0 14.0083V19.9585C0 23.7063 3.04908 26.7554 6.79688 26.7554H17.6719C21.4197 26.7553 24.4688 23.7062 24.4688 19.9584ZM17.6719 9.47709C20.1704 9.47709 22.2031 11.5098 22.2031 14.0083V19.9585C22.2031 22.457 20.1704 24.4897 17.6719 24.4897H6.79688C4.29834 24.4897 2.26562 22.457 2.26562 19.9585V14.0083C2.26562 11.5098 4.29834 9.47709 6.79688 9.47709H17.6719ZM29 15.8775V7.04155C29 3.29375 25.9509 0.244673 22.2031 0.244673H11.3281C9.10306 0.244673 7.01551 1.33693 5.74398 3.16654C5.38692 3.68027 5.51391 4.38618 6.0277 4.74324C6.54137 5.10025 7.24734 4.97326 7.6044 4.45953C8.45265 3.23898 9.84471 2.5103 11.3281 2.5103H22.2031C24.7017 2.5103 26.7344 4.54302 26.7344 7.04155V15.8775C26.7344 16.5031 27.2415 17.0103 27.8672 17.0103C28.4928 17.0103 29 16.5031 29 15.8775Z" fill="#006CFB"/>
</svg>
