<svg width="15" height="15" viewBox="0 0 15 15" fill="none" xmlns="http://www.w3.org/2000/svg">
<path d="M5.5 11.4113C5.22435 11.4113 5 11.219 5 10.9827C5 10.746 4.77617 10.5541 4.5 10.5541C4.22383 10.5541 4 10.746 4 10.9827C4 11.5431 4.42057 12.0205 5.00534 12.1962V12.5714C5.00534 12.8081 5.22917 13 5.50534 13C5.78151 13 6.00534 12.8081 6.00534 12.5714V12.1931C6.58451 12.015 7 11.5397 7 10.9827C7 10.2738 6.32708 9.69699 5.5 9.69699C5.22435 9.69699 5 9.50469 5 9.26842C5 9.03203 5.22435 8.83984 5.5 8.83984C5.77565 8.83984 6 9.03203 6 9.26842C6 9.50513 6.22383 9.69699 6.5 9.69699C6.77617 9.69699 7 9.50513 7 9.26842C7 8.71138 6.58451 8.23616 6.00534 8.05792V7.42857C6.00534 7.19185 5.78151 7 5.50534 7C5.22917 7 5.00534 7.19185 5.00534 7.42857V8.0548C4.42057 8.23047 4 8.70792 4 9.26842C4 9.97734 4.67292 10.5541 5.5 10.5541C5.77565 10.5541 6 10.7463 6 10.9827C6 11.219 5.77565 11.4113 5.5 11.4113Z" fill="#006CFB"/>
<path d="M1.79123 14.2823C2.70573 14.7719 3.96126 15 5.74219 15C7.19124 15 8.28186 14.8499 9.12918 14.5306C9.37122 14.8174 9.73297 15 10.1367 15H13.6816C14.4086 15 15 14.4086 15 13.6816C15 13.3443 14.8724 13.0362 14.6632 12.8027C14.8725 12.5693 15 12.2612 15 11.9238C15 11.5865 14.8724 11.2784 14.6632 11.0449C14.8725 10.8115 15 10.5034 15 10.166C15 9.82864 14.8724 9.52057 14.6632 9.28711C14.8725 9.05365 15 8.74557 15 8.4082C15 7.68127 14.4086 7.08984 13.6816 7.08984H10.1367C10.0939 7.08984 10.0516 7.09202 10.0098 7.09614C9.56875 6.56193 9.05193 6.11401 8.48248 5.77045C8.6911 5.53722 8.81836 5.22949 8.81836 4.89258C8.81836 4.36741 8.5096 3.91308 8.06408 3.70125L8.79673 1.45466C8.84033 1.32076 8.81721 1.17416 8.73459 1.0603C8.65185 0.946312 8.51967 0.878906 8.37891 0.878906H6.98502C6.80351 0.367355 6.31508 0 5.74219 0C5.16918 0 4.68052 0.367355 4.49913 0.878906H3.10547C2.96471 0.878906 2.83253 0.946312 2.74979 1.0603C2.66716 1.17416 2.64404 1.32076 2.68764 1.45466L3.4203 3.70125C2.97478 3.91308 2.66602 4.36741 2.66602 4.89258C2.66602 5.22972 2.79339 5.53768 3.00236 5.77103C1.23917 6.83521 0 8.85635 0 11.0449C0 12.5568 0.602646 13.6459 1.79123 14.2823ZM14.1211 10.166C14.1211 10.4083 13.9239 10.6055 13.6816 10.6055H10.1367C9.89445 10.6055 9.69727 10.4083 9.69727 10.166C9.69727 9.92374 9.89445 9.72656 10.1367 9.72656H13.6816C13.9239 9.72656 14.1211 9.92374 14.1211 10.166ZM14.1211 11.9238C14.1211 12.1661 13.9239 12.3633 13.6816 12.3633H10.1367C9.89445 12.3633 9.69727 12.1661 9.69727 11.9238C9.69727 11.6816 9.89445 11.4844 10.1367 11.4844H13.6816C13.9239 11.4844 14.1211 11.6816 14.1211 11.9238ZM13.6816 14.1211H10.1367C9.89445 14.1211 9.69727 13.9239 9.69727 13.6816C9.69727 13.4394 9.89445 13.2422 10.1367 13.2422H13.6816C13.9239 13.2422 14.1211 13.4394 14.1211 13.6816C14.1211 13.9239 13.9239 14.1211 13.6816 14.1211ZM14.1211 8.4082C14.1211 8.65047 13.9239 8.84766 13.6816 8.84766H10.1367C9.89445 8.84766 9.69727 8.65047 9.69727 8.4082C9.69727 8.16593 9.89445 7.96875 10.1367 7.96875H13.6816C13.9239 7.96875 14.1211 8.16593 14.1211 8.4082ZM7.48741 5.33203H3.99708C3.99319 5.33192 3.9893 5.33203 3.9854 5.33203H3.98438C3.7421 5.33203 3.54492 5.13485 3.54492 4.89258C3.54492 4.65076 3.7413 4.45393 3.983 4.45324H3.98426C3.98529 4.45324 3.98632 4.45312 3.98735 4.45312H7.49691C7.49794 4.45312 7.49908 4.45324 7.50011 4.45324H7.50137C7.74307 4.45393 7.93945 4.65076 7.93945 4.89258C7.93945 5.13485 7.74227 5.33203 7.5 5.33203H7.49863C7.49496 5.33203 7.49119 5.33192 7.48741 5.33203ZM4.86328 1.75781C5.10601 1.75781 5.30273 1.56109 5.30273 1.31836C5.30273 1.07609 5.49992 0.878906 5.74219 0.878906C5.98446 0.878906 6.18164 1.07609 6.18164 1.31836V2.19727C6.18164 2.43999 6.37836 2.63672 6.62109 2.63672C6.86382 2.63672 7.06055 2.43999 7.06055 2.19727V1.75781H7.7734L7.18105 3.57422H4.30332L3.71098 1.75781H4.86328ZM4.07009 6.21094H7.41257C8.07804 6.48891 8.68458 6.92665 9.19041 7.49165C8.96038 7.72911 8.81836 8.05229 8.81836 8.4082C8.81836 8.74557 8.94596 9.05365 9.15516 9.28711C8.94596 9.52057 8.81836 9.82864 8.81836 10.166C8.81836 10.5034 8.94596 10.8115 9.15516 11.0449C8.94596 11.2784 8.81836 11.5865 8.81836 11.9238C8.81836 12.2612 8.94596 12.5693 9.15516 12.8027C8.94596 13.0362 8.81836 13.3443 8.81836 13.6816C8.81836 13.6907 8.81882 13.6996 8.81905 13.7085C8.07564 13.9893 7.08549 14.1211 5.74219 14.1211C4.11163 14.1211 2.98794 13.9261 2.20608 13.5075C1.30062 13.0227 0.878906 12.2403 0.878906 11.0449C0.878906 8.97217 2.18719 6.99692 4.07009 6.21094Z" fill="#006CFB"/>
</svg>
