<svg width="29" height="29" viewBox="0 0 29 29" fill="none" xmlns="http://www.w3.org/2000/svg">
<path d="M14.504 16.628C14.6498 16.711 14.8076 16.7507 14.9639 16.7507C15.2862 16.7507 15.5993 16.5828 15.7702 16.2832C16.0246 15.8384 15.8702 15.2714 15.4254 15.017C11.8856 12.9923 9.99918 10.7419 9.48693 7.93403C9.25975 6.68292 9.52415 4.82961 10.627 3.5081C11.5418 2.41178 12.8638 1.85586 14.5558 1.85586C17.1993 1.85586 19.0847 3.3196 19.6 5.77159C20.1067 8.18438 19.0425 11.32 16.0286 12.645C15.5596 12.8521 15.346 13.3995 15.5526 13.8685C15.7592 14.3374 16.3076 14.549 16.7755 14.3444C20.6948 12.6214 22.0771 8.53572 21.4166 5.39057C20.8687 2.78475 18.7791 0.000518799 14.5563 0.000518799C11.7308 0.000518799 10.0851 1.26171 9.20198 2.31929C7.61307 4.22334 7.37881 6.71254 7.66132 8.26628C8.47257 12.7178 11.9555 15.1708 14.504 16.628Z" fill="#006CFB"/>
<path d="M6.42313 17.6148C7.20073 16.912 8.06681 16.334 8.67755 15.962C10.0483 18.2949 12.1756 19.6586 14.516 19.6586C16.8277 19.6586 18.9353 18.2939 20.3021 15.959C21.6246 16.7638 23.6387 18.2496 24.1736 19.7651C24.3078 20.1462 24.6657 20.3844 25.0487 20.3844C25.1508 20.3844 25.2548 20.3673 25.3579 20.3311C25.8414 20.1607 26.0948 19.6304 25.9239 19.1474C24.8803 16.1927 20.5283 13.9474 20.3433 13.8533C20.1192 13.7382 19.8567 13.7196 19.618 13.803C19.3797 13.886 19.1852 14.0629 19.0796 14.2921C18.0542 16.5229 16.3909 17.8022 14.5165 17.8022C12.6355 17.8022 10.9089 16.4902 9.89803 14.2921C9.79245 14.0629 9.59846 13.886 9.35967 13.803C9.12042 13.7196 8.85903 13.7387 8.63383 13.8528C8.55742 13.892 6.74631 14.8215 5.17904 16.2375C4.79853 16.5807 4.76885 17.1679 5.11271 17.5479C5.45601 17.9284 6.04313 17.9575 6.42313 17.6148Z" fill="#006CFB"/>
<path d="M28.0716 27.1441H0.927927C0.415678 27.1441 0 27.5599 0 28.0721C0 28.5843 0.415678 28.9995 0.927927 28.9995H28.0716C28.5838 28.9995 29 28.5848 29 28.0721C29 27.5594 28.5843 27.1441 28.0716 27.1441Z" fill="#006CFB"/>
<path d="M2.35013 21.0002C1.82683 20.9725 1.40815 21.3822 1.39003 21.8949C1.3719 22.4066 1.77257 22.8369 2.28477 22.8545C6.89416 23.0163 9.94426 23.778 11.7448 24.7028C9.31465 24.4637 5.60034 24.182 1.58906 24.182C1.07687 24.182 0.661133 24.5972 0.661133 25.1099C0.661133 25.6226 1.07636 26.0378 1.58906 26.0378C8.38605 26.0378 14.3104 26.8617 14.3697 26.8702C14.3791 26.8715 14.3885 26.8721 14.3978 26.8732C14.4058 26.874 14.4137 26.875 14.4217 26.8757C14.4476 26.8778 14.4735 26.8793 14.4994 26.8793C14.5257 26.8793 14.5517 26.8778 14.5776 26.8757C14.5853 26.875 14.5929 26.8741 14.6006 26.8732C14.6101 26.8722 14.6196 26.8716 14.6291 26.8702C14.6879 26.8622 20.6047 26.0378 27.4082 26.0378C27.921 26.0378 28.3367 25.6226 28.3367 25.1099C28.3367 24.5972 27.921 24.182 27.4082 24.182C23.3974 24.182 19.684 24.4637 17.2543 24.7027C19.0549 23.7781 22.1047 23.0163 26.7136 22.8545C27.2252 22.8369 27.6259 22.4071 27.6083 21.8949C27.5902 21.3832 27.1705 20.9891 26.6482 21.0002C19.2088 21.261 15.941 22.948 14.5014 24.4057C13.0714 22.9555 9.8051 21.2621 2.35013 21.0002Z" fill="#006CFB"/>
<path d="M4.01606 20.2401C4.19097 20.5276 4.49608 20.6865 4.80975 20.6865C4.97412 20.6865 5.14053 20.6427 5.29131 20.5508C5.72913 20.2848 5.86835 19.7139 5.60197 19.276L1.88426 13.1647C1.61783 12.7274 1.04781 12.5871 0.60902 12.854C0.171196 13.1199 0.0319754 13.6909 0.298352 14.1287L4.01606 20.2401Z" fill="#006CFB"/>
</svg>
