<svg width="56" height="56" viewBox="0 0 56 56" fill="none" xmlns="http://www.w3.org/2000/svg">
<path d="M54.5414 40.0819C53.4968 38.5467 51.7248 38.1719 49.7998 39.0777L48.7796 39.5269C50.3883 36.098 50.5879 32.2757 49.787 28.6652C48.8673 24.5185 46.6458 20.5013 43.1843 16.7254C42.8782 16.3915 42.3595 16.3689 42.0254 16.6751C41.6915 16.9811 41.669 17.4999 41.9751 17.8339C45.2395 21.3947 47.329 25.1584 48.1857 29.0203C49.0879 33.0883 48.563 37.2835 46.2606 40.636L36.0513 45.1312L36.0597 43.9781C36.0599 43.949 36.0586 43.92 36.0556 43.891C35.8199 41.5211 34.0085 39.633 31.6505 39.2994C31.6435 39.2983 31.6365 39.2974 31.6294 39.2967L22.5555 38.2519C19.0663 37.7552 18.1677 35.6643 13.4423 34.472C13.1158 31.7016 13.551 28.7518 14.7438 25.7947C16.5403 21.3411 20.0549 17.0142 24.9271 13.2481C26.743 14.5357 34.8448 14.6959 36.6578 13.035C37.5866 13.7403 38.4731 14.4672 39.2988 15.203C39.4551 15.3423 39.65 15.4108 39.8442 15.4108C40.0699 15.4108 40.2948 15.3182 40.4568 15.1363C40.7581 14.7981 40.7281 14.2797 40.39 13.9783C39.4848 13.1719 38.5111 12.3762 37.4899 11.6072C37.7292 10.5924 37.3943 9.4047 36.5105 8.6977C39.0786 4.80264 39.8255 2.25322 38.7937 0.917529C38.0851 -1.75834e-05 37.2035 0.430592 36.8271 0.614561C36.189 0.926061 35.8411 0.942467 35.2539 0.558342C34.1338 -0.17458 32.9565 -0.198205 31.8003 0.558342C31.2057 0.947389 30.7375 0.947389 30.1432 0.558342C29.0229 -0.17458 27.8461 -0.198205 26.6896 0.558342C26.0957 0.947061 25.7465 0.922998 25.1185 0.610842C24.7424 0.42392 23.8619 -0.0137989 23.1487 0.903857C22.1402 2.20192 22.8149 4.67095 25.2097 8.43356C25.063 8.51286 24.9232 8.60594 24.7928 8.71225C23.8403 7.70644 22.2799 6.65742 20.0232 6.90942C18.1515 7.11887 16.7713 6.50036 15.9429 5.94473C15.5666 5.69273 15.0572 5.79314 14.805 6.16917C14.5527 6.54542 14.6533 7.05489 15.0294 7.30711C16.0854 8.01509 17.8404 8.80325 20.2052 8.53955C21.9487 8.34398 23.1317 9.23495 23.8681 10.1417C23.858 10.1767 23.8487 10.2119 23.8401 10.2471C23.212 10.257 22.2732 10.3156 21.2394 10.5306C18.7531 11.0478 16.9075 12.2294 15.902 13.9479C15.6733 14.3388 15.8048 14.8413 16.1957 15.0701C16.5867 15.2988 17.089 15.1672 17.3177 14.7763C18.8133 12.2203 22.4639 11.9077 23.9139 11.8882C23.9202 11.9062 23.9275 11.924 23.9341 11.942C18.7597 15.9334 15.1574 20.3846 13.2227 25.1807C11.9999 28.2123 11.5115 31.2494 11.7594 34.1357C10.9729 34.0193 10.1773 33.9569 9.37788 33.9514V33.4554C9.37788 32.143 8.31016 31.0754 6.99777 31.0754H3.23265C1.92026 31.0754 0.852539 32.1431 0.852539 33.4554V52.5571C0.852539 53.8696 1.92026 54.9372 3.23265 54.9372H6.99766C8.31005 54.9372 9.37777 53.8695 9.37777 52.5571V52.3234L17.5909 55.3804C18.6946 55.7911 19.8513 55.9994 21.0289 55.9994H33.2665C35.1374 55.9994 36.9617 55.4701 38.542 54.4687C54.8672 44.1197 53.8758 44.7636 53.9701 44.68C55.2851 43.5127 55.5307 41.5359 54.5414 40.0819ZM35.1186 12.0631C32.1194 12.8204 29.2032 12.8204 26.2033 12.0631C24.916 11.7377 25.289 9.44189 26.6724 9.78883C29.3562 10.4626 31.9655 10.4626 34.6495 9.78883C36.0088 9.44758 36.4265 11.7325 35.1186 12.0631ZM24.3694 2.07045C24.3758 2.07362 24.3823 2.0769 24.3884 2.07997C25.4984 2.63165 26.4711 2.66162 27.5877 1.93111C28.9851 1.0164 29.1368 2.48301 30.9716 2.48301C31.8549 2.48301 32.3424 2.16408 32.6983 1.93111C33.2929 1.54195 33.7613 1.54217 34.3559 1.93111C35.4774 2.66501 36.4265 2.62881 37.5689 2.07789C37.7376 2.68623 37.3557 4.49978 34.9236 8.12075C33.7159 8.10019 31.9633 9.28636 27.0018 8.18222C24.575 4.51443 24.1997 2.68328 24.3694 2.07045ZM52.9255 43.4131L37.664 53.0837C36.3468 53.9184 34.8262 54.3597 33.2666 54.3597H21.0291C20.0474 54.3597 19.0832 54.186 18.1631 53.8435L9.37777 50.5736V41.741C9.37777 41.2879 9.0106 40.9208 8.55768 40.9208C8.10476 40.9208 7.73759 41.2879 7.73759 41.741V52.5575C7.73759 52.9655 7.40563 53.2973 6.99777 53.2973H3.23265C2.82468 53.2973 2.49284 52.9654 2.49284 52.5575V33.4558C2.49284 33.0479 2.82468 32.7161 3.23265 32.7161H6.99766C7.40563 32.7161 7.73748 33.048 7.73748 33.4558V37.9067C7.73748 38.3598 8.10465 38.7269 8.55757 38.7269C9.01049 38.7269 9.37766 38.3598 9.37766 37.9067V35.5921C16.1623 35.6441 17.6878 39.2201 22.336 39.8776C22.343 39.8787 22.35 39.8795 22.357 39.8803L31.4304 40.9249C33.0192 41.1543 34.2419 42.4194 34.4188 44.0123L34.4075 45.5724H25.9457C25.4928 45.5724 25.1255 45.9396 25.1255 46.3926C25.1255 46.8456 25.4926 47.2128 25.9457 47.2128H35.2217C35.3252 47.2128 35.4449 47.1898 35.549 47.1444C35.5658 47.137 50.4528 40.5825 50.4702 40.5748C51.5433 40.0979 52.5216 40.0298 53.1851 41.0048C53.7009 41.7624 53.5867 42.7867 52.9255 43.4131Z" fill="#006CFB"/>
<path d="M30.8776 37.2114C31.3305 37.2114 31.6978 36.8442 31.6978 36.3912V35.0316C34.0002 34.658 35.3437 32.7944 35.636 31.0558C36.001 28.8839 34.8634 26.9951 32.7378 26.2438C32.3622 26.111 32.0166 25.984 31.6977 25.8614V20.632C32.6679 20.7929 33.2505 21.295 33.2929 21.3325C33.6261 21.6355 34.1417 21.6131 34.4474 21.2817C34.7545 20.9487 34.7335 20.4299 34.4006 20.1227C34.3427 20.0694 33.3382 19.1649 31.6977 18.9758V17.8095C31.6977 17.3564 31.3305 16.9893 30.8775 16.9893C30.4246 16.9893 30.0574 17.3564 30.0574 17.8095V19.0421C29.8596 19.08 29.6571 19.1281 29.4489 19.1908C28.0577 19.6098 27.0177 20.8027 26.7348 22.3039C26.4781 23.6662 26.91 24.9763 27.8619 25.7229C28.4084 26.1515 29.0964 26.5439 30.0574 26.9635V33.4495C29.1089 33.4094 28.525 33.2313 27.5065 32.565C27.1275 32.3172 26.6192 32.4232 26.3712 32.8024C26.1233 33.1814 26.2295 33.6897 26.6086 33.9377C27.9474 34.8136 28.8424 35.042 30.0574 35.0893V36.3912C30.0574 36.8442 30.4246 37.2114 30.8776 37.2114ZM28.8743 24.4322C28.406 24.0649 28.2038 23.3658 28.3468 22.6077C28.4793 21.9047 28.9626 21.0505 29.9221 20.7615C29.9677 20.7477 30.0125 20.7359 30.0574 20.7239V25.1541C29.5663 24.9089 29.1812 24.673 28.8743 24.4322ZM32.1912 27.7904C34.2321 28.5117 34.1057 30.2641 34.0183 30.784C33.8374 31.8603 33.0473 33.0094 31.6977 33.3553V27.6126C31.8574 27.671 32.0204 27.73 32.1912 27.7904Z" fill="#39C4FF"/>
</svg>
