<svg width="100" height="100" viewBox="0 0 100 100" fill="none" xmlns="http://www.w3.org/2000/svg">
<circle cx="50" cy="50" r="50" fill="#006CFB"/>
<path d="M5 72H95C95 72 91.6044 82.9747 76.5819 92.4533C62.0603 102.93 36.9503 101.932 23.5027 92.9527C14.99 86.4668 7.4788 77.986 5 72Z" fill="#3F92FF"/>
<rect x="8" y="25" width="66" height="51" rx="3" fill="white"/>
<rect x="37" y="33" width="22" height="2" fill="#E0E0E0"/>
<rect x="37" y="41" width="15" height="2" fill="#E0E0E0"/>
<rect x="17" y="55" width="20" height="5" fill="#39C4FF"/>
<rect x="43" y="55" width="20" height="5" fill="#E0E0E0"/>
<path d="M22.5 30.2656C27.1956 30.2656 31 33.9512 31 38.5C31 43.0488 27.1956 46.7344 22.5 46.7344C17.8044 46.7344 14 43.0488 14 38.5C14 33.9512 17.8044 30.2656 22.5 30.2656ZM22.5 33.4531C20.8343 33.4531 19.4839 34.7613 19.4839 36.375C19.4839 37.9887 20.8343 39.2969 22.5 39.2969C24.1657 39.2969 25.5161 37.9887 25.5161 36.375C25.5161 34.7613 24.1657 33.4531 22.5 33.4531ZM22.5 44.875C24.5119 44.875 26.3147 43.9918 27.5212 42.6105C26.8768 41.4352 25.6155 40.625 24.1452 40.625C24.0629 40.625 23.9806 40.6383 23.9018 40.6615C23.4562 40.801 22.9901 40.8906 22.5 40.8906C22.0099 40.8906 21.5403 40.801 21.0982 40.6615C21.0194 40.6383 20.9371 40.625 20.8548 40.625C19.3845 40.625 18.1232 41.4352 17.4788 42.6105C18.6853 43.9918 20.4881 44.875 22.5 44.875Z" fill="#E0E0E0"/>
<path d="M16.2177 68.5578L18.2822 64.9812L16.5485 63.9802C16.3988 63.8938 16.3043 63.7354 16.2983 63.5619C16.2932 63.3882 16.378 63.2247 16.5229 63.1293L23.9948 58.1956C24.153 58.0909 24.3568 58.0849 24.5209 58.1796C24.6843 58.274 24.783 58.4535 24.7701 58.6432L24.2336 67.5813C24.2233 67.7546 24.1242 67.9097 23.9712 67.9921C23.8186 68.0741 23.6342 68.0713 23.4839 67.9846L21.7502 66.9836L19.6852 70.5599C19.5469 70.7993 19.241 70.8813 19.0015 70.743L16.401 69.2415C16.1615 69.1032 16.0795 68.7973 16.2177 68.5578Z" fill="#006CFB"/>
<path d="M84.1219 40.4368C84.3213 40.2064 84.6787 40.2064 84.8781 40.4368L85.8062 41.5091C85.8564 41.567 85.9192 41.6127 85.9899 41.6425L87.2965 42.1939C87.5772 42.3123 87.6876 42.6521 87.5301 42.913L86.7971 44.127C86.7575 44.1927 86.7335 44.2665 86.727 44.3429L86.6064 45.756C86.5805 46.0596 86.2914 46.2696 85.9947 46.2004L84.6135 45.8785C84.5388 45.8611 84.4612 45.8611 84.3865 45.8785L83.0053 46.2004C82.7086 46.2696 82.4195 46.0596 82.3936 45.756L82.273 44.3429C82.2665 44.2665 82.2425 44.1927 82.2029 44.127L81.4699 42.913C81.3124 42.6521 81.4228 42.3123 81.7035 42.1939L83.0101 41.6425C83.0808 41.6127 83.1436 41.567 83.1938 41.5091L84.1219 40.4368Z" fill="#92C1FF"/>
<path d="M88.1219 27.4368C88.3213 27.2064 88.6787 27.2064 88.8781 27.4368L90.2012 28.9654C90.2514 29.0234 90.3142 29.069 90.3848 29.0988L92.2475 29.8848C92.5282 30.0033 92.6387 30.3431 92.4812 30.6039L91.4362 32.3347C91.3966 32.4003 91.3726 32.4742 91.3661 32.5506L91.1942 34.565C91.1682 34.8686 90.8792 35.0786 90.5825 35.0094L88.6135 34.5505C88.5388 34.5331 88.4612 34.5331 88.3865 34.5505L86.4175 35.0094C86.1208 35.0786 85.8318 34.8686 85.8058 34.565L85.6339 32.5506C85.6274 32.4742 85.6034 32.4003 85.5638 32.3347L84.5188 30.6039C84.3613 30.3431 84.4718 30.0033 84.7525 29.8848L86.6152 29.0988C86.6858 29.069 86.7486 29.0234 86.7988 28.9654L88.1219 27.4368Z" fill="#92C1FF"/>
</svg>
