<svg width="56" height="56" viewBox="0 0 56 56" fill="none" xmlns="http://www.w3.org/2000/svg">
<path d="M6.98362 15.5346H23.6058L27.0704 18.9993C27.3093 19.2381 27.6262 19.3645 27.9495 19.3645C28.1102 19.3645 28.2723 19.3333 28.4271 19.2691C28.8941 19.0758 29.1956 18.6243 29.1956 18.1191V15.3596C30.4785 14.9179 31.374 13.6914 31.374 12.3079V3.22776C31.374 1.44845 29.9266 0.000976562 28.1472 0.000976562H6.98362C5.2043 0.000976562 3.75684 1.44845 3.75684 3.22776V3.89079C3.75684 4.34393 4.12401 4.7111 4.57715 4.7111C5.03029 4.7111 5.39746 4.34393 5.39746 3.89079V3.22776C5.39746 2.3532 6.10905 1.6416 6.98362 1.6416H28.1472C29.0218 1.6416 29.7334 2.3532 29.7334 3.22776V12.3079C29.7334 13.0532 29.2051 13.7058 28.4773 13.8594C27.9428 13.9721 27.555 14.4532 27.555 15.0034V17.1637L24.6288 14.2376C24.4077 14.0161 24.1134 13.894 23.8004 13.894H6.98362C6.10905 13.894 5.39746 13.1824 5.39746 12.3079V7.73259C5.39746 7.27945 5.03029 6.91227 4.57715 6.91227C4.12401 6.91227 3.75684 7.27945 3.75684 7.73259V12.3079C3.75684 14.0871 5.2043 15.5346 6.98362 15.5346Z" fill="#39C4FF"/>
<path d="M55.1797 37.8371C55.6328 37.8371 56 37.4699 56 37.0168V36.3852C56 33.8658 54.3116 31.6106 51.8942 30.9007L47.4465 29.5949C47.3184 29.4774 47.1706 29.3798 47.0073 29.307L46.0798 28.8938C45.8327 28.7838 45.571 28.728 45.3102 28.7247V26.7728C46.7642 25.6996 47.7794 24.0581 48.0151 22.1678C48.7502 21.9601 49.2903 21.2833 49.2903 20.4828V14.6124C49.2903 13.2375 48.2125 12.1097 46.8573 12.0294C46.7459 10.7045 45.632 9.66064 44.2788 9.66064H38.1885C35.4933 9.66064 33.3008 11.8533 33.3008 14.5484V20.4828C33.3008 21.2834 33.8408 21.9602 34.576 22.1679C34.812 24.058 35.8271 25.6994 37.2808 26.7726V28.7214C37.0223 28.7263 36.7633 28.7827 36.5197 28.8921L35.61 29.3005C35.4481 29.3732 35.3014 29.4705 35.1741 29.5876L30.6996 30.9008C28.282 31.6103 26.5933 33.8658 26.5933 36.3856V40.8403C26.0229 40.3741 25.359 40.0204 24.6339 39.8076C24.5618 39.7865 24.9821 39.8713 18.2471 38.5876V38.5699C19.3112 38.374 20.3625 38.0976 21.3901 37.7408C23.6677 36.9501 25.15 34.6073 23.9894 30.736C23.6056 29.4559 23.411 28.1293 23.4105 26.7896C23.409 21.7794 19.3317 17.7034 14.3215 17.7034H14.3213C9.3112 17.7034 5.23392 21.7795 5.23228 26.7931C5.23184 28.1295 5.03716 29.4561 4.65347 30.736C3.50492 34.5682 4.94134 36.9383 7.25266 37.7408C8.27958 38.0974 9.32991 38.3736 10.3931 38.5694C3.68714 39.8676 4.07969 39.7871 4.00936 39.8078C1.64872 40.5005 0 42.7026 0 45.163V52.9077C0 54.6203 1.38698 55.9989 3.09116 55.9989H3.0975C3.11161 55.9989 52.8948 55.9488 52.909 55.9488C54.6135 55.9488 56.0001 54.5621 56.0001 52.8576V40.8517C56.0001 40.3985 55.6329 40.0313 55.1798 40.0313C54.7267 40.0313 54.3595 40.3985 54.3595 40.8517V42.7491H44.7709L43.3196 36.278L44.1048 34.8708C44.4164 34.8106 44.7148 34.6615 44.9614 34.4246L47.4823 31.9698C47.644 31.8124 47.7685 31.6262 47.8523 31.424L51.4322 32.475C53.1556 32.9809 54.3594 34.589 54.3594 36.3852V37.0168C54.3594 37.4699 54.7265 37.8371 55.1797 37.8371ZM34.9414 14.5483C34.9414 12.7578 36.398 11.3012 38.1885 11.3012H44.2788C44.801 11.3012 45.2259 11.726 45.2259 12.2481C45.2259 13.0296 45.8616 13.6653 46.6431 13.6653H46.7026C47.2247 13.6653 47.6497 14.0901 47.6497 14.6123V17.6513H47.2487C47.0229 17.6513 46.8393 17.4676 46.8393 17.2419V16.5689C46.8393 15.1194 45.4161 14.1079 44.056 14.5574C42.2765 15.1455 40.3166 15.1456 38.5348 14.557C37.1626 14.1035 35.7518 15.1236 35.7518 16.5687V17.2419C35.7518 17.4676 35.5681 17.6513 35.3423 17.6513H34.9415V14.5483H34.9414ZM36.1745 21.65C36.1368 21.0572 35.6436 20.5928 35.0514 20.5928C34.9906 20.5928 34.9413 20.5433 34.9413 20.4826V19.2919H35.3421C36.4726 19.2919 37.3923 18.3723 37.3923 17.2419V16.5687C37.3923 16.2438 37.7077 16.0119 38.0224 16.1155C40.134 16.8132 42.4595 16.813 44.5709 16.1151C44.8804 16.0123 45.1986 16.2427 45.1986 16.5688V17.2418C45.1986 18.3721 46.1182 19.2918 47.2486 19.2918H47.6495V20.4825C47.6495 20.5432 47.6001 20.5927 47.5393 20.5927C46.9473 20.5927 46.454 21.0571 46.4163 21.6502C46.2465 24.3442 43.9971 26.4546 41.2953 26.4546C38.5937 26.4547 36.3444 24.3443 36.1745 21.65ZM41.9688 35.3316H40.608L40.0798 34.4245L41.3576 33.3571L42.5173 34.3487L41.9688 35.3316ZM43.0893 42.7491H39.4975L40.793 36.9722H41.7936L43.0893 42.7491ZM41.3549 31.2524L38.9215 29.434V27.6648C39.662 27.9432 40.4625 28.0953 41.2955 28.0953C42.1286 28.0953 42.9291 27.9432 43.6696 27.6648V29.4599L41.3549 31.2524ZM37.1918 30.3886C37.2944 30.3424 37.414 30.3557 37.5044 30.4231C38.3183 31.0313 38.8632 31.4385 40.0412 32.3188L38.8621 33.3037C38.8562 33.3086 38.8495 33.3119 38.8425 33.3138C38.839 33.3142 38.8355 33.3147 38.832 33.3153C38.8194 33.3157 38.8068 33.3116 38.797 33.3028L36.2912 30.7931L37.1918 30.3886ZM7.79089 36.1909C5.71725 35.4708 5.59716 33.3012 6.2253 31.207C6.6547 29.7743 6.87269 28.2894 6.87313 26.7901C6.87455 22.6843 10.2158 19.3439 14.3217 19.3439C18.4275 19.3439 21.7688 22.6843 21.7701 26.7935C21.7705 28.2892 21.9885 29.7741 22.418 31.207C23.0461 33.3017 22.9259 35.471 20.8523 36.1909C16.641 37.6529 12.0023 37.6531 7.79089 36.1909ZM16.6066 38.8072V39.0973C15.7079 41.031 12.9199 41.0229 12.0342 39.0797V38.8071C13.536 38.9659 15.0685 38.9699 16.6066 38.8072ZM27.0025 54.0977C27.0025 54.2115 26.9131 54.3042 26.7991 54.3088C26.7962 54.3089 26.7934 54.3091 26.7905 54.3093C26.79 54.3093 26.7894 54.3093 26.7889 54.3094C26.7829 54.3096 26.7766 54.3099 26.7702 54.3104L3.09411 54.3583H3.09127C2.2925 54.3583 1.64062 53.7121 1.64062 52.9077V45.163C1.64062 43.4382 2.7883 41.893 4.43625 41.3923L10.7554 40.1701C12.3453 42.8564 16.291 42.8483 17.8829 40.1881L24.2084 41.3924C25.9027 41.9077 27.0025 43.4657 27.0025 45.1628V54.0977ZM28.2341 36.3854C28.2341 34.589 29.438 32.9809 31.1618 32.475L34.7699 31.416C34.8507 31.6111 34.9696 31.7914 35.1232 31.945L37.6427 34.4684C37.6455 34.4712 37.6483 34.4739 37.651 34.4766C37.8857 34.7051 38.17 34.8527 38.4689 34.9182L39.2655 36.2862L37.8162 42.7489H28.2341V36.3854ZM54.3594 44.3897V52.8576C54.3594 53.6574 53.7087 54.3082 52.9088 54.3082H28.6314C28.6392 54.2392 28.6431 54.1689 28.6431 54.0977V45.1629C28.6431 44.9033 28.6251 44.6452 28.5893 44.3898C32.19 44.3897 48.6884 44.3897 54.3594 44.3897ZM43.8208 33.2453C43.811 33.2546 43.7988 33.2593 43.7864 33.2593C43.78 33.258 43.7735 33.2567 43.7671 33.2555C43.7624 33.2535 43.7579 33.2509 43.7537 33.2474L42.6628 32.3146L45.0961 30.4305C45.1864 30.3603 45.3076 30.3459 45.4121 30.3923L46.3303 30.8015L43.8208 33.2453Z" fill="#006CFB"/>
</svg>
