<svg width="29" height="29" viewBox="0 0 29 29" fill="none" xmlns="http://www.w3.org/2000/svg">
<path d="M10.252 29H6.79688C3.04908 29 0 25.9509 0 22.2031V12.9141C0 9.16627 3.04908 6.11719 6.79688 6.11719H22.2031C25.9509 6.11719 29 9.16627 29 12.9141V16.3125C29 16.9382 28.4928 17.4453 27.8672 17.4453C27.2415 17.4453 26.7344 16.9382 26.7344 16.3125V12.9141C26.7344 10.4155 24.7017 8.38281 22.2031 8.38281H6.79688C4.29834 8.38281 2.26562 10.4155 2.26562 12.9141V22.2031C2.26562 24.7017 4.29834 26.7344 6.79688 26.7344H10.252C10.8776 26.7344 11.3848 27.2415 11.3848 27.8672C11.3848 28.4928 10.8776 29 10.252 29ZM11.4414 3.39844C11.4414 1.52454 9.91687 0 8.04297 0C6.16907 0 4.64453 1.52454 4.64453 3.39844C4.64453 4.02409 5.15169 4.53125 5.77734 4.53125C6.403 4.53125 6.91016 4.02409 6.91016 3.39844C6.91016 2.7738 7.41834 2.26562 8.04297 2.26562C8.6676 2.26562 9.17578 2.7738 9.17578 3.39844C9.17578 4.02409 9.68294 4.53125 10.3086 4.53125C10.9342 4.53125 11.4414 4.02409 11.4414 3.39844ZM24.4688 3.39844C24.4688 1.52454 22.9442 0 21.0703 0C19.1964 0 17.6719 1.52454 17.6719 3.39844C17.6719 4.02409 18.179 4.53125 18.8047 4.53125C19.4303 4.53125 19.9375 4.02409 19.9375 3.39844C19.9375 2.7738 20.4457 2.26562 21.0703 2.26562C21.6949 2.26562 22.2031 2.7738 22.2031 3.39844C22.2031 4.02409 22.7103 4.53125 23.3359 4.53125C23.9616 4.53125 24.4688 4.02409 24.4688 3.39844ZM29 25.5449V22.5529C29 20.6423 27.4456 19.0879 25.535 19.0879H22.543C21.9173 19.0879 21.4102 19.5951 21.4102 20.2207C21.4102 20.8464 21.9173 21.3535 22.543 21.3535H25.535C26.1963 21.3535 26.7344 21.8916 26.7344 22.5529V25.5449C26.7344 26.1706 27.2415 26.6777 27.8672 26.6777C28.4928 26.6777 29 26.1706 29 25.5449ZM25.0609 24.8541C25.493 24.4016 25.4764 23.6846 25.024 23.2524C24.5716 22.8204 23.8545 22.8369 23.4224 23.2894C21.3317 25.4787 18.3964 26.7344 15.3692 26.7344H14.8398C14.2142 26.7344 13.707 27.2415 13.707 27.8672C13.707 28.4928 14.2142 29 14.8398 29H15.3692C19.0123 29 22.5448 27.4889 25.0609 24.8541ZM7.41992 11.4414C6.63788 11.4414 6.00391 12.0754 6.00391 12.8574C6.00391 13.6395 6.63788 14.2734 7.41992 14.2734C8.20196 14.2734 8.83594 13.6395 8.83594 12.8574C8.83594 12.0754 8.20196 11.4414 7.41992 11.4414ZM12.291 11.4414C11.509 11.4414 10.875 12.0754 10.875 12.8574C10.875 13.6395 11.509 14.2734 12.291 14.2734C13.0731 14.2734 13.707 13.6395 13.707 12.8574C13.707 12.0754 13.0731 11.4414 12.291 11.4414ZM17.1621 11.4414C16.3801 11.4414 15.7461 12.0754 15.7461 12.8574C15.7461 13.6395 16.3801 14.2734 17.1621 14.2734C17.9441 14.2734 18.5781 13.6395 18.5781 12.8574C18.5781 12.0754 17.9441 11.4414 17.1621 11.4414ZM22.0332 11.4414C21.2512 11.4414 20.6172 12.0754 20.6172 12.8574C20.6172 13.6395 21.2512 14.2734 22.0332 14.2734C22.8152 14.2734 23.4492 13.6395 23.4492 12.8574C23.4492 12.0754 22.8152 11.4414 22.0332 11.4414ZM7.41992 16.3125C6.63788 16.3125 6.00391 16.9465 6.00391 17.7285C6.00391 18.5106 6.63788 19.1445 7.41992 19.1445C8.20196 19.1445 8.83594 18.5106 8.83594 17.7285C8.83594 16.9465 8.20196 16.3125 7.41992 16.3125ZM7.41992 21.1836C6.63788 21.1836 6.00391 21.8176 6.00391 22.5996C6.00391 23.3816 6.63788 24.0156 7.41992 24.0156C8.20196 24.0156 8.83594 23.3816 8.83594 22.5996C8.83594 21.8176 8.20196 21.1836 7.41992 21.1836ZM12.291 16.3125C11.509 16.3125 10.875 16.9465 10.875 17.7285C10.875 18.5106 11.509 19.1445 12.291 19.1445C13.0731 19.1445 13.707 18.5106 13.707 17.7285C13.707 16.9465 13.0731 16.3125 12.291 16.3125ZM12.291 21.1836C11.509 21.1836 10.875 21.8176 10.875 22.5996C10.875 23.3816 11.509 24.0156 12.291 24.0156C13.0731 24.0156 13.707 23.3816 13.707 22.5996C13.707 21.8176 13.0731 21.1836 12.291 21.1836ZM17.1621 16.3125C16.3801 16.3125 15.7461 16.9465 15.7461 17.7285C15.7461 18.5106 16.3801 19.1445 17.1621 19.1445C17.9441 19.1445 18.5781 18.5106 18.5781 17.7285C18.5781 16.9465 17.9441 16.3125 17.1621 16.3125Z" fill="#006CFB"/>
</svg>
