<svg width="29" height="61" viewBox="0 0 29 61" fill="none" xmlns="http://www.w3.org/2000/svg">
<path d="M27.0284 1.81818H28.0284V0.81818H27.0284V1.81818ZM15.4659 1.81818V0.81818H15.176L14.931 0.973286L15.4659 1.81818ZM1.0625 10.9375L0.527567 10.0926L0.0625 10.3871V10.9375H1.0625ZM1.0625 21.8466H0.0625V23.6537L1.59364 22.6939L1.0625 21.8466ZM14.3864 13.4943V12.4943H14.0988L13.8552 12.647L14.3864 13.4943ZM14.7273 13.4943H15.7273V12.4943H14.7273V13.4943ZM14.7273 60H13.7273V61H14.7273V60ZM27.0284 60V61H28.0284V60H27.0284ZM27.0284 0.81818H15.4659V2.81818H27.0284V0.81818ZM14.931 0.973286L0.527567 10.0926L1.59743 11.7824L16.0008 2.66307L14.931 0.973286ZM0.0625 10.9375V21.8466H2.0625V10.9375H0.0625ZM1.59364 22.6939L14.9175 14.3416L13.8552 12.647L0.531365 20.9993L1.59364 22.6939ZM14.3864 14.4943H14.7273V12.4943H14.3864V14.4943ZM13.7273 13.4943V60H15.7273V13.4943H13.7273ZM14.7273 61H27.0284V59H14.7273V61ZM28.0284 60V1.81818H26.0284V60H28.0284Z" fill="black" fill-opacity="0.1"/>
</svg>
