<svg width="100" height="101" viewBox="0 0 100 101" fill="none" xmlns="http://www.w3.org/2000/svg">
<circle cx="50" cy="50" r="50" fill="#006CFB"/>
<path d="M75.1219 40.4368C75.3213 40.2064 75.6787 40.2064 75.8781 40.4368L76.8062 41.5091C76.8564 41.567 76.9192 41.6127 76.9899 41.6425L78.2965 42.1939C78.5772 42.3123 78.6876 42.6521 78.5301 42.913L77.7971 44.127C77.7575 44.1927 77.7335 44.2665 77.727 44.3429L77.6064 45.756C77.5805 46.0596 77.2914 46.2696 76.9947 46.2004L75.6135 45.8785C75.5388 45.8611 75.4612 45.8611 75.3865 45.8785L74.0053 46.2004C73.7086 46.2696 73.4195 46.0596 73.3936 45.756L73.273 44.3429C73.2665 44.2665 73.2425 44.1927 73.2029 44.127L72.4699 42.913C72.3124 42.6521 72.4228 42.3123 72.7035 42.1939L74.0101 41.6425C74.0808 41.6127 74.1436 41.567 74.1938 41.5091L75.1219 40.4368Z" fill="#92C1FF"/>
<path d="M79.1219 27.4368C79.3213 27.2064 79.6787 27.2064 79.8781 27.4368L81.2012 28.9654C81.2514 29.0234 81.3142 29.069 81.3848 29.0988L83.2475 29.8848C83.5282 30.0033 83.6387 30.3431 83.4812 30.6039L82.4362 32.3347C82.3966 32.4003 82.3726 32.4742 82.3661 32.5506L82.1942 34.565C82.1682 34.8686 81.8792 35.0786 81.5825 35.0094L79.6135 34.5505C79.5388 34.5331 79.4612 34.5331 79.3865 34.5505L77.4175 35.0094C77.1208 35.0786 76.8318 34.8686 76.8058 34.565L76.6339 32.5506C76.6274 32.4742 76.6034 32.4003 76.5638 32.3347L75.5188 30.6039C75.3613 30.3431 75.4718 30.0033 75.7525 29.8848L77.6152 29.0988C77.6858 29.069 77.7486 29.0234 77.7988 28.9654L79.1219 27.4368Z" fill="#92C1FF"/>
<path d="M5.02539 72.0005H94.891C94.891 72.0005 91.5005 83 76.5005 92.5C62.0005 103 36.928 102 23.5005 93.0005C15.0005 86.5 7.50049 78 5.02539 72.0005Z" fill="#3F92FF"/>
<rect x="10" y="19" width="57.0556" height="74.6909" rx="6" fill="white"/>
<path d="M20.0338 32.1744C19.6328 32.1744 19.3105 32.0624 19.0667 31.8383C18.8269 31.6103 18.707 31.288 18.707 30.8713H19.4618C19.4657 31.0639 19.5109 31.2172 19.5974 31.3312C19.6839 31.4452 19.8235 31.5022 20.0161 31.5022C20.1969 31.5022 20.3286 31.4492 20.4112 31.343C20.4937 31.2329 20.535 31.0895 20.535 30.9126V27.976H21.2898V30.9126C21.2898 31.3175 21.1758 31.63 20.9478 31.8501C20.7237 32.0663 20.419 32.1744 20.0338 32.1744Z" fill="#006CFB"/>
<path d="M24.0861 32.1744C23.6733 32.1744 23.3117 32.084 23.0011 31.9032C22.6945 31.7224 22.4527 31.4727 22.2758 31.1543C22.1029 30.832 22.0164 30.4605 22.0164 30.0399C22.0164 29.6192 22.1029 29.2497 22.2758 28.9313C22.4527 28.6089 22.6945 28.3574 23.0011 28.1765C23.3117 27.9957 23.6733 27.9053 24.0861 27.9053C24.4949 27.9053 24.8546 27.9957 25.1652 28.1765C25.4758 28.3574 25.7175 28.6089 25.8905 28.9313C26.0635 29.2497 26.1499 29.6192 26.1499 30.0399C26.1499 30.4605 26.0635 30.832 25.8905 31.1543C25.7175 31.4727 25.4758 31.7224 25.1652 31.9032C24.8546 32.084 24.4949 32.1744 24.0861 32.1744ZM24.0861 31.4963C24.4792 31.4963 24.7917 31.3666 25.0237 31.1072C25.2595 30.8477 25.3775 30.4919 25.3775 30.0399C25.3775 29.5878 25.2595 29.232 25.0237 28.9726C24.7917 28.7131 24.4792 28.5834 24.0861 28.5834C23.693 28.5834 23.3785 28.7131 23.1426 28.9726C22.9068 29.232 22.7888 29.5878 22.7888 30.0399C22.7888 30.4919 22.9068 30.8477 23.1426 31.1072C23.3785 31.3666 23.693 31.4963 24.0861 31.4963Z" fill="#006CFB"/>
<path d="M26.8753 32.1037V27.976H28.5323C28.9608 27.976 29.2871 28.0763 29.5111 28.2768C29.7391 28.4733 29.8531 28.7269 29.8531 29.0374C29.8531 29.2969 29.7824 29.5052 29.6408 29.6625C29.5033 29.8158 29.3342 29.92 29.1337 29.975C29.3696 30.0222 29.5642 30.1401 29.7175 30.3288C29.8708 30.5136 29.9475 30.7298 29.9475 30.9774C29.9475 31.3037 29.8295 31.573 29.5937 31.7853C29.3578 31.9975 29.0237 32.1037 28.5912 32.1037H26.8753ZM27.6301 29.7096H28.4202C28.6325 29.7096 28.7957 29.6605 28.9097 29.5622C29.0237 29.464 29.0807 29.3244 29.0807 29.1436C29.0807 28.9706 29.0237 28.835 28.9097 28.7367C28.7996 28.6345 28.6325 28.5834 28.4085 28.5834H27.6301V29.7096ZM27.6301 31.4904H28.4733C28.6974 31.4904 28.8704 31.4393 28.9922 31.3371C29.118 31.231 29.1809 31.0836 29.1809 30.8949C29.1809 30.7023 29.116 30.5509 28.9863 30.4408C28.8566 30.3308 28.6817 30.2757 28.4615 30.2757H27.6301V31.4904Z" fill="#006CFB"/>
<path d="M32.1183 32.1037V27.976H33.6455C33.9757 27.976 34.2489 28.0311 34.4651 28.1411C34.6813 28.2512 34.8425 28.4026 34.9487 28.5952C35.0548 28.7878 35.1079 29.004 35.1079 29.2438C35.1079 29.4718 35.0568 29.6821 34.9546 29.8748C34.8524 30.0634 34.6931 30.2168 34.4769 30.3347C34.2607 30.4487 33.9836 30.5057 33.6455 30.5057H32.873V32.1037H32.1183ZM32.873 29.8924H33.5983C33.8617 29.8924 34.0504 29.8354 34.1644 29.7214C34.2823 29.6035 34.3413 29.4443 34.3413 29.2438C34.3413 29.0394 34.2823 28.8802 34.1644 28.7662C34.0504 28.6483 33.8617 28.5893 33.5983 28.5893H32.873V29.8924Z" fill="#006CFB"/>
<path d="M37.6931 32.1744C37.2803 32.1744 36.9187 32.084 36.6081 31.9032C36.3015 31.7224 36.0597 31.4727 35.8828 31.1543C35.7099 30.832 35.6234 30.4605 35.6234 30.0399C35.6234 29.6192 35.7099 29.2497 35.8828 28.9313C36.0597 28.6089 36.3015 28.3574 36.6081 28.1765C36.9187 27.9957 37.2803 27.9053 37.6931 27.9053C38.1019 27.9053 38.4616 27.9957 38.7722 28.1765C39.0827 28.3574 39.3245 28.6089 39.4975 28.9313C39.6704 29.2497 39.7569 29.6192 39.7569 30.0399C39.7569 30.4605 39.6704 30.832 39.4975 31.1543C39.3245 31.4727 39.0827 31.7224 38.7722 31.9032C38.4616 32.084 38.1019 32.1744 37.6931 32.1744ZM37.6931 31.4963C38.0862 31.4963 38.3987 31.3666 38.6307 31.1072C38.8665 30.8477 38.9845 30.4919 38.9845 30.0399C38.9845 29.5878 38.8665 29.232 38.6307 28.9726C38.3987 28.7131 38.0862 28.5834 37.6931 28.5834C37.3 28.5834 36.9855 28.7131 36.7496 28.9726C36.5138 29.232 36.3958 29.5878 36.3958 30.0399C36.3958 30.4919 36.5138 30.8477 36.7496 31.1072C36.9855 31.3666 37.3 31.4963 37.6931 31.4963Z" fill="#006CFB"/>
<path d="M41.8916 32.1744C41.5889 32.1744 41.3216 32.1233 41.0897 32.0211C40.8577 31.915 40.6749 31.7656 40.5413 31.573C40.4076 31.3764 40.3388 31.1386 40.3349 30.8595H41.1309C41.1388 31.0521 41.2076 31.2153 41.3373 31.3489C41.471 31.4786 41.6538 31.5435 41.8857 31.5435C42.0862 31.5435 42.2454 31.4963 42.3633 31.402C42.4813 31.3037 42.5402 31.174 42.5402 31.0128C42.5402 30.8438 42.4872 30.7121 42.381 30.6177C42.2788 30.5234 42.1412 30.4467 41.9683 30.3878C41.7953 30.3288 41.6105 30.2659 41.414 30.1991C41.0956 30.089 40.8518 29.9475 40.6828 29.7745C40.5177 29.6015 40.4351 29.3716 40.4351 29.0846C40.4312 28.8409 40.4882 28.6325 40.6061 28.4596C40.728 28.2827 40.8931 28.147 41.1015 28.0527C41.3098 27.9544 41.5496 27.9053 41.8208 27.9053C42.096 27.9053 42.3378 27.9544 42.5461 28.0527C42.7584 28.151 42.9235 28.2886 43.0415 28.4655C43.1633 28.6424 43.2282 28.8527 43.236 29.0964H42.4282C42.4243 28.9509 42.3673 28.8232 42.2572 28.7131C42.1511 28.5991 42.0017 28.5421 41.809 28.5421C41.6439 28.5382 41.5044 28.5795 41.3904 28.6659C41.2803 28.7485 41.2253 28.8704 41.2253 29.0315C41.2253 29.1691 41.2685 29.2792 41.355 29.3617C41.4415 29.4404 41.5594 29.5072 41.7088 29.5622C41.8582 29.6173 42.0292 29.6762 42.2218 29.7391C42.4262 29.8099 42.613 29.8924 42.782 29.9868C42.951 30.0811 43.0867 30.2069 43.1889 30.3642C43.2911 30.5175 43.3422 30.716 43.3422 30.9597C43.3422 31.1759 43.2871 31.3764 43.1771 31.5612C43.067 31.746 42.9039 31.8953 42.6877 32.0093C42.4714 32.1194 42.2061 32.1744 41.8916 32.1744Z" fill="#006CFB"/>
<path d="M44.969 32.1037V28.5834H43.7661V27.976H46.9326V28.5834H45.7238V32.1037H44.969Z" fill="#006CFB"/>
<rect x="17.8623" y="78.9493" width="25.5522" height="6.87943" fill="#39C4FF"/>
<circle cx="20.3733" cy="51.1586" r="1.03737" fill="#E5E5E5"/>
<path d="M24.5225 51.1586H57.7184" stroke="#E6E6E6"/>
<circle cx="20.3733" cy="57.3828" r="1.03737" fill="#E5E5E5"/>
<path d="M24.5225 57.3828H57.7184" stroke="#E6E6E6"/>
<circle cx="20.3733" cy="63.6071" r="1.03737" fill="#E5E5E5"/>
<path d="M24.5225 63.6071H57.7184" stroke="#E6E6E6"/>
<circle cx="20.3733" cy="69.8313" r="1.03737" fill="#E5E5E5"/>
<path d="M24.5225 69.8313H57.7184" stroke="#E6E6E6"/>
<rect x="18.2988" y="38.7101" width="19.7101" height="4.1495" fill="#006CFB"/>
</svg>
