<svg width="26" height="26" viewBox="0 0 26 26" fill="none" xmlns="http://www.w3.org/2000/svg">
<path d="M21.3789 16.385C20.923 16.6227 20.4052 16.7578 19.8555 16.7578C18.0325 16.7578 16.5547 15.28 16.5547 13.457C16.5547 11.6341 18.0325 10.1562 19.8555 10.1562C20.4052 10.1562 20.923 10.2914 21.3789 10.5291C20.323 11.0797 19.6016 12.1838 19.6016 13.457C19.6016 14.7303 20.323 15.8344 21.3789 16.385ZM4.0625 19.9083V6.09167C4.0625 3.28824 6.32958 1.01562 9.1262 1.01562H6.04297C3.23837 1.01562 0.964844 3.28915 0.964844 6.09375V19.9062C0.964844 22.7108 3.23837 24.9844 6.04297 24.9844H9.1262C6.32958 24.9844 4.0625 22.7118 4.0625 19.9083Z" fill="#CEE1F2"/>
<path d="M19.8555 17.7734C17.4754 17.7734 15.5391 15.8371 15.5391 13.457C15.5391 11.077 17.4754 9.14062 19.8555 9.14062C22.2355 9.14062 24.1719 11.077 24.1719 13.457C24.1719 15.8371 22.2355 17.7734 19.8555 17.7734ZM19.8555 11.1719C18.5954 11.1719 17.5703 12.197 17.5703 13.457C17.5703 14.7171 18.5954 15.7422 19.8555 15.7422C21.1155 15.7422 22.1406 14.7171 22.1406 13.457C22.1406 12.197 21.1155 11.1719 19.8555 11.1719ZM11.7812 24.9844C11.7812 24.4234 11.3266 23.9688 10.7656 23.9688H6.09268C3.85323 23.9688 2.03125 22.1468 2.03125 19.9073V6.09268C2.03125 3.85323 3.85323 2.03125 6.09268 2.03125H15.4396C17.6791 2.03125 19.501 3.85323 19.501 6.09268C19.501 6.65361 19.9557 7.10831 20.5166 7.10831C21.0776 7.10831 21.5323 6.65361 21.5323 6.09268C21.5323 2.7332 18.7991 0 15.4386 0H6.09268C2.7332 0 0 2.7332 0 6.09268V19.9073C0 23.2668 2.7332 26 6.09268 26H10.7656C11.3266 26 11.7812 25.5453 11.7812 24.9844ZM13.457 11.5273C13.457 10.9664 13.0023 10.5117 12.4414 10.5117H7.46484C6.90391 10.5117 6.44922 10.9664 6.44922 11.5273C6.44922 12.0883 6.90391 12.543 7.46484 12.543H12.4414C13.0023 12.543 13.457 12.0883 13.457 11.5273ZM13.457 19.2969C13.457 18.7359 13.0023 18.2812 12.4414 18.2812H7.46484C6.90391 18.2812 6.44922 18.7359 6.44922 19.2969C6.44922 19.8578 6.90391 20.3125 7.46484 20.3125H12.4414C13.0023 20.3125 13.457 19.8578 13.457 19.2969ZM13.457 15.3867C13.457 14.8258 13.0023 14.3711 12.4414 14.3711H7.46484C6.90391 14.3711 6.44922 14.8258 6.44922 15.3867C6.44922 15.9476 6.90391 16.4023 7.46484 16.4023H12.4414C13.0023 16.4023 13.457 15.9476 13.457 15.3867Z" fill="#006CFB"/>
<path d="M24.9844 26C24.4234 26 23.9688 25.5453 23.9688 24.9844C23.9688 22.9683 22.3394 21.3281 20.3366 21.3281H19.4759C17.4731 21.3281 15.8438 22.9683 15.8438 24.9844C15.8438 25.5453 15.3891 26 14.8281 26C14.2672 26 13.8125 25.5453 13.8125 24.9844C13.8125 21.8483 16.3531 19.2969 19.4759 19.2969H20.3366C23.4594 19.2969 26 21.8483 26 24.9844C26 25.5453 25.5453 26 24.9844 26ZM15.4883 7.61719C15.4883 7.05626 15.0336 6.60156 14.4727 6.60156H7.46484C6.90391 6.60156 6.44922 7.05626 6.44922 7.61719C6.44922 8.17812 6.90391 8.63281 7.46484 8.63281H14.4727C15.0336 8.63281 15.4883 8.17812 15.4883 7.61719Z" fill="#39C4FF"/>
</svg>
