<svg width="17" height="18" viewBox="0 0 17 18" fill="none" xmlns="http://www.w3.org/2000/svg">
<path d="M6.44228 0.000101272C6.44876 -3.37572e-05 6.43585 -3.37572e-05 6.44228 0.000101272V0.000101272Z" fill="#006CFB"/>
<path d="M8.0684 6.64068C8.43516 6.64068 8.73246 6.34338 8.73246 5.97662C8.73246 5.73381 8.6017 5.52207 8.4072 5.40626C8.1864 5.25362 7.38807 4.75428 6.3862 4.74817C6.38328 4.74814 6.38039 4.74811 6.37747 4.74811H6.36774C6.36482 4.74811 6.36193 4.74814 6.35901 4.74817C5.24405 4.75495 4.38071 5.37289 4.28548 5.44368C3.99117 5.66252 3.92994 6.07849 4.14875 6.3728C4.27911 6.54811 4.47935 6.64071 4.68219 6.64068C4.81988 6.64068 4.95887 6.59798 5.07787 6.50953C5.08169 6.50667 5.33848 6.32196 5.71095 6.19463V9.72852C5.71095 10.0953 6.00825 10.3926 6.37501 10.3926C6.74177 10.3926 7.03907 10.0953 7.03907 9.72852V6.19705C7.40958 6.32495 7.66631 6.5088 7.67019 6.51165L7.6673 6.50956L7.66946 6.50664C7.78066 6.59044 7.91852 6.64068 8.0684 6.64068Z" fill="#006CFB"/>
<path d="M10.9705 1.69733C9.78761 0.612789 8.16096 0.0108852 6.44138 6.10352e-05C4.72183 0.0108852 3.09518 0.612789 1.91229 1.69733C0.679167 2.82799 0 4.39491 0 6.10941C0 7.88849 0.758987 9.74371 2.19498 11.4744C3.25801 12.7557 4.31566 13.5226 4.36018 13.5546C4.47314 13.6359 4.60881 13.6797 4.74803 13.6797H8.10153C8.46829 13.6797 8.76559 13.3824 8.76559 13.0156C8.76559 12.6489 8.46829 12.3516 8.10153 12.3516H4.97384C4.2459 11.7721 1.32812 9.25241 1.32812 6.10941C1.32812 3.39128 3.52908 1.33964 6.44138 1.32818C9.35361 1.33967 11.5546 3.39131 11.5546 6.10941C11.5546 6.64371 11.4687 7.19199 11.2993 7.73908C11.1907 8.08944 11.3868 8.46138 11.7371 8.56988C12.0872 8.67836 12.4595 8.4824 12.5679 8.13204C12.7768 7.45755 12.8828 6.77702 12.8828 6.10938C12.8828 4.39491 12.2036 2.82799 10.9705 1.69733Z" fill="#006CFB"/>
<path d="M16.6777 14.1727L16.2353 13.9073C16.322 13.6364 16.3692 13.3481 16.3692 13.0488C16.3692 12.7495 16.322 12.4612 16.2353 12.1903L16.6777 11.9249C16.9922 11.7362 17.0941 11.3283 16.9054 11.0138C16.7167 10.6993 16.3087 10.5973 15.9944 10.7861L15.5438 11.0564C15.1827 10.6945 14.7239 10.4305 14.211 10.3063V9.72857C14.211 9.36181 13.9137 9.06451 13.547 9.06451C13.1802 9.06451 12.8829 9.36181 12.8829 9.72857V10.3063C12.3584 10.4333 11.8908 10.7071 11.5259 11.0818L11.0332 10.7861C10.7188 10.5974 10.3108 10.6994 10.1221 11.0138C9.93339 11.3283 10.0354 11.7362 10.3499 11.9249L10.848 12.2238C10.768 12.4849 10.7247 12.7619 10.7247 13.0488C10.7247 13.3357 10.768 13.6127 10.848 13.8738L10.3499 14.1727C10.0354 14.3615 9.93339 14.7694 10.1221 15.0838C10.2466 15.2913 10.4666 15.4063 10.6921 15.4063C10.8084 15.4063 10.9262 15.3758 11.0332 15.3116L11.526 15.0159C11.8908 15.3906 12.3584 15.6644 12.8829 15.7914V16.3691C12.8829 16.7359 13.1802 17.0332 13.547 17.0332C13.9137 17.0332 14.211 16.7359 14.211 16.3691V15.7914C14.7238 15.6672 15.1826 15.4032 15.5438 15.0413L15.9944 15.3116C16.1013 15.3758 16.2191 15.4064 16.3354 15.4064C16.561 15.4064 16.7809 15.2914 16.9055 15.0839C17.0941 14.7694 16.9922 14.3614 16.6777 14.1727ZM13.547 14.5429C12.7231 14.5429 12.0528 13.8727 12.0528 13.0488C12.0528 12.2249 12.7231 11.5547 13.547 11.5547C14.3708 11.5547 15.0411 12.2249 15.0411 13.0488C15.0411 13.8727 14.3709 14.5429 13.547 14.5429Z" fill="#006CFB"/>
<path d="M8.30557 14.6747C7.95641 14.5621 7.58231 14.7538 7.46972 15.1028L7.28614 15.6719H5.5638L5.38022 15.1028C5.26763 14.7537 4.89333 14.562 4.54437 14.6747C4.19531 14.7873 4.00366 15.1615 4.11622 15.5105L4.44825 16.5398C4.53673 16.8141 4.79203 17 5.08023 17H7.76968C8.05788 17 8.31318 16.8141 8.40166 16.5398L8.73369 15.5105C8.84628 15.1615 8.65463 14.7873 8.30557 14.6747Z" fill="#006CFB"/>
</svg>
