<svg width="100" height="101" viewBox="0 0 100 101" fill="none" xmlns="http://www.w3.org/2000/svg">
<circle cx="50" cy="50" r="50" fill="#006CFB"/>
<path d="M20.6219 27.4368C20.8213 27.2064 21.1787 27.2064 21.3781 27.4368L23.2937 29.6499C23.3439 29.7079 23.4067 29.7535 23.4773 29.7834L26.1741 30.9213C26.4548 31.0398 26.5652 31.3796 26.4078 31.6404L24.8949 34.1462C24.8553 34.2118 24.8313 34.2857 24.8247 34.3621L24.5758 37.2785C24.5499 37.5821 24.2609 37.7921 23.9641 37.723L21.1135 37.0585C21.0388 37.0411 20.9612 37.0411 20.8865 37.0585L18.0359 37.723C17.7391 37.7921 17.4501 37.5821 17.4242 37.2785L17.1753 34.3621C17.1687 34.2857 17.1447 34.2118 17.1051 34.1462L15.5922 31.6404C15.4348 31.3796 15.5452 31.0398 15.8259 30.9213L18.5227 29.7834C18.5933 29.7535 18.6561 29.7079 18.7063 29.6499L20.6219 27.4368Z" fill="#FFBB86"/>
<path d="M36.6219 27.4368C36.8213 27.2064 37.1787 27.2064 37.3781 27.4368L39.2937 29.6499C39.3439 29.7079 39.4067 29.7535 39.4773 29.7834L42.1741 30.9213C42.4548 31.0398 42.5652 31.3796 42.4078 31.6404L40.8949 34.1462C40.8553 34.2118 40.8313 34.2857 40.8247 34.3621L40.5758 37.2785C40.5499 37.5821 40.2609 37.7921 39.9641 37.723L37.1135 37.0585C37.0388 37.0411 36.9612 37.0411 36.8865 37.0585L34.0359 37.723C33.7391 37.7921 33.4501 37.5821 33.4242 37.2785L33.1753 34.3621C33.1687 34.2857 33.1447 34.2118 33.1051 34.1462L31.5922 31.6404C31.4348 31.3796 31.5452 31.0398 31.8259 30.9213L34.5227 29.7834C34.5933 29.7535 34.6561 29.7079 34.7063 29.6499L36.6219 27.4368Z" fill="#FFBB86"/>
<path d="M50.6219 27.4368C50.8213 27.2064 51.1787 27.2064 51.3781 27.4368L53.2937 29.6499C53.3439 29.7079 53.4067 29.7535 53.4773 29.7834L56.1741 30.9213C56.4548 31.0398 56.5652 31.3796 56.4078 31.6404L54.8949 34.1462C54.8553 34.2118 54.8313 34.2857 54.8247 34.3621L54.5758 37.2785C54.5499 37.5821 54.2609 37.7921 53.9641 37.723L51.1135 37.0585C51.0388 37.0411 50.9612 37.0411 50.8865 37.0585L48.0359 37.723C47.7391 37.7921 47.4501 37.5821 47.4242 37.2785L47.1753 34.3621C47.1687 34.2857 47.1447 34.2118 47.1051 34.1462L45.5922 31.6404C45.4348 31.3796 45.5452 31.0398 45.8259 30.9213L48.5227 29.7834C48.5933 29.7535 48.6561 29.7079 48.7063 29.6499L50.6219 27.4368Z" fill="#FFBB86"/>
<path d="M78.6219 27.4368C78.8213 27.2064 79.1787 27.2064 79.3781 27.4368L81.2937 29.6499C81.3439 29.7079 81.4067 29.7535 81.4773 29.7834L84.1741 30.9213C84.4548 31.0398 84.5652 31.3796 84.4078 31.6404L82.8949 34.1462C82.8553 34.2118 82.8313 34.2857 82.8247 34.3621L82.5758 37.2785C82.5499 37.5821 82.2609 37.7921 81.9641 37.723L79.1135 37.0585C79.0388 37.0411 78.9612 37.0411 78.8865 37.0585L76.0359 37.723C75.7391 37.7921 75.4501 37.5821 75.4242 37.2785L75.1753 34.3621C75.1687 34.2857 75.1447 34.2118 75.1051 34.1462L73.5922 31.6404C73.4348 31.3796 73.5452 31.0398 73.8259 30.9213L76.5227 29.7834C76.5933 29.7535 76.6561 29.7079 76.7063 29.6499L78.6219 27.4368Z" fill="#FFBB86"/>
<path d="M65.6219 27.4368C65.8213 27.2064 66.1787 27.2064 66.3781 27.4368L68.2937 29.6499C68.3439 29.7079 68.4067 29.7535 68.4773 29.7834L71.1741 30.9213C71.4548 31.0398 71.5652 31.3796 71.4078 31.6404L69.8949 34.1462C69.8553 34.2118 69.8313 34.2857 69.8247 34.3621L69.5758 37.2785C69.5499 37.5821 69.2609 37.7921 68.9641 37.723L66.1135 37.0585C66.0388 37.0411 65.9612 37.0411 65.8865 37.0585L63.0359 37.723C62.7391 37.7921 62.4501 37.5821 62.4242 37.2785L62.1753 34.3621C62.1687 34.2857 62.1447 34.2118 62.1051 34.1462L60.5922 31.6404C60.4348 31.3796 60.5452 31.0398 60.8259 30.9213L63.5227 29.7834C63.5933 29.7535 63.6561 29.7079 63.7063 29.6499L65.6219 27.4368Z" fill="#FFBB86"/>
<path d="M5 72H94.8656C94.8656 72 91.4751 82.9995 76.4751 92.4995C61.9751 103 36.9026 102 23.4751 93C14.9751 86.4995 7.4751 77.9995 5 72Z" fill="#3F92FF"/>
<rect x="2" y="49" width="85" height="43" rx="3" fill="white"/>
<rect x="31" y="57" width="22" height="2" fill="#E0E0E0"/>
<rect x="12" y="80" width="62" height="2" fill="#E0E0E0"/>
<rect x="31" y="65" width="15" height="2" fill="#E0E0E0"/>
<path d="M16.5 54.2656C21.1956 54.2656 25 57.9512 25 62.5C25 67.0488 21.1956 70.7344 16.5 70.7344C11.8044 70.7344 8 67.0488 8 62.5C8 57.9512 11.8044 54.2656 16.5 54.2656ZM16.5 57.4531C14.8343 57.4531 13.4839 58.7613 13.4839 60.375C13.4839 61.9887 14.8343 63.2969 16.5 63.2969C18.1657 63.2969 19.5161 61.9887 19.5161 60.375C19.5161 58.7613 18.1657 57.4531 16.5 57.4531ZM16.5 68.875C18.5119 68.875 20.3147 67.9918 21.5212 66.6105C20.8768 65.4352 19.6155 64.625 18.1452 64.625C18.0629 64.625 17.9806 64.6383 17.9018 64.6615C17.4562 64.801 16.9901 64.8906 16.5 64.8906C16.0099 64.8906 15.5403 64.801 15.0982 64.6615C15.0194 64.6383 14.9371 64.625 14.8548 64.625C13.3845 64.625 12.1232 65.4352 11.4788 66.6105C12.6853 67.9918 14.4881 68.875 16.5 68.875Z" fill="#E0E0E0"/>
</svg>
