<svg width="36" height="36" viewBox="0 0 36 36" fill="none" xmlns="http://www.w3.org/2000/svg">
<path d="M27.8847 7.96042L30.4168 2.00608C30.5545 1.68222 30.4316 1.3064 30.129 1.12654L28.8865 0.388048C27.9124 -0.191045 26.6682 -0.0983734 25.7906 0.618322L25.5988 0.774908C25.1219 1.16451 24.4297 1.16451 23.9523 0.774627L23.9446 0.768369C22.9505 -0.043389 21.5086 -0.0421937 20.5159 0.771463C20.0387 1.16261 19.3456 1.16303 18.8679 0.772869L18.6731 0.613681C17.7996 -0.0997797 16.5596 -0.194912 15.5875 0.377009L14.3118 1.12752C14.0067 1.30703 13.8826 1.68524 14.022 2.01058L16.5699 7.95536C14.7269 8.62094 13.1543 9.89395 12.1225 11.5661C11.9185 11.8965 12.0211 12.3298 12.3515 12.5337C12.682 12.7375 13.1152 12.6349 13.3192 12.3045C14.2048 10.8693 15.565 9.78341 17.1578 9.23723H27.2804C30.2296 10.2473 32.2034 13.0032 32.2034 16.1292V17.9947C32.2034 18.383 32.5182 18.6978 32.9065 18.6978C33.2948 18.6978 33.6096 18.383 33.6096 17.9947V16.1292C33.6096 12.4526 31.3207 9.20636 27.8847 7.96042ZM26.4115 7.83098H18.0464L15.5582 2.02563L16.3005 1.58906C16.7676 1.31413 17.3636 1.35991 17.7834 1.70282L17.9782 1.86194C18.9723 2.67398 20.4144 2.67278 21.4073 1.85906C21.8844 1.46798 22.5774 1.46749 23.0556 1.85793L23.0632 1.86419C24.0556 2.67454 25.496 2.67454 26.4882 1.86405L26.68 1.70746C27.1018 1.36307 27.6996 1.31856 28.1679 1.59679L28.8821 2.02134L26.4115 7.83098Z" fill="#39C4FF"/>
<path d="M33.4034 20.1541C33.2726 20.0233 33.0912 19.9481 32.9062 19.9481C32.7213 19.9481 32.5399 20.0232 32.4091 20.1541C32.2784 20.2856 32.2031 20.4662 32.2031 20.6512C32.2031 20.8361 32.2784 21.0175 32.4091 21.1482C32.5399 21.2797 32.7213 21.3549 32.9062 21.3549C33.0912 21.3549 33.2726 21.2797 33.4034 21.1482C33.5341 21.0175 33.6094 20.8361 33.6094 20.6512C33.6094 20.4662 33.5341 20.2848 33.4034 20.1541Z" fill="#006CFB"/>
<path d="M10.7559 31.3646C10.6251 31.2339 10.4437 31.1586 10.2588 31.1586C10.0739 31.1586 9.89246 31.2339 9.76168 31.3646C9.6309 31.4954 9.55566 31.6768 9.55566 31.8618C9.55566 32.0467 9.6309 32.2281 9.76168 32.3589C9.89246 32.4896 10.0739 32.5649 10.2588 32.5649C10.4437 32.5649 10.6251 32.4896 10.7559 32.3589C10.8867 32.2281 10.9619 32.0467 10.9619 31.8618C10.9619 31.6768 10.8867 31.4954 10.7559 31.3646Z" fill="#006CFB"/>
<path d="M36 29.3854C36 28.6069 35.6652 27.9054 35.1323 27.4166C35.6652 26.9278 36 26.2263 36 25.4479C36 23.9746 34.8014 22.776 33.3281 22.776H25.7344C24.2611 22.776 23.0625 23.9746 23.0625 25.4479C23.0625 26.2263 23.3973 26.9278 23.9302 27.4166C23.3973 27.9054 23.0625 28.6069 23.0625 29.3854C23.0625 30.1638 23.3973 30.8653 23.9302 31.3541C23.3973 31.8429 23.0625 32.5444 23.0625 33.3229C23.0625 33.7805 23.1783 34.2116 23.3819 34.5885H20.5188V31.8391C20.5188 28.1207 17.6602 25.058 14.0254 24.7317C13.9268 24.7024 13.8232 24.6958 13.722 24.7106C13.7102 24.7101 13.6983 24.7098 13.6865 24.7093C14.5992 23.8176 15.1673 22.5746 15.1673 21.2008V14.1979C15.1673 13.8096 14.8525 13.4948 14.4642 13.4948H9.25573C7.1029 13.4948 5.35148 15.2462 5.35148 17.3989V21.2007C5.35148 22.5745 5.91961 23.8175 6.83234 24.7092C6.82052 24.7097 6.80864 24.71 6.79683 24.7106C6.69565 24.6958 6.59201 24.7023 6.49343 24.7316C2.85855 25.058 0 28.1208 0 31.8391V35.2916C0 35.6799 0.314789 35.9947 0.703125 35.9947H11.5312H19.8157H25.7344H32.9062H33.3281C34.8014 35.9947 36 34.7961 36 33.3229C36 32.5444 35.6652 31.8429 35.1323 31.3541C35.6652 30.8653 36 30.1638 36 29.3854ZM6.75773 18.3838V17.3989C6.75773 16.0216 7.87837 14.901 9.25573 14.901H13.7611V16.7826C13.7611 17.7334 12.9876 18.5069 12.0367 18.5069H6.75773V18.3838ZM6.75773 21.2008V19.9132H12.0367C12.6735 19.9132 13.2662 19.7216 13.7611 19.3937V21.2007C13.7611 23.1315 12.1902 24.7024 10.2594 24.7024C8.32866 24.7024 6.75773 23.1316 6.75773 21.2008ZM12.1267 26.1086L10.2594 27.976L8.39201 26.1086H12.1267ZM19.1126 34.5886H11.5312V34.5885H1.40625V32.5649H7.14396C7.5323 32.5649 7.84709 32.25 7.84709 31.8618C7.84709 31.4735 7.5323 31.1587 7.14396 31.1587H1.44809C1.75887 28.5454 3.83435 26.467 6.44639 26.1517L9.76226 29.4676C9.89958 29.6048 10.0795 29.6735 10.2594 29.6735C10.4394 29.6735 10.6194 29.6048 10.7566 29.4676L14.0725 26.1517C16.9077 26.4939 19.1126 28.9132 19.1126 31.8392V34.5886ZM33.3281 34.5885H32.9062H25.7344C25.0365 34.5885 24.4688 34.0207 24.4688 33.3229C24.4688 32.625 25.0365 32.0572 25.7344 32.0572H33.3281C34.026 32.0572 34.5938 32.625 34.5938 33.3229C34.5938 34.0207 34.026 34.5885 33.3281 34.5885ZM33.3281 30.651H25.7344C25.0365 30.651 24.4688 30.0832 24.4688 29.3854C24.4688 28.6875 25.0365 28.1197 25.7344 28.1197H33.3281C34.026 28.1197 34.5938 28.6875 34.5938 29.3854C34.5938 30.0832 34.026 30.651 33.3281 30.651ZM33.3281 26.7135H25.7344C25.0365 26.7135 24.4688 26.1457 24.4688 25.4479C24.4688 24.75 25.0365 24.1822 25.7344 24.1822H33.3281C34.026 24.1822 34.5938 24.75 34.5938 25.4479C34.5938 26.1457 34.026 26.7135 33.3281 26.7135Z" fill="#006CFB"/>
<path d="M26.2972 16.0307C25.7343 16.0307 25.2764 15.6443 25.2764 15.1693C25.2764 14.6944 25.7343 14.3079 26.2972 14.3079C26.86 14.3079 27.318 14.6944 27.318 15.1693C27.318 15.5576 27.6328 15.8725 28.0211 15.8725C28.4094 15.8725 28.7242 15.5576 28.7242 15.1693C28.7242 14.1474 27.9968 13.2815 27.0003 12.9991V12.8941C27.0003 12.5058 26.6855 12.191 26.2972 12.191C25.9088 12.191 25.594 12.5058 25.594 12.8941V12.9991C24.5976 13.2815 23.8701 14.1474 23.8701 15.1693C23.8701 16.4197 24.9588 17.437 26.2972 17.437C26.86 17.437 27.318 17.8234 27.318 18.2984C27.318 18.7734 26.86 19.1598 26.2972 19.1598C25.7343 19.1598 25.2764 18.7734 25.2764 18.2984C25.2764 17.9101 24.9616 17.5953 24.5732 17.5953C24.1849 17.5953 23.8701 17.9101 23.8701 18.2984C23.8701 19.3204 24.5976 20.1863 25.594 20.4687V20.5137C25.594 20.902 25.9088 21.2169 26.2972 21.2169C26.6855 21.2169 27.0003 20.902 27.0003 20.5137V20.4687C27.9967 20.1863 28.7242 19.3204 28.7242 18.2984C28.7242 17.048 27.6355 16.0307 26.2972 16.0307Z" fill="#006CFB"/>
</svg>
