<svg width="100" height="232" viewBox="0 0 100 232" fill="none" xmlns="http://www.w3.org/2000/svg">
<g opacity="0.3">
<circle cx="3.72936" cy="45.1423" r="3.11461" transform="rotate(-12.8038 3.72936 45.1423)" fill="#006CFB"/>
<circle cx="21.9501" cy="41.0007" r="3.11461" transform="rotate(-12.8038 21.9501 41.0007)" fill="#006CFB"/>
<circle cx="40.1737" cy="36.8594" r="3.11461" transform="rotate(-12.8038 40.1737 36.8594)" fill="#006CFB"/>
<circle cx="58.3964" cy="32.7178" r="3.11461" transform="rotate(-12.8038 58.3964 32.7178)" fill="#006CFB"/>
<circle cx="76.62" cy="28.5764" r="3.11461" transform="rotate(-12.8038 76.62 28.5764)" fill="#006CFB"/>
<circle cx="94.8426" cy="24.4351" r="3.11461" transform="rotate(-12.8038 94.8426 24.4351)" fill="#006CFB"/>
<circle cx="7.86901" cy="63.365" r="3.11461" transform="rotate(-12.8038 7.86901 63.365)" fill="#006CFB"/>
<circle cx="26.0917" cy="59.2239" r="3.11461" transform="rotate(-12.8038 26.0917 59.2239)" fill="#006CFB"/>
<circle cx="44.3153" cy="55.0823" r="3.11461" transform="rotate(-12.8038 44.3153 55.0823)" fill="#006CFB"/>
<circle cx="62.538" cy="50.9407" r="3.11461" transform="rotate(-12.8038 62.538 50.9407)" fill="#006CFB"/>
<circle cx="80.7606" cy="46.7996" r="3.11461" transform="rotate(-12.8038 80.7606 46.7996)" fill="#006CFB"/>
<circle cx="98.9842" cy="42.6577" r="3.11461" transform="rotate(-12.8038 98.9842 42.6577)" fill="#006CFB"/>
<circle cx="12.0106" cy="81.5881" r="3.11461" transform="rotate(-12.8038 12.0106 81.5881)" fill="#006CFB"/>
<circle cx="30.2333" cy="77.447" r="3.11461" transform="rotate(-12.8038 30.2333 77.447)" fill="#006CFB"/>
<circle cx="48.4569" cy="73.3054" r="3.11461" transform="rotate(-12.8038 48.4569 73.3054)" fill="#006CFB"/>
<circle cx="66.6796" cy="69.1641" r="3.11461" transform="rotate(-12.8038 66.6796 69.1641)" fill="#006CFB"/>
<circle cx="84.9022" cy="65.0225" r="3.11461" transform="rotate(-12.8038 84.9022 65.0225)" fill="#006CFB"/>
<circle cx="103.126" cy="60.8811" r="3.11461" transform="rotate(-12.8038 103.126 60.8811)" fill="#006CFB"/>
<circle cx="16.1522" cy="99.811" r="3.11461" transform="rotate(-12.8038 16.1522 99.811)" fill="#006CFB"/>
<circle cx="34.3749" cy="95.6699" r="3.11461" transform="rotate(-12.8038 34.3749 95.6699)" fill="#006CFB"/>
<circle cx="52.5985" cy="91.5281" r="3.11461" transform="rotate(-12.8038 52.5985 91.5281)" fill="#006CFB"/>
<circle cx="70.8212" cy="87.3867" r="3.11461" transform="rotate(-12.8038 70.8212 87.3867)" fill="#006CFB"/>
<circle cx="89.0438" cy="83.2454" r="3.11461" transform="rotate(-12.8038 89.0438 83.2454)" fill="#006CFB"/>
<circle cx="20.2928" cy="118.034" r="3.11461" transform="rotate(-12.8038 20.2928 118.034)" fill="#006CFB"/>
<circle cx="38.5165" cy="113.893" r="3.11461" transform="rotate(-12.8038 38.5165 113.893)" fill="#006CFB"/>
<circle cx="56.7391" cy="109.751" r="3.11461" transform="rotate(-12.8038 56.7391 109.751)" fill="#006CFB"/>
<circle cx="74.9618" cy="105.61" r="3.11461" transform="rotate(-12.8038 74.9618 105.61)" fill="#006CFB"/>
<circle cx="93.1854" cy="101.468" r="3.11461" transform="rotate(-12.8038 93.1854 101.468)" fill="#006CFB"/>
<circle cx="24.4344" cy="136.257" r="3.11461" transform="rotate(-12.8038 24.4344 136.257)" fill="#006CFB"/>
<circle cx="42.6571" cy="132.116" r="3.11461" transform="rotate(-12.8038 42.6571 132.116)" fill="#006CFB"/>
<circle cx="60.8807" cy="127.974" r="3.11461" transform="rotate(-12.8038 60.8807 127.974)" fill="#006CFB"/>
<circle cx="79.1034" cy="123.833" r="3.11461" transform="rotate(-12.8038 79.1034 123.833)" fill="#006CFB"/>
<circle cx="97.327" cy="119.692" r="3.11461" transform="rotate(-12.8038 97.327 119.692)" fill="#006CFB"/>
<circle cx="28.576" cy="154.48" r="3.11461" transform="rotate(-12.8038 28.576 154.48)" fill="#006CFB"/>
<circle cx="46.7987" cy="150.339" r="3.11461" transform="rotate(-12.8038 46.7987 150.339)" fill="#006CFB"/>
<circle cx="65.0223" cy="146.197" r="3.11461" transform="rotate(-12.8038 65.0223 146.197)" fill="#006CFB"/>
<circle cx="83.245" cy="142.056" r="3.11461" transform="rotate(-12.8038 83.245 142.056)" fill="#006CFB"/>
<circle cx="101.469" cy="137.914" r="3.11461" transform="rotate(-12.8038 101.469 137.914)" fill="#006CFB"/>
<circle cx="32.7176" cy="172.703" r="3.11461" transform="rotate(-12.8038 32.7176 172.703)" fill="#006CFB"/>
<circle cx="50.9403" cy="168.562" r="3.11461" transform="rotate(-12.8038 50.9403 168.562)" fill="#006CFB"/>
<circle cx="69.1639" cy="164.42" r="3.11461" transform="rotate(-12.8038 69.1639 164.42)" fill="#006CFB"/>
<circle cx="87.3866" cy="160.279" r="3.11461" transform="rotate(-12.8038 87.3866 160.279)" fill="#006CFB"/>
<circle cx="36.8592" cy="190.926" r="3.11461" transform="rotate(-12.8038 36.8592 190.926)" fill="#006CFB"/>
<circle cx="55.0819" cy="186.785" r="3.11461" transform="rotate(-12.8038 55.0819 186.785)" fill="#006CFB"/>
<circle cx="73.3055" cy="182.643" r="3.11461" transform="rotate(-12.8038 73.3055 182.643)" fill="#006CFB"/>
<circle cx="91.5282" cy="178.502" r="3.11461" transform="rotate(-12.8038 91.5282 178.502)" fill="#006CFB"/>
<circle cx="41.0008" cy="209.149" r="3.11461" transform="rotate(-12.8038 41.0008 209.149)" fill="#006CFB"/>
<circle cx="59.2235" cy="205.008" r="3.11461" transform="rotate(-12.8038 59.2235 205.008)" fill="#006CFB"/>
<circle cx="77.4471" cy="200.866" r="3.11461" transform="rotate(-12.8038 77.4471 200.866)" fill="#006CFB"/>
<circle cx="95.6698" cy="196.725" r="3.11461" transform="rotate(-12.8038 95.6698 196.725)" fill="#006CFB"/>
<circle cx="45.1424" cy="227.372" r="3.11461" transform="rotate(-12.8038 45.1424 227.372)" fill="#006CFB"/>
<circle cx="63.3651" cy="223.231" r="3.11461" transform="rotate(-12.8038 63.3651 223.231)" fill="#006CFB"/>
<circle cx="81.5887" cy="219.09" r="3.11461" transform="rotate(-12.8038 81.5887 219.09)" fill="#006CFB"/>
<circle cx="99.8114" cy="214.948" r="3.11461" transform="rotate(-12.8038 99.8114 214.948)" fill="#006CFB"/>
</g>
</svg>
