<svg width="117" height="181" viewBox="0 0 117 181" fill="none" xmlns="http://www.w3.org/2000/svg">
<circle cx="6.86726" cy="9.59393" r="2.56452" transform="rotate(8.32684 6.86726 9.59393)" fill="#39C4FF"/>
<circle cx="22.0919" cy="11.8222" r="2.56452" transform="rotate(8.32684 22.0919 11.8222)" fill="#39C4FF"/>
<circle cx="37.3175" cy="14.0507" r="2.56452" transform="rotate(8.32684 37.3175 14.0507)" fill="#39C4FF"/>
<circle cx="52.5421" cy="16.279" r="2.56452" transform="rotate(8.32684 52.5421 16.279)" fill="#39C4FF"/>
<circle cx="67.7667" cy="18.5073" r="2.56452" transform="rotate(8.32684 67.7667 18.5073)" fill="#39C4FF"/>
<circle cx="82.9913" cy="20.7358" r="2.56452" transform="rotate(8.32684 82.9913 20.7358)" fill="#39C4FF"/>
<circle cx="98.2159" cy="22.9641" r="2.56452" transform="rotate(8.32684 98.2159 22.9641)" fill="#39C4FF"/>
<circle cx="113.441" cy="25.1926" r="2.56452" transform="rotate(8.32684 113.441 25.1926)" fill="#39C4FF"/>
<circle cx="4.63874" cy="24.8188" r="2.56452" transform="rotate(8.32684 4.63874 24.8188)" fill="#39C4FF"/>
<circle cx="19.8634" cy="27.0471" r="2.56452" transform="rotate(8.32684 19.8634 27.0471)" fill="#39C4FF"/>
<circle cx="35.0889" cy="29.2753" r="2.56452" transform="rotate(8.32684 35.0889 29.2753)" fill="#39C4FF"/>
<circle cx="50.3135" cy="31.5038" r="2.56452" transform="rotate(8.32684 50.3135 31.5038)" fill="#39C4FF"/>
<circle cx="65.5382" cy="33.7321" r="2.56452" transform="rotate(8.32684 65.5382 33.7321)" fill="#39C4FF"/>
<circle cx="80.7637" cy="35.9604" r="2.56452" transform="rotate(8.32684 80.7637 35.9604)" fill="#39C4FF"/>
<circle cx="95.9884" cy="38.1889" r="2.56452" transform="rotate(8.32684 95.9884 38.1889)" fill="#39C4FF"/>
<circle cx="111.213" cy="40.4172" r="2.56452" transform="rotate(8.32684 111.213 40.4172)" fill="#39C4FF"/>
<circle cx="2.41023" cy="40.0439" r="2.56452" transform="rotate(8.32684 2.41023 40.0439)" fill="#39C4FF"/>
<circle cx="17.6348" cy="42.2722" r="2.56452" transform="rotate(8.32684 17.6348 42.2722)" fill="#39C4FF"/>
<circle cx="32.8604" cy="44.5004" r="2.56452" transform="rotate(8.32684 32.8604 44.5004)" fill="#39C4FF"/>
<circle cx="48.085" cy="46.7289" r="2.56452" transform="rotate(8.32684 48.085 46.7289)" fill="#39C4FF"/>
<circle cx="63.3096" cy="48.9572" r="2.56452" transform="rotate(8.32684 63.3096 48.9572)" fill="#39C4FF"/>
<circle cx="78.5352" cy="51.1855" r="2.56452" transform="rotate(8.32684 78.5352 51.1855)" fill="#39C4FF"/>
<circle cx="93.7598" cy="53.414" r="2.56452" transform="rotate(8.32684 93.7598 53.414)" fill="#39C4FF"/>
<circle cx="108.984" cy="55.6423" r="2.56452" transform="rotate(8.32684 108.984 55.6423)" fill="#39C4FF"/>
<circle cx="0.181714" cy="55.2685" r="2.56452" transform="rotate(8.32684 0.181714 55.2685)" fill="#39C4FF"/>
<circle cx="15.4063" cy="57.497" r="2.56452" transform="rotate(8.32684 15.4063 57.497)" fill="#39C4FF"/>
<circle cx="30.6319" cy="59.7253" r="2.56452" transform="rotate(8.32684 30.6319 59.7253)" fill="#39C4FF"/>
<circle cx="45.8565" cy="61.9536" r="2.56452" transform="rotate(8.32684 45.8565 61.9536)" fill="#39C4FF"/>
<circle cx="61.0811" cy="64.1821" r="2.56452" transform="rotate(8.32684 61.0811 64.1821)" fill="#39C4FF"/>
<circle cx="76.3067" cy="66.4103" r="2.56452" transform="rotate(8.32684 76.3067 66.4103)" fill="#39C4FF"/>
<circle cx="91.5313" cy="68.6386" r="2.56452" transform="rotate(8.32684 91.5313 68.6386)" fill="#39C4FF"/>
<circle cx="106.756" cy="70.8671" r="2.56452" transform="rotate(8.32684 106.756 70.8671)" fill="#39C4FF"/>
<circle cx="-2.04583" cy="70.4933" r="2.56452" transform="rotate(8.32684 -2.04583 70.4933)" fill="#39C4FF"/>
<circle cx="13.1788" cy="72.7216" r="2.56452" transform="rotate(8.32684 13.1788 72.7216)" fill="#39C4FF"/>
<circle cx="28.4034" cy="74.9501" r="2.56452" transform="rotate(8.32684 28.4034 74.9501)" fill="#39C4FF"/>
<circle cx="43.628" cy="77.1784" r="2.56452" transform="rotate(8.32684 43.628 77.1784)" fill="#39C4FF"/>
<circle cx="58.8536" cy="79.4067" r="2.56452" transform="rotate(8.32684 58.8536 79.4067)" fill="#39C4FF"/>
<circle cx="74.0782" cy="81.6352" r="2.56452" transform="rotate(8.32684 74.0782 81.6352)" fill="#39C4FF"/>
<circle cx="89.3028" cy="83.8635" r="2.56452" transform="rotate(8.32684 89.3028 83.8635)" fill="#39C4FF"/>
<circle cx="104.528" cy="86.0917" r="2.56452" transform="rotate(8.32684 104.528 86.0917)" fill="#39C4FF"/>
<circle cx="10.9503" cy="87.9467" r="2.56452" transform="rotate(8.32684 10.9503 87.9467)" fill="#39C4FF"/>
<circle cx="26.1749" cy="90.1752" r="2.56452" transform="rotate(8.32684 26.1749 90.1752)" fill="#39C4FF"/>
<circle cx="41.3995" cy="92.4035" r="2.56452" transform="rotate(8.32684 41.3995 92.4035)" fill="#39C4FF"/>
<circle cx="56.6251" cy="94.6318" r="2.56452" transform="rotate(8.32684 56.6251 94.6318)" fill="#39C4FF"/>
<circle cx="71.8497" cy="96.8603" r="2.56452" transform="rotate(8.32684 71.8497 96.8603)" fill="#39C4FF"/>
<circle cx="87.0743" cy="99.0886" r="2.56452" transform="rotate(8.32684 87.0743 99.0886)" fill="#39C4FF"/>
<circle cx="102.3" cy="101.317" r="2.56452" transform="rotate(8.32684 102.3 101.317)" fill="#39C4FF"/>
<circle cx="8.72175" cy="103.172" r="2.56452" transform="rotate(8.32684 8.72175 103.172)" fill="#39C4FF"/>
<circle cx="23.9464" cy="105.4" r="2.56452" transform="rotate(8.32684 23.9464 105.4)" fill="#39C4FF"/>
<circle cx="39.1719" cy="107.628" r="2.56452" transform="rotate(8.32684 39.1719 107.628)" fill="#39C4FF"/>
<circle cx="54.3966" cy="109.857" r="2.56452" transform="rotate(8.32684 54.3966 109.857)" fill="#39C4FF"/>
<circle cx="69.6212" cy="112.085" r="2.56452" transform="rotate(8.32684 69.6212 112.085)" fill="#39C4FF"/>
<circle cx="84.8458" cy="114.313" r="2.56452" transform="rotate(8.32684 84.8458 114.313)" fill="#39C4FF"/>
<circle cx="100.071" cy="116.542" r="2.56452" transform="rotate(8.32684 100.071 116.542)" fill="#39C4FF"/>
<circle cx="6.49324" cy="118.396" r="2.56452" transform="rotate(8.32684 6.49324 118.396)" fill="#39C4FF"/>
<circle cx="21.7188" cy="120.625" r="2.56452" transform="rotate(8.32684 21.7188 120.625)" fill="#39C4FF"/>
<circle cx="36.9434" cy="122.853" r="2.56452" transform="rotate(8.32684 36.9434 122.853)" fill="#39C4FF"/>
<circle cx="52.168" cy="125.081" r="2.56452" transform="rotate(8.32684 52.168 125.081)" fill="#39C4FF"/>
<circle cx="67.3936" cy="127.31" r="2.56452" transform="rotate(8.32684 67.3936 127.31)" fill="#39C4FF"/>
<circle cx="82.6182" cy="129.538" r="2.56452" transform="rotate(8.32684 82.6182 129.538)" fill="#39C4FF"/>
<circle cx="97.8428" cy="131.767" r="2.56452" transform="rotate(8.32684 97.8428 131.767)" fill="#39C4FF"/>
<circle cx="4.26472" cy="133.622" r="2.56452" transform="rotate(8.32684 4.26472 133.622)" fill="#39C4FF"/>
<circle cx="19.4903" cy="135.85" r="2.56452" transform="rotate(8.32684 19.4903 135.85)" fill="#39C4FF"/>
<circle cx="34.7149" cy="138.078" r="2.56452" transform="rotate(8.32684 34.7149 138.078)" fill="#39C4FF"/>
<circle cx="49.9395" cy="140.307" r="2.56452" transform="rotate(8.32684 49.9395 140.307)" fill="#39C4FF"/>
<circle cx="65.1651" cy="142.535" r="2.56452" transform="rotate(8.32684 65.1651 142.535)" fill="#39C4FF"/>
<circle cx="80.3897" cy="144.763" r="2.56452" transform="rotate(8.32684 80.3897 144.763)" fill="#39C4FF"/>
<circle cx="95.6143" cy="146.992" r="2.56452" transform="rotate(8.32684 95.6143 146.992)" fill="#39C4FF"/>
<circle cx="2.03621" cy="148.846" r="2.56452" transform="rotate(8.32684 2.03621 148.846)" fill="#39C4FF"/>
<circle cx="17.2618" cy="151.075" r="2.56452" transform="rotate(8.32684 17.2618 151.075)" fill="#39C4FF"/>
<circle cx="32.4864" cy="153.303" r="2.56452" transform="rotate(8.32684 32.4864 153.303)" fill="#39C4FF"/>
<circle cx="47.711" cy="155.531" r="2.56452" transform="rotate(8.32684 47.711 155.531)" fill="#39C4FF"/>
<circle cx="62.9366" cy="157.76" r="2.56452" transform="rotate(8.32684 62.9366 157.76)" fill="#39C4FF"/>
<circle cx="78.1612" cy="159.988" r="2.56452" transform="rotate(8.32684 78.1612 159.988)" fill="#39C4FF"/>
<circle cx="93.3858" cy="162.216" r="2.56452" transform="rotate(8.32684 93.3858 162.216)" fill="#39C4FF"/>
<circle cx="-0.191333" cy="164.071" r="2.56452" transform="rotate(8.32684 -0.191333 164.071)" fill="#39C4FF"/>
<circle cx="15.0333" cy="166.3" r="2.56452" transform="rotate(8.32684 15.0333 166.3)" fill="#39C4FF"/>
<circle cx="30.2579" cy="168.528" r="2.56452" transform="rotate(8.32684 30.2579 168.528)" fill="#39C4FF"/>
<circle cx="45.4825" cy="170.756" r="2.56452" transform="rotate(8.32684 45.4825 170.756)" fill="#39C4FF"/>
<circle cx="60.7081" cy="172.985" r="2.56452" transform="rotate(8.32684 60.7081 172.985)" fill="#39C4FF"/>
<circle cx="75.9327" cy="175.213" r="2.56452" transform="rotate(8.32684 75.9327 175.213)" fill="#39C4FF"/>
<circle cx="91.1583" cy="177.442" r="2.56452" transform="rotate(8.32684 91.1583 177.442)" fill="#39C4FF"/>
</svg>
