<svg width="106" height="229" viewBox="0 0 106 229" fill="none" xmlns="http://www.w3.org/2000/svg">
<circle cx="3.7319" cy="59.7551" r="2.90543" transform="rotate(-18.7459 3.7319 59.7551)" fill="#39C4FF"/>
<circle cx="20.2397" cy="54.1528" r="2.90543" transform="rotate(-18.7459 20.2397 54.1528)" fill="#39C4FF"/>
<circle cx="36.7475" cy="48.5505" r="2.90543" transform="rotate(-18.7459 36.7475 48.5505)" fill="#39C4FF"/>
<circle cx="53.2553" cy="42.948" r="2.90543" transform="rotate(-18.7459 53.2553 42.948)" fill="#39C4FF"/>
<circle cx="69.7632" cy="37.3457" r="2.90543" transform="rotate(-18.7459 69.7632 37.3457)" fill="#39C4FF"/>
<circle cx="86.271" cy="31.7434" r="2.90543" transform="rotate(-18.7459 86.271 31.7434)" fill="#39C4FF"/>
<circle cx="102.779" cy="26.1411" r="2.90543" transform="rotate(-18.7459 102.779 26.1411)" fill="#39C4FF"/>
<circle cx="9.33444" cy="76.2629" r="2.90543" transform="rotate(-18.7459 9.33444 76.2629)" fill="#39C4FF"/>
<circle cx="25.8423" cy="70.6604" r="2.90543" transform="rotate(-18.7459 25.8423 70.6604)" fill="#39C4FF"/>
<circle cx="42.3501" cy="65.0581" r="2.90543" transform="rotate(-18.7459 42.3501 65.0581)" fill="#39C4FF"/>
<circle cx="58.8579" cy="59.4558" r="2.90543" transform="rotate(-18.7459 58.8579 59.4558)" fill="#39C4FF"/>
<circle cx="75.3657" cy="53.8535" r="2.90543" transform="rotate(-18.7459 75.3657 53.8535)" fill="#39C4FF"/>
<circle cx="91.8735" cy="48.2509" r="2.90543" transform="rotate(-18.7459 91.8735 48.2509)" fill="#39C4FF"/>
<circle cx="108.381" cy="42.6486" r="2.90543" transform="rotate(-18.7459 108.381 42.6486)" fill="#39C4FF"/>
<circle cx="14.937" cy="92.771" r="2.90543" transform="rotate(-18.7459 14.937 92.771)" fill="#39C4FF"/>
<circle cx="31.4448" cy="87.1687" r="2.90543" transform="rotate(-18.7459 31.4448 87.1687)" fill="#39C4FF"/>
<circle cx="47.9526" cy="81.5664" r="2.90543" transform="rotate(-18.7459 47.9526 81.5664)" fill="#39C4FF"/>
<circle cx="64.4604" cy="75.9641" r="2.90543" transform="rotate(-18.7459 64.4604 75.9641)" fill="#39C4FF"/>
<circle cx="80.9682" cy="70.3618" r="2.90543" transform="rotate(-18.7459 80.9682 70.3618)" fill="#39C4FF"/>
<circle cx="97.476" cy="64.7592" r="2.90543" transform="rotate(-18.7459 97.476 64.7592)" fill="#39C4FF"/>
<circle cx="20.5385" cy="109.279" r="2.90543" transform="rotate(-18.7459 20.5385 109.279)" fill="#39C4FF"/>
<circle cx="37.0464" cy="103.676" r="2.90543" transform="rotate(-18.7459 37.0464 103.676)" fill="#39C4FF"/>
<circle cx="53.5542" cy="98.0734" r="2.90543" transform="rotate(-18.7459 53.5542 98.0734)" fill="#39C4FF"/>
<circle cx="70.062" cy="92.4716" r="2.90543" transform="rotate(-18.7459 70.062 92.4716)" fill="#39C4FF"/>
<circle cx="86.5698" cy="86.8693" r="2.90543" transform="rotate(-18.7459 86.5698 86.8693)" fill="#39C4FF"/>
<circle cx="103.079" cy="81.267" r="2.90543" transform="rotate(-18.7459 103.079 81.267)" fill="#39C4FF"/>
<circle cx="26.1411" cy="125.786" r="2.90543" transform="rotate(-18.7459 26.1411 125.786)" fill="#39C4FF"/>
<circle cx="42.6489" cy="120.184" r="2.90543" transform="rotate(-18.7459 42.6489 120.184)" fill="#39C4FF"/>
<circle cx="59.1567" cy="114.581" r="2.90543" transform="rotate(-18.7459 59.1567 114.581)" fill="#39C4FF"/>
<circle cx="75.6645" cy="108.979" r="2.90543" transform="rotate(-18.7459 75.6645 108.979)" fill="#39C4FF"/>
<circle cx="92.1723" cy="103.377" r="2.90543" transform="rotate(-18.7459 92.1723 103.377)" fill="#39C4FF"/>
<circle cx="108.68" cy="97.7741" r="2.90543" transform="rotate(-18.7459 108.68 97.7741)" fill="#39C4FF"/>
<circle cx="31.7436" cy="142.294" r="2.90543" transform="rotate(-18.7459 31.7436 142.294)" fill="#39C4FF"/>
<circle cx="48.2514" cy="136.692" r="2.90543" transform="rotate(-18.7459 48.2514 136.692)" fill="#39C4FF"/>
<circle cx="64.7592" cy="131.09" r="2.90543" transform="rotate(-18.7459 64.7592 131.09)" fill="#39C4FF"/>
<circle cx="81.2671" cy="125.487" r="2.90543" transform="rotate(-18.7459 81.2671 125.487)" fill="#39C4FF"/>
<circle cx="97.7749" cy="119.885" r="2.90543" transform="rotate(-18.7459 97.7749 119.885)" fill="#39C4FF"/>
<circle cx="37.3462" cy="158.802" r="2.90543" transform="rotate(-18.7459 37.3462 158.802)" fill="#39C4FF"/>
<circle cx="53.854" cy="153.2" r="2.90543" transform="rotate(-18.7459 53.854 153.2)" fill="#39C4FF"/>
<circle cx="70.3618" cy="147.597" r="2.90543" transform="rotate(-18.7459 70.3618 147.597)" fill="#39C4FF"/>
<circle cx="86.8696" cy="141.995" r="2.90543" transform="rotate(-18.7459 86.8696 141.995)" fill="#39C4FF"/>
<circle cx="103.377" cy="136.393" r="2.90543" transform="rotate(-18.7459 103.377 136.393)" fill="#39C4FF"/>
<circle cx="42.9487" cy="175.31" r="2.90543" transform="rotate(-18.7459 42.9487 175.31)" fill="#39C4FF"/>
<circle cx="59.4565" cy="169.707" r="2.90543" transform="rotate(-18.7459 59.4565 169.707)" fill="#39C4FF"/>
<circle cx="75.9643" cy="164.105" r="2.90543" transform="rotate(-18.7459 75.9643 164.105)" fill="#39C4FF"/>
<circle cx="92.4721" cy="158.503" r="2.90543" transform="rotate(-18.7459 92.4721 158.503)" fill="#39C4FF"/>
<circle cx="108.98" cy="152.9" r="2.90543" transform="rotate(-18.7459 108.98 152.9)" fill="#39C4FF"/>
<circle cx="48.5503" cy="191.818" r="2.90543" transform="rotate(-18.7459 48.5503 191.818)" fill="#39C4FF"/>
<circle cx="65.0581" cy="186.216" r="2.90543" transform="rotate(-18.7459 65.0581 186.216)" fill="#39C4FF"/>
<circle cx="81.5669" cy="180.613" r="2.90543" transform="rotate(-18.7459 81.5669 180.613)" fill="#39C4FF"/>
<circle cx="98.0737" cy="175.011" r="2.90543" transform="rotate(-18.7459 98.0737 175.011)" fill="#39C4FF"/>
<circle cx="54.1528" cy="208.326" r="2.90543" transform="rotate(-18.7459 54.1528 208.326)" fill="#39C4FF"/>
<circle cx="70.6606" cy="202.723" r="2.90543" transform="rotate(-18.7459 70.6606 202.723)" fill="#39C4FF"/>
<circle cx="87.1684" cy="197.121" r="2.90543" transform="rotate(-18.7459 87.1684 197.121)" fill="#39C4FF"/>
<circle cx="103.676" cy="191.519" r="2.90543" transform="rotate(-18.7459 103.676 191.519)" fill="#39C4FF"/>
<circle cx="59.7553" cy="224.833" r="2.90543" transform="rotate(-18.7459 59.7553 224.833)" fill="#39C4FF"/>
<circle cx="76.2632" cy="219.231" r="2.90543" transform="rotate(-18.7459 76.2632 219.231)" fill="#39C4FF"/>
<circle cx="92.771" cy="213.629" r="2.90543" transform="rotate(-18.7459 92.771 213.629)" fill="#39C4FF"/>
<circle cx="109.279" cy="208.026" r="2.90543" transform="rotate(-18.7459 109.279 208.026)" fill="#39C4FF"/>
</svg>
