<svg width="36" height="36" viewBox="0 0 36 36" fill="none" xmlns="http://www.w3.org/2000/svg">
<g clip-path="url(#clip0)">
<path d="M0.408203 33.6077L0.87487 34.6581L17.6207 27.7145L20.5381 28.0647L21.5883 31.2738L20.188 32.616C19.6629 33.0826 19.488 33.841 19.7797 34.5413L20.3632 36L30.0487 32.2074L29.5236 30.8071C29.2903 30.1068 28.6484 29.6986 27.89 29.6986H25.9643L24.9142 27.1895L27.4814 25.906C28.2982 25.4974 28.6484 24.5638 28.3566 23.747L25.031 14.82C24.6809 13.8863 23.6888 13.4778 22.7552 13.7695C22.7552 13.7695 22.6971 13.7695 22.6971 13.8279L20.2464 14.8781L19.8962 14.0029L21.2384 12.4276C22.1717 11.3772 22.7552 10.0937 22.9304 8.69345L24.6224 6.65129C25.731 5.36753 25.4977 3.44217 24.2139 2.33334C23.9806 2.15841 23.7472 1.98348 23.5139 1.86667C22.872 1.57493 22.2301 1.51653 21.5301 1.69174L21.3549 1.16639C21.0632 0.233054 20.013 -0.233898 19.1378 0.116245L6.82644 4.55072C5.89282 4.90086 5.42615 5.8926 5.77629 6.76781V6.82622L6.06803 7.58462C4.55094 8.28491 3.85065 10.0353 4.37572 11.5524C4.78427 12.7194 5.83441 13.5362 7.05977 13.7111L9.80222 14.0029C10.9108 14.82 12.2526 15.345 13.5948 15.4615L15.5202 15.6368L15.8703 16.512C15.4618 16.7453 15.17 17.1539 15.0535 17.6789L14.645 19.6627L0.408203 25.439L0.81675 26.5476L8.98541 23.2803L10.9692 29.2316L0.408203 33.6077ZM28.3566 31.1573L28.4734 31.5071L21.0048 34.4829L20.8299 34.1328C20.7715 33.8994 20.8299 33.6661 20.9467 33.4912L22.9304 31.6239L25.4393 30.8071H27.7732C28.0649 30.8071 28.2401 30.9237 28.3566 31.1573ZM24.6809 29.7567L22.5803 30.457L21.8219 28.2399C22.1717 28.298 22.4635 28.2399 22.7552 28.0647L23.7472 27.598L24.6809 29.7567ZM23.1054 14.7031C23.3971 14.5863 23.7472 14.7031 23.864 14.9949L24.3307 16.2202L21.4717 17.1539L21.8219 18.2624L24.6809 17.3288L25.3809 19.196L22.6387 20.1294L22.9888 21.2382L25.7894 20.3046L26.4897 22.1715L23.8056 23.0467L24.1558 24.1556L26.8979 23.2219L27.1897 23.9804C27.3065 24.2721 27.1897 24.5638 26.8979 24.6806L22.2885 26.9561C22.1717 27.0145 22.0552 27.0145 21.9384 27.0145L17.9709 26.5476L15.8119 20.0712L16.2205 17.9123C16.2789 17.7373 16.3954 17.5621 16.5706 17.5037L23.1054 14.7031ZM23.047 2.91682C23.9806 3.32536 24.4475 4.43391 24.039 5.42593C23.9806 5.60086 23.864 5.71767 23.7472 5.8926L23.047 6.76781C22.9888 6.18434 22.872 5.65927 22.6971 5.07579L21.9384 2.80029C22.347 2.74189 22.6971 2.80029 23.047 2.91682ZM5.54268 11.2607C5.19282 10.2687 5.60108 9.21853 6.5347 8.75157L7.35151 10.7356C7.64325 11.4356 8.05179 12.1359 8.51846 12.7194L7.2931 12.6026C6.47629 12.5442 5.77629 12.0191 5.54268 11.2607ZM13.8281 14.353C11.4358 14.1197 9.33527 12.6026 8.46006 10.3271L6.94325 6.47608C6.82644 6.18434 6.94325 5.83419 7.23498 5.71767L19.5461 1.2832C19.7213 1.22479 19.8378 1.22479 20.013 1.2832C20.1296 1.3416 20.2464 1.45813 20.3048 1.63334L21.5883 5.48434C22.2885 7.64303 21.8219 9.97693 20.3632 11.669L18.5544 13.7695L19.0794 15.1698L16.9789 16.045L16.3954 14.5863L13.8281 14.353ZM10.094 22.8134L11.4358 22.2883L12.8945 26.7228L14.0031 26.3727L12.4863 21.8217L14.8202 20.888L16.8039 26.7812L12.0777 28.765L10.094 22.8134Z" fill="#39C4FF"/>
<path d="M29.2318 10.2102V10.7937H30.3988V10.2102C30.3988 8.57662 31.6825 7.29286 33.3161 7.29286V6.12591C31.6825 6.12591 30.3988 4.84244 30.3988 3.20854V2.62506H29.2318V3.20854C29.2318 4.84244 27.9484 6.12591 26.3145 6.12591V7.29286C27.9484 7.29286 29.2318 8.57662 29.2318 10.2102ZM29.8153 5.3091C30.1654 5.89258 30.6321 6.35953 31.2156 6.70939C30.6321 7.05953 30.1654 7.52648 29.8153 8.10996C29.4652 7.52648 28.9985 7.05953 28.415 6.70939C28.9985 6.35953 29.4652 5.89258 29.8153 5.3091Z" fill="#006CFB"/>
<path d="M3.55898 21.8797V22.4632H4.72593V21.8797C4.72593 20.2461 6.00969 18.9624 7.64331 18.9624V17.7954C6.00969 17.7954 4.72593 16.5119 4.72593 14.878V14.2946H3.55898V14.878C3.55898 16.5119 2.2755 17.7954 0.641602 17.7954V18.9624C2.2755 18.9624 3.55898 20.2461 3.55898 21.8797ZM4.14246 16.9786C4.4926 17.5621 4.95927 18.029 5.54274 18.3789C4.95927 18.729 4.4926 19.196 4.14246 19.7795C3.79231 19.196 3.32565 18.729 2.74217 18.3789C3.32565 18.029 3.79231 17.5621 4.14246 16.9786Z" fill="#006CFB"/>
<path d="M32.7328 14.878V14.2946H31.5658V14.878C31.5658 16.5119 30.2823 17.7954 28.6484 17.7954V18.9624C30.2823 18.9624 31.5658 20.2461 31.5658 21.8797V22.4632H32.7328V21.8797C32.7328 20.2461 34.0165 18.9624 35.6501 18.9624V17.7954C34.0165 17.7954 32.7328 16.5119 32.7328 14.878ZM32.1493 19.7795C31.7991 19.196 31.3325 18.729 30.749 18.3789C31.3325 18.029 31.7991 17.5621 32.1493 16.9786C32.4994 17.5621 32.9661 18.029 33.5496 18.3789C32.9661 18.729 32.4994 19.196 32.1493 19.7795Z" fill="#006CFB"/>
<path d="M17.7369 10.3855L18.5537 11.2023C21.7628 7.99316 18.7871 3.09202 18.6121 2.91681L17.6201 3.55869C17.6785 3.55869 20.3041 7.81823 17.7369 10.3855Z" fill="#006CFB"/>
</g>
<defs>
<clipPath id="clip0">
<rect width="36" height="36" fill="white"/>
</clipPath>
</defs>
</svg>
