<svg width="31" height="32" viewBox="0 0 31 32" fill="none" xmlns="http://www.w3.org/2000/svg">
<path d="M7.8809 23.8804H4.29881C2.58425 23.8804 1.19434 22.4905 1.19434 20.776V1.91028C1.19434 3.62485 2.58425 5.01476 4.29881 5.01476H4.77643V20.776C4.77643 22.4905 6.16634 23.8804 7.8809 23.8804ZM21.2211 12.9458L22.3481 7.84085C22.6361 6.40001 23.3442 5.07667 24.3832 4.03762L26.4971 1.92371C25.5943 1.84162 24.663 2.14592 23.9718 2.83702L20.3235 6.48532C19.2845 7.52431 18.5764 8.84765 18.2884 10.2885L17.6122 13.6715C17.6122 13.6715 21.1461 12.9632 21.2211 12.9458Z" fill="#CEE1F2"/>
<path d="M29.3731 12C28.7137 12 28.1791 12.5346 28.1791 13.194V23.136C27.6032 22.849 26.9547 22.6866 26.2687 22.6866H4.29851C3.24507 22.6866 2.38806 21.8296 2.38806 20.7761V5.76067C2.96394 6.04753 3.61266 6.20897 4.29851 6.20897H15.2836C15.943 6.20897 16.4776 5.6744 16.4776 5.01494C16.4776 4.35548 15.943 3.82091 15.2836 3.82091H4.29851C3.24507 3.82091 2.38806 2.96389 2.38806 1.91046C2.38806 1.251 1.85349 0.716431 1.19403 0.716431C0.534567 0.716431 0 1.251 0 1.91046V20.7761C0 23.1463 1.9283 25.0746 4.29851 25.0746H26.2687C27.3221 25.0746 28.1791 25.9317 28.1791 26.9851C28.1791 28.0385 27.3221 28.8955 26.2687 28.8955C25.7826 28.8955 25.3195 28.7129 24.9647 28.3814C24.483 27.9312 23.7273 27.9567 23.277 28.4385C22.8267 28.9203 22.8524 29.6759 23.3341 30.1262C24.1329 30.8726 25.175 31.2836 26.2687 31.2836C28.6389 31.2836 30.5672 29.3553 30.5672 26.9851C30.5672 26.9451 30.5672 13.194 30.5672 13.194C30.5672 12.5346 30.0326 12 29.3731 12Z" fill="#006CFB"/>
<path d="M16.7677 14.5158C16.9939 14.742 17.2985 14.8656 17.6121 14.8656C17.6898 14.8656 17.7682 14.8579 17.8461 14.8424L21.229 14.1662C22.9066 13.8309 24.4327 13.0142 25.6425 11.8045L29.2907 8.15625C30.1139 7.33308 30.5673 6.23864 30.5673 5.07452C30.5673 3.9104 30.1139 2.81595 29.2907 1.99279C28.4676 1.16962 27.3731 0.716309 26.2091 0.716309C25.045 0.716309 23.9505 1.16962 23.1273 1.99279L19.479 5.64108C18.2693 6.85082 17.4527 8.37702 17.1173 10.0546L16.4411 13.4375C16.3629 13.8289 16.4855 14.2336 16.7677 14.5158ZM19.4591 10.5226C19.7017 9.30896 20.2924 8.20491 21.1676 7.32974L24.8159 3.68144C25.1881 3.30932 25.6829 3.10437 26.2091 3.10437C26.7353 3.10437 27.2301 3.30932 27.6022 3.68144C27.9743 4.0535 28.1792 4.54831 28.1792 5.07452C28.1792 5.60073 27.9743 6.09553 27.6021 6.46759L23.9539 10.1159C23.0787 10.9911 21.9746 11.5819 20.761 11.8244L19.134 12.1496L19.4591 10.5226Z" fill="#006CFB"/>
<path d="M19.582 20.1192H8.35809C7.69863 20.1192 7.16406 19.5846 7.16406 18.9252C7.16406 18.2657 7.69863 17.7312 8.35809 17.7312H19.582C20.2414 17.7312 20.776 18.2657 20.776 18.9252C20.776 19.5846 20.2414 20.1192 19.582 20.1192ZM13.5521 14.4476C13.5521 13.7881 13.0176 13.2535 12.3581 13.2535H8.35809C7.69863 13.2535 7.16406 13.7881 7.16406 14.4476C7.16406 15.107 7.69863 15.6416 8.35809 15.6416H12.3581C13.0176 15.6416 13.5521 15.107 13.5521 14.4476Z" fill="#39C4FF"/>
</svg>
